<svg xmlns="http://www.w3.org/2000/svg" xmlns:xlink="http://www.w3.org/1999/xlink" width="120" zoomAndPan="magnify" viewBox="0 0 90 89.999999" height="120" preserveAspectRatio="xMidYMid meet" version="1.0"><defs><g/><clipPath id="4093f19f26"><path d="M 2.878906 0 L 87.121094 0 C 88.710938 0 90 1.289062 90 2.878906 L 90 87.121094 C 90 88.710938 88.710938 90 87.121094 90 L 2.878906 90 C 1.289062 90 0 88.710938 0 87.121094 L 0 2.878906 C 0 1.289062 1.289062 0 2.878906 0 Z M 2.878906 0 " clip-rule="nonzero"/></clipPath><clipPath id="23b3c7e500"><path d="M 0 0 L 90 0 L 90 90 L 0 90 Z M 0 0 " clip-rule="nonzero"/></clipPath><clipPath id="adc7985b20"><path d="M 2.878906 0 L 87.121094 0 C 88.710938 0 90 1.289062 90 2.878906 L 90 87.121094 C 90 88.710938 88.710938 90 87.121094 90 L 2.878906 90 C 1.289062 90 0 88.710938 0 87.121094 L 0 2.878906 C 0 1.289062 1.289062 0 2.878906 0 Z M 2.878906 0 " clip-rule="nonzero"/></clipPath><clipPath id="4312e0e394"><rect x="0" width="90" y="0" height="90"/></clipPath><clipPath id="6b45319939"><path d="M 10.761719 10.277344 L 79.011719 10.277344 L 79.011719 60.515625 L 10.761719 60.515625 Z M 10.761719 10.277344 " clip-rule="nonzero"/></clipPath><clipPath id="0eb4e149e5"><path d="M 0.320312 1 L 8 1 L 8 14 L 0.320312 14 Z M 0.320312 1 " clip-rule="nonzero"/></clipPath><clipPath id="a1f259b259"><path d="M 38 0.441406 L 51 0.441406 L 51 14 L 38 14 Z M 38 0.441406 " clip-rule="nonzero"/></clipPath><clipPath id="11df3d3575"><rect x="0" width="71" y="0" height="17"/></clipPath></defs><rect x="-9" width="108" fill="#ffffff" y="-9" height="107.999999" fill-opacity="1"/><rect x="-9" width="108" fill="#ffffff" y="-9" height="107.999999" fill-opacity="1"/><g clip-path="url(#4093f19f26)"><g transform="matrix(1, 0, 0, 1, 0, -0.00000000000000949)"><g clip-path="url(#4312e0e394)"><g clip-path="url(#23b3c7e500)"><g clip-path="url(#adc7985b20)"><rect x="-19.8" width="129.6" fill="#000000" height="129.599999" y="-19.8" fill-opacity="1"/></g></g></g></g></g><g clip-path="url(#6b45319939)"><path fill="#ffffff" d="M 75.734375 37.425781 C 74.476562 39.378906 69.359375 41.378906 68.566406 41.679688 C 68.515625 41.699219 68.464844 41.722656 68.414062 41.746094 C 68.265625 41.816406 67.78125 41.949219 67.070312 41.191406 C 66.441406 40.523438 65.367188 38.835938 64.816406 37.957031 C 64.640625 37.667969 64.765625 37.289062 65.082031 37.167969 L 74.636719 33.535156 C 74.839844 33.457031 75.066406 33.515625 75.210938 33.675781 C 75.734375 34.265625 76.796875 35.78125 75.734375 37.425781 Z M 73.226562 51.765625 C 72.566406 51.953125 71.617188 52.085938 70.296875 52.003906 C 69.824219 51.976562 69.378906 51.800781 69.015625 51.5 L 66.023438 49.015625 C 65.574219 48.644531 65.65625 47.933594 66.171875 47.671875 C 67.300781 47.105469 69.277344 46.371094 71.722656 46.5625 C 72.761719 46.644531 73.664062 47.304688 74.046875 48.277344 C 74.210938 48.691406 74.363281 49.191406 74.464844 49.78125 C 74.621094 50.664062 74.085938 51.519531 73.226562 51.765625 Z M 64.292969 52.179688 L 25.695312 52.179688 C 25.3125 52.179688 25.113281 51.9375 25.371094 51.789062 L 27.113281 50.796875 C 29.085938 49.78125 31.375 49.691406 32.277344 49.699219 C 33.292969 49.710938 34.304688 49.714844 35.320312 49.714844 L 54.671875 49.714844 C 55.6875 49.714844 56.699219 49.710938 57.710938 49.699219 C 58.617188 49.691406 60.90625 49.78125 62.878906 50.796875 L 64.617188 51.789062 C 64.878906 51.9375 64.679688 52.179688 64.292969 52.179688 Z M 25.175781 37.957031 C 24.625 38.835938 23.546875 40.523438 22.921875 41.191406 C 22.210938 41.949219 21.726562 41.816406 21.578125 41.746094 C 21.527344 41.722656 21.476562 41.699219 21.425781 41.679688 C 20.632812 41.378906 15.515625 39.378906 14.253906 37.425781 C 13.191406 35.78125 14.257812 34.265625 14.78125 33.675781 C 14.925781 33.515625 15.152344 33.457031 15.355469 33.535156 L 24.910156 37.167969 C 25.222656 37.289062 25.351562 37.667969 25.175781 37.957031 Z M 23.96875 49.015625 L 20.976562 51.5 C 20.613281 51.800781 20.164062 51.976562 19.695312 52.003906 C 18.371094 52.085938 17.425781 51.953125 16.765625 51.765625 C 15.902344 51.519531 15.371094 50.664062 15.527344 49.78125 C 15.628906 49.191406 15.78125 48.691406 15.945312 48.277344 C 16.328125 47.304688 17.230469 46.644531 18.269531 46.5625 C 20.714844 46.371094 22.691406 47.105469 23.816406 47.671875 C 24.335938 47.933594 24.414062 48.644531 23.96875 49.015625 Z M 62.511719 43.523438 C 61.75 44.199219 60.511719 44.929688 58.550781 45.261719 C 58.550781 45.261719 53.511719 46.15625 44.996094 46.15625 C 36.480469 46.15625 31.441406 45.261719 31.441406 45.261719 C 29.480469 44.929688 28.242188 44.199219 27.476562 43.523438 C 26.730469 42.859375 26.570312 41.753906 27.09375 40.90625 L 27.507812 40.230469 C 28.289062 38.964844 29.574219 38.097656 31.042969 37.859375 C 34.191406 37.347656 39.15625 37.3125 42.238281 37.347656 C 44.054688 37.367188 45.871094 37.371094 47.691406 37.347656 C 50.765625 37.3125 55.78125 37.34375 58.949219 37.859375 C 60.414062 38.097656 61.703125 38.964844 62.484375 40.230469 L 62.898438 40.90625 C 63.421875 41.753906 63.261719 42.859375 62.511719 43.523438 Z M 22.101562 23.042969 C 22.429688 22.019531 23.507812 19.367188 26.847656 14.6875 C 27.535156 13.722656 28.621094 13.117188 29.804688 13.039062 C 32.867188 12.835938 39.226562 12.460938 44.996094 12.460938 C 50.765625 12.460938 57.125 12.835938 60.1875 13.039062 C 61.371094 13.117188 62.453125 13.722656 63.144531 14.6875 C 66.484375 19.367188 67.5625 22.019531 67.890625 23.042969 C 67.96875 23.289062 67.78125 23.539062 67.523438 23.535156 L 44.996094 23.191406 L 22.46875 23.535156 C 22.210938 23.539062 22.023438 23.289062 22.101562 23.042969 Z M 79.226562 52.878906 L 78.949219 36.628906 C 78.773438 31.855469 72.152344 25.746094 72.152344 25.746094 C 72.824219 25.378906 73.574219 25.167969 74.339844 25.132812 C 75.421875 25.085938 76.960938 24.710938 76.59375 22.894531 C 76.183594 20.894531 73.125 20.417969 71.496094 20.304688 C 70.988281 20.269531 70.585938 20.734375 70.6875 21.234375 L 71.257812 23.992188 C 71.257812 23.992188 71.257812 23.996094 71.257812 23.996094 C 71.296875 24.203125 71.015625 24.308594 70.90625 24.128906 L 70.402344 23.277344 C 66.398438 16.414062 64.652344 13.980469 63.1875 12.722656 C 62.519531 12.152344 61.722656 11.753906 60.867188 11.566406 C 54.527344 10.15625 44.996094 10.28125 44.996094 10.28125 C 44.996094 10.28125 35.464844 10.15625 29.125 11.566406 C 28.269531 11.753906 27.46875 12.152344 26.804688 12.722656 C 25.335938 13.980469 23.59375 16.414062 19.589844 23.277344 L 19.082031 24.128906 C 18.976562 24.308594 18.691406 24.203125 18.734375 23.996094 C 18.734375 23.996094 18.734375 23.992188 18.734375 23.992188 L 19.304688 21.234375 C 19.40625 20.734375 19.003906 20.269531 18.492188 20.304688 C 16.867188 20.417969 13.808594 20.894531 13.398438 22.894531 C 13.03125 24.710938 14.566406 25.085938 15.652344 25.132812 C 16.417969 25.167969 17.164062 25.378906 17.839844 25.746094 C 17.839844 25.746094 11.21875 31.855469 11.042969 36.628906 L 10.761719 52.878906 C 10.75 53.554688 11.019531 54.199219 11.492188 54.660156 L 11.492188 56.554688 C 11.492188 58.816406 13.34375 60.667969 15.605469 60.667969 L 23.148438 60.667969 C 24.679688 60.667969 25.9375 59.414062 25.9375 57.878906 L 25.9375 56.703125 L 64.054688 56.703125 L 64.054688 57.878906 C 64.054688 59.414062 65.308594 60.667969 66.84375 60.667969 L 74.386719 60.667969 C 76.648438 60.667969 78.496094 58.816406 78.496094 56.554688 L 78.496094 54.660156 C 78.972656 54.199219 79.238281 53.554688 79.226562 52.878906 " fill-opacity="1" fill-rule="nonzero"/></g><g transform="matrix(1, 0, 0, 1, 10, 67)"><g clip-path="url(#11df3d3575)"><g clip-path="url(#0eb4e149e5)"><g fill="#ffffff" fill-opacity="1"><g transform="translate(0.476953, 12.671854)"><g><path d="M 4.015625 0.34375 C 3.046875 0.34375 2.238281 0.0820312 1.59375 -0.4375 C 0.945312 -0.957031 0.523438 -1.6875 0.328125 -2.625 L 1.53125 -3.140625 C 1.632812 -2.421875 1.894531 -1.859375 2.3125 -1.453125 C 2.738281 -1.054688 3.289062 -0.859375 3.96875 -0.859375 C 4.632812 -0.859375 5.148438 -1.078125 5.515625 -1.515625 C 5.878906 -1.953125 6.0625 -2.570312 6.0625 -3.375 L 6.0625 -11.65625 L 7.453125 -11.65625 L 7.453125 -3.234375 C 7.453125 -2.097656 7.148438 -1.21875 6.546875 -0.59375 C 5.953125 0.03125 5.109375 0.34375 4.015625 0.34375 Z M 4.015625 0.34375 "/></g></g></g></g><g fill="#ffffff" fill-opacity="1"><g transform="translate(9.373494, 12.671854)"><g><path d="M 3.546875 0.328125 C 2.921875 0.328125 2.363281 0.222656 1.875 0.015625 C 1.394531 -0.191406 1.015625 -0.484375 0.734375 -0.859375 C 0.460938 -1.242188 0.328125 -1.6875 0.328125 -2.1875 C 0.328125 -2.851562 0.613281 -3.429688 1.1875 -3.921875 C 1.769531 -4.421875 2.738281 -4.753906 4.09375 -4.921875 L 6.171875 -5.171875 C 6.378906 -5.191406 6.539062 -5.257812 6.65625 -5.375 C 6.78125 -5.488281 6.84375 -5.632812 6.84375 -5.8125 C 6.84375 -6.332031 6.613281 -6.75 6.15625 -7.0625 C 5.707031 -7.375 5.117188 -7.53125 4.390625 -7.53125 C 3.878906 -7.53125 3.414062 -7.429688 3 -7.234375 C 2.59375 -7.046875 2.269531 -6.796875 2.03125 -6.484375 C 1.800781 -6.179688 1.675781 -5.863281 1.65625 -5.53125 L 0.515625 -6.015625 C 0.566406 -6.484375 0.765625 -6.914062 1.109375 -7.3125 C 1.460938 -7.71875 1.925781 -8.046875 2.5 -8.296875 C 3.082031 -8.546875 3.734375 -8.671875 4.453125 -8.671875 C 5.160156 -8.671875 5.785156 -8.546875 6.328125 -8.296875 C 6.878906 -8.054688 7.304688 -7.707031 7.609375 -7.25 C 7.921875 -6.789062 8.078125 -6.25 8.078125 -5.625 L 8.078125 -1.390625 C 8.078125 -1.222656 8.117188 -1.085938 8.203125 -0.984375 C 8.285156 -0.878906 8.394531 -0.828125 8.53125 -0.828125 C 8.78125 -0.828125 9.003906 -0.992188 9.203125 -1.328125 L 9.890625 -0.53125 C 9.710938 -0.28125 9.460938 -0.078125 9.140625 0.078125 C 8.828125 0.242188 8.515625 0.328125 8.203125 0.328125 C 7.796875 0.328125 7.46875 0.195312 7.21875 -0.0625 C 6.976562 -0.320312 6.847656 -0.640625 6.828125 -1.015625 L 6.8125 -1.390625 L 6.796875 -1.390625 C 6.492188 -0.859375 6.0625 -0.4375 5.5 -0.125 C 4.945312 0.175781 4.296875 0.328125 3.546875 0.328125 Z M 3.765625 -0.8125 C 4.347656 -0.8125 4.867188 -0.925781 5.328125 -1.15625 C 5.785156 -1.394531 6.144531 -1.722656 6.40625 -2.140625 C 6.675781 -2.554688 6.8125 -3.035156 6.8125 -3.578125 L 6.8125 -4.171875 L 4.234375 -3.859375 C 3.234375 -3.734375 2.539062 -3.519531 2.15625 -3.21875 C 1.78125 -2.925781 1.59375 -2.585938 1.59375 -2.203125 C 1.59375 -1.785156 1.796875 -1.445312 2.203125 -1.1875 C 2.609375 -0.9375 3.128906 -0.8125 3.765625 -0.8125 Z M 3.765625 -0.8125 "/></g></g></g><g fill="#ffffff" fill-opacity="1"><g transform="translate(19.874054, 12.671854)"><g><path d="M 4.453125 -8.703125 C 5.160156 -8.703125 5.742188 -8.472656 6.203125 -8.015625 C 6.660156 -7.566406 6.929688 -6.921875 7.015625 -6.078125 L 5.921875 -5.71875 C 5.847656 -6.300781 5.664062 -6.742188 5.375 -7.046875 C 5.082031 -7.359375 4.710938 -7.515625 4.265625 -7.515625 C 3.585938 -7.515625 3.050781 -7.253906 2.65625 -6.734375 C 2.269531 -6.222656 2.078125 -5.507812 2.078125 -4.59375 L 2.078125 0 L 0.828125 0 L 0.828125 -8.34375 L 1.90625 -8.34375 L 2.015625 -7.046875 L 2.03125 -7.046875 C 2.257812 -7.546875 2.585938 -7.945312 3.015625 -8.25 C 3.441406 -8.550781 3.921875 -8.703125 4.453125 -8.703125 Z M 4.453125 -8.703125 "/></g></g></g><g fill="#ffffff" fill-opacity="1"><g transform="translate(27.761881, 12.671854)"><g><path d="M 3.546875 0.328125 C 2.921875 0.328125 2.363281 0.222656 1.875 0.015625 C 1.394531 -0.191406 1.015625 -0.484375 0.734375 -0.859375 C 0.460938 -1.242188 0.328125 -1.6875 0.328125 -2.1875 C 0.328125 -2.851562 0.613281 -3.429688 1.1875 -3.921875 C 1.769531 -4.421875 2.738281 -4.753906 4.09375 -4.921875 L 6.171875 -5.171875 C 6.378906 -5.191406 6.539062 -5.257812 6.65625 -5.375 C 6.78125 -5.488281 6.84375 -5.632812 6.84375 -5.8125 C 6.84375 -6.332031 6.613281 -6.75 6.15625 -7.0625 C 5.707031 -7.375 5.117188 -7.53125 4.390625 -7.53125 C 3.878906 -7.53125 3.414062 -7.429688 3 -7.234375 C 2.59375 -7.046875 2.269531 -6.796875 2.03125 -6.484375 C 1.800781 -6.179688 1.675781 -5.863281 1.65625 -5.53125 L 0.515625 -6.015625 C 0.566406 -6.484375 0.765625 -6.914062 1.109375 -7.3125 C 1.460938 -7.71875 1.925781 -8.046875 2.5 -8.296875 C 3.082031 -8.546875 3.734375 -8.671875 4.453125 -8.671875 C 5.160156 -8.671875 5.785156 -8.546875 6.328125 -8.296875 C 6.878906 -8.054688 7.304688 -7.707031 7.609375 -7.25 C 7.921875 -6.789062 8.078125 -6.25 8.078125 -5.625 L 8.078125 -1.390625 C 8.078125 -1.222656 8.117188 -1.085938 8.203125 -0.984375 C 8.285156 -0.878906 8.394531 -0.828125 8.53125 -0.828125 C 8.78125 -0.828125 9.003906 -0.992188 9.203125 -1.328125 L 9.890625 -0.53125 C 9.710938 -0.28125 9.460938 -0.078125 9.140625 0.078125 C 8.828125 0.242188 8.515625 0.328125 8.203125 0.328125 C 7.796875 0.328125 7.46875 0.195312 7.21875 -0.0625 C 6.976562 -0.320312 6.847656 -0.640625 6.828125 -1.015625 L 6.8125 -1.390625 L 6.796875 -1.390625 C 6.492188 -0.859375 6.0625 -0.4375 5.5 -0.125 C 4.945312 0.175781 4.296875 0.328125 3.546875 0.328125 Z M 3.765625 -0.8125 C 4.347656 -0.8125 4.867188 -0.925781 5.328125 -1.15625 C 5.785156 -1.394531 6.144531 -1.722656 6.40625 -2.140625 C 6.675781 -2.554688 6.8125 -3.035156 6.8125 -3.578125 L 6.8125 -4.171875 L 4.234375 -3.859375 C 3.234375 -3.734375 2.539062 -3.519531 2.15625 -3.21875 C 1.78125 -2.925781 1.59375 -2.585938 1.59375 -2.203125 C 1.59375 -1.785156 1.796875 -1.445312 2.203125 -1.1875 C 2.609375 -0.9375 3.128906 -0.8125 3.765625 -0.8125 Z M 3.765625 -0.8125 "/></g></g></g><g clip-path="url(#a1f259b259)"><g fill="#ffffff" fill-opacity="1"><g transform="translate(38.262441, 12.671854)"><g><path d="M 6.765625 0.40625 C 5.503906 0.40625 4.410156 0.148438 3.484375 -0.359375 C 2.554688 -0.867188 1.835938 -1.585938 1.328125 -2.515625 C 0.828125 -3.453125 0.578125 -4.550781 0.578125 -5.8125 C 0.578125 -7.09375 0.8125 -8.195312 1.28125 -9.125 C 1.757812 -10.0625 2.429688 -10.785156 3.296875 -11.296875 C 4.171875 -11.804688 5.203125 -12.0625 6.390625 -12.0625 C 7.242188 -12.0625 8.015625 -11.894531 8.703125 -11.5625 C 9.390625 -11.226562 9.96875 -10.753906 10.4375 -10.140625 C 10.914062 -9.535156 11.242188 -8.816406 11.421875 -7.984375 L 10.109375 -7.671875 C 9.941406 -8.648438 9.519531 -9.421875 8.84375 -9.984375 C 8.164062 -10.554688 7.347656 -10.84375 6.390625 -10.84375 C 5.492188 -10.84375 4.710938 -10.640625 4.046875 -10.234375 C 3.378906 -9.828125 2.863281 -9.242188 2.5 -8.484375 C 2.132812 -7.734375 1.953125 -6.84375 1.953125 -5.8125 C 1.960938 -4.800781 2.160156 -3.914062 2.546875 -3.15625 C 2.941406 -2.40625 3.5 -1.828125 4.21875 -1.421875 C 4.945312 -1.015625 5.796875 -0.8125 6.765625 -0.8125 C 7.546875 -0.8125 8.242188 -0.96875 8.859375 -1.28125 C 9.472656 -1.59375 9.976562 -2.035156 10.375 -2.609375 C 10.78125 -3.179688 11.035156 -3.851562 11.140625 -4.625 L 12.46875 -4.296875 C 12.320312 -3.335938 11.988281 -2.503906 11.46875 -1.796875 C 10.957031 -1.097656 10.296875 -0.554688 9.484375 -0.171875 C 8.679688 0.210938 7.773438 0.40625 6.765625 0.40625 Z M 6.765625 0.40625 "/></g></g></g></g><g fill="#ffffff" fill-opacity="1"><g transform="translate(51.673388, 12.671854)"><g><path d="M 3.546875 0.328125 C 2.921875 0.328125 2.363281 0.222656 1.875 0.015625 C 1.394531 -0.191406 1.015625 -0.484375 0.734375 -0.859375 C 0.460938 -1.242188 0.328125 -1.6875 0.328125 -2.1875 C 0.328125 -2.851562 0.613281 -3.429688 1.1875 -3.921875 C 1.769531 -4.421875 2.738281 -4.753906 4.09375 -4.921875 L 6.171875 -5.171875 C 6.378906 -5.191406 6.539062 -5.257812 6.65625 -5.375 C 6.78125 -5.488281 6.84375 -5.632812 6.84375 -5.8125 C 6.84375 -6.332031 6.613281 -6.75 6.15625 -7.0625 C 5.707031 -7.375 5.117188 -7.53125 4.390625 -7.53125 C 3.878906 -7.53125 3.414062 -7.429688 3 -7.234375 C 2.59375 -7.046875 2.269531 -6.796875 2.03125 -6.484375 C 1.800781 -6.179688 1.675781 -5.863281 1.65625 -5.53125 L 0.515625 -6.015625 C 0.566406 -6.484375 0.765625 -6.914062 1.109375 -7.3125 C 1.460938 -7.71875 1.925781 -8.046875 2.5 -8.296875 C 3.082031 -8.546875 3.734375 -8.671875 4.453125 -8.671875 C 5.160156 -8.671875 5.785156 -8.546875 6.328125 -8.296875 C 6.878906 -8.054688 7.304688 -7.707031 7.609375 -7.25 C 7.921875 -6.789062 8.078125 -6.25 8.078125 -5.625 L 8.078125 -1.390625 C 8.078125 -1.222656 8.117188 -1.085938 8.203125 -0.984375 C 8.285156 -0.878906 8.394531 -0.828125 8.53125 -0.828125 C 8.78125 -0.828125 9.003906 -0.992188 9.203125 -1.328125 L 9.890625 -0.53125 C 9.710938 -0.28125 9.460938 -0.078125 9.140625 0.078125 C 8.828125 0.242188 8.515625 0.328125 8.203125 0.328125 C 7.796875 0.328125 7.46875 0.195312 7.21875 -0.0625 C 6.976562 -0.320312 6.847656 -0.640625 6.828125 -1.015625 L 6.8125 -1.390625 L 6.796875 -1.390625 C 6.492188 -0.859375 6.0625 -0.4375 5.5 -0.125 C 4.945312 0.175781 4.296875 0.328125 3.546875 0.328125 Z M 3.765625 -0.8125 C 4.347656 -0.8125 4.867188 -0.925781 5.328125 -1.15625 C 5.785156 -1.394531 6.144531 -1.722656 6.40625 -2.140625 C 6.675781 -2.554688 6.8125 -3.035156 6.8125 -3.578125 L 6.8125 -4.171875 L 4.234375 -3.859375 C 3.234375 -3.734375 2.539062 -3.519531 2.15625 -3.21875 C 1.78125 -2.925781 1.59375 -2.585938 1.59375 -2.203125 C 1.59375 -1.785156 1.796875 -1.445312 2.203125 -1.1875 C 2.609375 -0.9375 3.128906 -0.8125 3.765625 -0.8125 Z M 3.765625 -0.8125 "/></g></g></g><g fill="#ffffff" fill-opacity="1"><g transform="translate(62.173951, 12.671854)"><g><path d="M 4.453125 -8.703125 C 5.160156 -8.703125 5.742188 -8.472656 6.203125 -8.015625 C 6.660156 -7.566406 6.929688 -6.921875 7.015625 -6.078125 L 5.921875 -5.71875 C 5.847656 -6.300781 5.664062 -6.742188 5.375 -7.046875 C 5.082031 -7.359375 4.710938 -7.515625 4.265625 -7.515625 C 3.585938 -7.515625 3.050781 -7.253906 2.65625 -6.734375 C 2.269531 -6.222656 2.078125 -5.507812 2.078125 -4.59375 L 2.078125 0 L 0.828125 0 L 0.828125 -8.34375 L 1.90625 -8.34375 L 2.015625 -7.046875 L 2.03125 -7.046875 C 2.257812 -7.546875 2.585938 -7.945312 3.015625 -8.25 C 3.441406 -8.550781 3.921875 -8.703125 4.453125 -8.703125 Z M 4.453125 -8.703125 "/></g></g></g></g></g></svg>