<svg xmlns="http://www.w3.org/2000/svg" xmlns:xlink="http://www.w3.org/1999/xlink" width="120" zoomAndPan="magnify" viewBox="0 0 90 89.999999" height="120" preserveAspectRatio="xMidYMid meet" version="1.0"><defs><g/><clipPath id="be10fcfd8c"><path d="M 2.878906 0 L 87.121094 0 C 88.710938 0 90 1.289062 90 2.878906 L 90 87.121094 C 90 88.710938 88.710938 90 87.121094 90 L 2.878906 90 C 1.289062 90 0 88.710938 0 87.121094 L 0 2.878906 C 0 1.289062 1.289062 0 2.878906 0 Z M 2.878906 0 " clip-rule="nonzero"/></clipPath><clipPath id="e51da6c1ee"><path d="M 0 0 L 90 0 L 90 90 L 0 90 Z M 0 0 " clip-rule="nonzero"/></clipPath><clipPath id="c40a18931f"><path d="M 2.878906 0 L 87.121094 0 C 88.710938 0 90 1.289062 90 2.878906 L 90 87.121094 C 90 88.710938 88.710938 90 87.121094 90 L 2.878906 90 C 1.289062 90 0 88.710938 0 87.121094 L 0 2.878906 C 0 1.289062 1.289062 0 2.878906 0 Z M 2.878906 0 " clip-rule="nonzero"/></clipPath><clipPath id="a21ce307b7"><rect x="0" width="90" y="0" height="90"/></clipPath><clipPath id="382f0cd80c"><path d="M 19 16.351562 L 70 16.351562 L 70 32 L 19 32 Z M 19 16.351562 " clip-rule="nonzero"/></clipPath><clipPath id="04324f90e4"><path d="M 12 51 L 23 51 L 23 58.351562 L 12 58.351562 Z M 12 51 " clip-rule="nonzero"/></clipPath><clipPath id="4d53cdb281"><path d="M 66 51 L 78 51 L 78 58.351562 L 66 58.351562 Z M 66 51 " clip-rule="nonzero"/></clipPath><clipPath id="e2ca51857d"><path d="M 10.761719 24 L 23 24 L 23 32 L 10.761719 32 Z M 10.761719 24 " clip-rule="nonzero"/></clipPath><clipPath id="12cbe8bf3b"><path d="M 67 24 L 79.011719 24 L 79.011719 32 L 67 32 Z M 67 24 " clip-rule="nonzero"/></clipPath><clipPath id="5791962687"><path d="M 0.320312 1 L 8 1 L 8 14 L 0.320312 14 Z M 0.320312 1 " clip-rule="nonzero"/></clipPath><clipPath id="1ef36443f1"><rect x="0" width="71" y="0" height="18"/></clipPath></defs><g clip-path="url(#be10fcfd8c)"><g transform="matrix(1, 0, 0, 1, 0, -0.00000000000000949)"><g clip-path="url(#a21ce307b7)"><g clip-path="url(#e51da6c1ee)"><g clip-path="url(#c40a18931f)"><rect x="-19.8" width="129.6" fill="#ffffff" height="129.599999" y="-19.8" fill-opacity="1"/></g></g></g></g></g><g clip-path="url(#382f0cd80c)"><path fill="#000000" d="M 68.09375 31.664062 C 67.257812 29.238281 66.171875 26.886719 64.855469 24.683594 C 64.21875 23.617188 63.523438 22.570312 62.78125 21.570312 C 61.761719 20.191406 60.183594 19.28125 58.453125 19.074219 C 53.976562 18.539062 49.421875 18.265625 44.914062 18.265625 L 44.890625 18.265625 C 40.324219 18.265625 35.710938 18.542969 31.171875 19.09375 C 29.480469 19.300781 27.957031 20.164062 26.886719 21.53125 C 26.199219 22.410156 25.550781 23.339844 24.964844 24.289062 C 23.558594 26.574219 22.464844 29.039062 21.710938 31.621094 L 19.878906 31.09375 C 20.679688 28.347656 21.847656 25.726562 23.339844 23.300781 C 23.964844 22.285156 24.652344 21.300781 25.382812 20.367188 C 26.765625 18.601562 28.742188 17.480469 30.941406 17.214844 C 35.554688 16.652344 40.246094 16.371094 44.890625 16.371094 L 44.914062 16.371094 C 49.496094 16.371094 54.128906 16.648438 58.679688 17.191406 C 60.925781 17.460938 62.984375 18.648438 64.316406 20.449219 C 65.09375 21.496094 65.824219 22.597656 66.492188 23.714844 C 67.875 26.03125 69.019531 28.5 69.894531 31.050781 L 68.089844 31.664062 Z M 68.09375 31.664062 " fill-opacity="1" fill-rule="nonzero"/></g><path fill="#000000" d="M 77.769531 49.441406 L 12.027344 49.441406 L 12.039062 38.050781 C 12.195312 37.039062 12.558594 36.085938 13.117188 35.21875 C 13.417969 34.757812 14.328125 33.351562 17.726562 31.605469 C 17.839844 31.546875 17.960938 31.484375 18.082031 31.421875 C 21.390625 29.785156 25.152344 28.921875 28.96875 28.921875 L 60.8125 28.921875 C 64.425781 28.921875 68 29.695312 71.148438 31.164062 C 71.589844 31.371094 71.988281 31.570312 72.335938 31.753906 C 75.144531 33.230469 76.132812 34.378906 76.675781 35.214844 C 77.242188 36.085938 77.605469 37.039062 77.757812 38.054688 L 77.769531 38.191406 Z M 13.933594 47.542969 L 75.863281 47.542969 L 75.863281 38.265625 C 75.742188 37.546875 75.480469 36.867188 75.074219 36.246094 C 74.65625 35.601562 73.863281 34.699219 71.445312 33.429688 C 71.117188 33.257812 70.75 33.074219 70.339844 32.878906 C 67.441406 31.53125 64.148438 30.816406 60.8125 30.816406 L 28.96875 30.816406 C 25.445312 30.816406 21.976562 31.613281 18.929688 33.121094 C 18.816406 33.175781 18.703125 33.234375 18.597656 33.289062 C 16.644531 34.292969 15.339844 35.289062 14.71875 36.246094 C 14.316406 36.867188 14.050781 37.546875 13.933594 38.265625 Z M 13.933594 47.542969 " fill-opacity="1" fill-rule="nonzero"/><path fill="#000000" d="M 61.726562 49.441406 L 28.070312 49.441406 L 28.070312 48.078125 C 28.070312 45.105469 30.5 42.6875 33.488281 42.6875 L 56.304688 42.6875 C 59.292969 42.6875 61.726562 45.105469 61.726562 48.078125 Z M 30.015625 47.542969 L 59.777344 47.542969 C 59.519531 45.867188 58.0625 44.582031 56.304688 44.582031 L 33.488281 44.582031 C 31.734375 44.582031 30.273438 45.867188 30.015625 47.542969 Z M 30.015625 47.542969 " fill-opacity="1" fill-rule="nonzero"/><path fill="#000000" d="M 27.835938 41.949219 L 19.691406 41.949219 C 18.546875 41.949219 17.605469 41.289062 17.390625 40.339844 L 16.78125 37.640625 C 16.652344 37.054688 16.832031 36.457031 17.277344 36.003906 C 17.917969 35.347656 19.007812 35.058594 20.058594 35.261719 C 22.0625 35.648438 23.878906 36.011719 25.515625 36.34375 C 26.730469 36.585938 28.714844 36.988281 29.6875 38.277344 C 29.898438 38.554688 30.050781 38.859375 30.140625 39.175781 L 30.179688 39.304688 L 30.179688 39.960938 C 30.179688 41.078125 29.148438 41.953125 27.835938 41.953125 Z M 18.660156 37.304688 L 19.25 39.925781 C 19.265625 39.941406 19.425781 40.054688 19.691406 40.054688 L 27.835938 40.054688 C 28.078125 40.054688 28.226562 39.964844 28.273438 39.917969 L 28.273438 39.589844 C 28.246094 39.53125 28.210938 39.46875 28.167969 39.410156 C 27.628906 38.699219 26.027344 38.375 25.171875 38.203125 C 23.503906 37.867188 21.699219 37.503906 19.695312 37.117188 C 19.183594 37.015625 18.785156 37.191406 18.660156 37.304688 Z M 18.660156 37.304688 " fill-opacity="1" fill-rule="nonzero"/><path fill="#000000" d="M 70.105469 41.949219 L 61.957031 41.949219 C 60.644531 41.949219 59.617188 41.078125 59.617188 39.960938 L 59.617188 39.300781 L 59.652344 39.175781 C 59.742188 38.855469 59.894531 38.550781 60.105469 38.277344 C 61.082031 36.984375 63.0625 36.585938 64.246094 36.347656 L 64.308594 36.335938 C 65.941406 36.007812 67.746094 35.644531 69.738281 35.257812 C 70.785156 35.058594 71.878906 35.347656 72.519531 36 C 72.964844 36.457031 73.144531 37.054688 73.015625 37.636719 L 72.40625 40.339844 C 72.191406 41.285156 71.246094 41.949219 70.105469 41.949219 Z M 61.519531 39.917969 C 61.570312 39.96875 61.71875 40.054688 61.957031 40.054688 L 70.105469 40.054688 C 70.371094 40.054688 70.527344 39.945312 70.550781 39.902344 L 71.132812 37.308594 C 71.007812 37.195312 70.613281 37.023438 70.097656 37.121094 C 68.109375 37.503906 66.3125 37.867188 64.683594 38.195312 L 64.625 38.207031 C 63.765625 38.378906 62.167969 38.703125 61.625 39.417969 C 61.582031 39.476562 61.546875 39.535156 61.519531 39.59375 Z M 61.519531 39.917969 " fill-opacity="1" fill-rule="nonzero"/><path fill="#000000" d="M 77.769531 53.085938 L 12.027344 53.085938 L 12.027344 47.542969 L 77.769531 47.542969 Z M 13.933594 51.191406 L 75.863281 51.191406 L 75.863281 49.441406 L 13.933594 49.441406 Z M 13.933594 51.191406 " fill-opacity="1" fill-rule="nonzero"/><g clip-path="url(#04324f90e4)"><path fill="#000000" d="M 19.695312 58.347656 L 15.21875 58.347656 C 13.457031 58.347656 12.027344 56.921875 12.027344 55.171875 L 12.027344 51.1875 L 22.886719 51.1875 L 22.886719 55.171875 C 22.886719 56.921875 21.453125 58.347656 19.695312 58.347656 Z M 13.933594 53.085938 L 13.933594 55.171875 C 13.933594 55.878906 14.511719 56.453125 15.21875 56.453125 L 19.695312 56.453125 C 20.402344 56.453125 20.980469 55.878906 20.980469 55.171875 L 20.980469 53.085938 Z M 13.933594 53.085938 " fill-opacity="1" fill-rule="nonzero"/></g><g clip-path="url(#4d53cdb281)"><path fill="#000000" d="M 74.574219 58.347656 L 70.101562 58.347656 C 68.339844 58.347656 66.90625 56.921875 66.90625 55.171875 L 66.90625 51.1875 L 77.769531 51.1875 L 77.769531 55.171875 C 77.769531 56.921875 76.335938 58.347656 74.574219 58.347656 Z M 68.8125 53.085938 L 68.8125 55.171875 C 68.8125 55.878906 69.390625 56.453125 70.101562 56.453125 L 74.574219 56.453125 C 75.285156 56.453125 75.863281 55.878906 75.863281 55.171875 L 75.863281 53.085938 Z M 68.8125 53.085938 " fill-opacity="1" fill-rule="nonzero"/></g><g clip-path="url(#e2ca51857d)"><path fill="#000000" d="M 22.039062 31.625 L 14.507812 31.625 C 12.449219 31.625 10.769531 29.957031 10.769531 27.90625 C 10.769531 26.234375 12.136719 24.875 13.820312 24.875 L 17.730469 24.875 C 20.105469 24.875 22.039062 26.792969 22.039062 29.15625 L 22.039062 31.628906 Z M 13.820312 26.769531 C 13.1875 26.769531 12.675781 27.277344 12.675781 27.90625 C 12.675781 28.914062 13.5 29.730469 14.507812 29.730469 L 20.128906 29.730469 L 20.128906 29.15625 C 20.128906 27.839844 19.054688 26.769531 17.730469 26.769531 Z M 13.820312 26.769531 " fill-opacity="1" fill-rule="nonzero"/></g><g clip-path="url(#12cbe8bf3b)"><path fill="#000000" d="M 75.285156 31.625 L 67.757812 31.625 L 67.757812 29.15625 C 67.757812 26.792969 69.6875 24.871094 72.0625 24.871094 L 75.976562 24.871094 C 77.660156 24.871094 79.027344 26.234375 79.027344 27.90625 C 79.027344 29.957031 77.347656 31.625 75.289062 31.625 Z M 69.664062 29.730469 L 75.285156 29.730469 C 76.296875 29.730469 77.117188 28.910156 77.117188 27.90625 C 77.117188 27.277344 76.605469 26.769531 75.972656 26.769531 L 72.058594 26.769531 C 70.738281 26.769531 69.660156 27.839844 69.660156 29.15625 L 69.660156 29.730469 Z M 69.664062 29.730469 " fill-opacity="1" fill-rule="nonzero"/></g><g transform="matrix(1, 0, 0, 1, 10, 65)"><g clip-path="url(#1ef36443f1)"><g clip-path="url(#5791962687)"><g fill="#000000" fill-opacity="1"><g transform="translate(0.476953, 13.171854)"><g><path d="M 4.015625 0.34375 C 3.046875 0.34375 2.238281 0.0820312 1.59375 -0.4375 C 0.945312 -0.957031 0.523438 -1.6875 0.328125 -2.625 L 1.53125 -3.140625 C 1.632812 -2.421875 1.894531 -1.859375 2.3125 -1.453125 C 2.738281 -1.054688 3.289062 -0.859375 3.96875 -0.859375 C 4.632812 -0.859375 5.148438 -1.078125 5.515625 -1.515625 C 5.878906 -1.953125 6.0625 -2.570312 6.0625 -3.375 L 6.0625 -11.65625 L 7.453125 -11.65625 L 7.453125 -3.234375 C 7.453125 -2.097656 7.148438 -1.21875 6.546875 -0.59375 C 5.953125 0.03125 5.109375 0.34375 4.015625 0.34375 Z M 4.015625 0.34375 "/></g></g></g></g><g fill="#000000" fill-opacity="1"><g transform="translate(9.373494, 13.171854)"><g><path d="M 3.546875 0.328125 C 2.921875 0.328125 2.363281 0.222656 1.875 0.015625 C 1.394531 -0.191406 1.015625 -0.484375 0.734375 -0.859375 C 0.460938 -1.242188 0.328125 -1.6875 0.328125 -2.1875 C 0.328125 -2.851562 0.613281 -3.429688 1.1875 -3.921875 C 1.769531 -4.421875 2.738281 -4.753906 4.09375 -4.921875 L 6.171875 -5.171875 C 6.378906 -5.191406 6.539062 -5.257812 6.65625 -5.375 C 6.78125 -5.488281 6.84375 -5.632812 6.84375 -5.8125 C 6.84375 -6.332031 6.613281 -6.75 6.15625 -7.0625 C 5.707031 -7.375 5.117188 -7.53125 4.390625 -7.53125 C 3.878906 -7.53125 3.414062 -7.429688 3 -7.234375 C 2.59375 -7.046875 2.269531 -6.796875 2.03125 -6.484375 C 1.800781 -6.179688 1.675781 -5.863281 1.65625 -5.53125 L 0.515625 -6.015625 C 0.566406 -6.484375 0.765625 -6.914062 1.109375 -7.3125 C 1.460938 -7.71875 1.925781 -8.046875 2.5 -8.296875 C 3.082031 -8.546875 3.734375 -8.671875 4.453125 -8.671875 C 5.160156 -8.671875 5.785156 -8.546875 6.328125 -8.296875 C 6.878906 -8.054688 7.304688 -7.707031 7.609375 -7.25 C 7.921875 -6.789062 8.078125 -6.25 8.078125 -5.625 L 8.078125 -1.390625 C 8.078125 -1.222656 8.117188 -1.085938 8.203125 -0.984375 C 8.285156 -0.878906 8.394531 -0.828125 8.53125 -0.828125 C 8.78125 -0.828125 9.003906 -0.992188 9.203125 -1.328125 L 9.890625 -0.53125 C 9.710938 -0.28125 9.460938 -0.078125 9.140625 0.078125 C 8.828125 0.242188 8.515625 0.328125 8.203125 0.328125 C 7.796875 0.328125 7.46875 0.195312 7.21875 -0.0625 C 6.976562 -0.320312 6.847656 -0.640625 6.828125 -1.015625 L 6.8125 -1.390625 L 6.796875 -1.390625 C 6.492188 -0.859375 6.0625 -0.4375 5.5 -0.125 C 4.945312 0.175781 4.296875 0.328125 3.546875 0.328125 Z M 3.765625 -0.8125 C 4.347656 -0.8125 4.867188 -0.925781 5.328125 -1.15625 C 5.785156 -1.394531 6.144531 -1.722656 6.40625 -2.140625 C 6.675781 -2.554688 6.8125 -3.035156 6.8125 -3.578125 L 6.8125 -4.171875 L 4.234375 -3.859375 C 3.234375 -3.734375 2.539062 -3.519531 2.15625 -3.21875 C 1.78125 -2.925781 1.59375 -2.585938 1.59375 -2.203125 C 1.59375 -1.785156 1.796875 -1.445312 2.203125 -1.1875 C 2.609375 -0.9375 3.128906 -0.8125 3.765625 -0.8125 Z M 3.765625 -0.8125 "/></g></g></g><g fill="#000000" fill-opacity="1"><g transform="translate(19.874054, 13.171854)"><g><path d="M 4.453125 -8.703125 C 5.160156 -8.703125 5.742188 -8.472656 6.203125 -8.015625 C 6.660156 -7.566406 6.929688 -6.921875 7.015625 -6.078125 L 5.921875 -5.71875 C 5.847656 -6.300781 5.664062 -6.742188 5.375 -7.046875 C 5.082031 -7.359375 4.710938 -7.515625 4.265625 -7.515625 C 3.585938 -7.515625 3.050781 -7.253906 2.65625 -6.734375 C 2.269531 -6.222656 2.078125 -5.507812 2.078125 -4.59375 L 2.078125 0 L 0.828125 0 L 0.828125 -8.34375 L 1.90625 -8.34375 L 2.015625 -7.046875 L 2.03125 -7.046875 C 2.257812 -7.546875 2.585938 -7.945312 3.015625 -8.25 C 3.441406 -8.550781 3.921875 -8.703125 4.453125 -8.703125 Z M 4.453125 -8.703125 "/></g></g></g><g fill="#000000" fill-opacity="1"><g transform="translate(27.761881, 13.171854)"><g><path d="M 3.546875 0.328125 C 2.921875 0.328125 2.363281 0.222656 1.875 0.015625 C 1.394531 -0.191406 1.015625 -0.484375 0.734375 -0.859375 C 0.460938 -1.242188 0.328125 -1.6875 0.328125 -2.1875 C 0.328125 -2.851562 0.613281 -3.429688 1.1875 -3.921875 C 1.769531 -4.421875 2.738281 -4.753906 4.09375 -4.921875 L 6.171875 -5.171875 C 6.378906 -5.191406 6.539062 -5.257812 6.65625 -5.375 C 6.78125 -5.488281 6.84375 -5.632812 6.84375 -5.8125 C 6.84375 -6.332031 6.613281 -6.75 6.15625 -7.0625 C 5.707031 -7.375 5.117188 -7.53125 4.390625 -7.53125 C 3.878906 -7.53125 3.414062 -7.429688 3 -7.234375 C 2.59375 -7.046875 2.269531 -6.796875 2.03125 -6.484375 C 1.800781 -6.179688 1.675781 -5.863281 1.65625 -5.53125 L 0.515625 -6.015625 C 0.566406 -6.484375 0.765625 -6.914062 1.109375 -7.3125 C 1.460938 -7.71875 1.925781 -8.046875 2.5 -8.296875 C 3.082031 -8.546875 3.734375 -8.671875 4.453125 -8.671875 C 5.160156 -8.671875 5.785156 -8.546875 6.328125 -8.296875 C 6.878906 -8.054688 7.304688 -7.707031 7.609375 -7.25 C 7.921875 -6.789062 8.078125 -6.25 8.078125 -5.625 L 8.078125 -1.390625 C 8.078125 -1.222656 8.117188 -1.085938 8.203125 -0.984375 C 8.285156 -0.878906 8.394531 -0.828125 8.53125 -0.828125 C 8.78125 -0.828125 9.003906 -0.992188 9.203125 -1.328125 L 9.890625 -0.53125 C 9.710938 -0.28125 9.460938 -0.078125 9.140625 0.078125 C 8.828125 0.242188 8.515625 0.328125 8.203125 0.328125 C 7.796875 0.328125 7.46875 0.195312 7.21875 -0.0625 C 6.976562 -0.320312 6.847656 -0.640625 6.828125 -1.015625 L 6.8125 -1.390625 L 6.796875 -1.390625 C 6.492188 -0.859375 6.0625 -0.4375 5.5 -0.125 C 4.945312 0.175781 4.296875 0.328125 3.546875 0.328125 Z M 3.765625 -0.8125 C 4.347656 -0.8125 4.867188 -0.925781 5.328125 -1.15625 C 5.785156 -1.394531 6.144531 -1.722656 6.40625 -2.140625 C 6.675781 -2.554688 6.8125 -3.035156 6.8125 -3.578125 L 6.8125 -4.171875 L 4.234375 -3.859375 C 3.234375 -3.734375 2.539062 -3.519531 2.15625 -3.21875 C 1.78125 -2.925781 1.59375 -2.585938 1.59375 -2.203125 C 1.59375 -1.785156 1.796875 -1.445312 2.203125 -1.1875 C 2.609375 -0.9375 3.128906 -0.8125 3.765625 -0.8125 Z M 3.765625 -0.8125 "/></g></g></g><g fill="#000000" fill-opacity="1"><g transform="translate(38.262441, 13.171854)"><g><path d="M 6.765625 0.40625 C 5.503906 0.40625 4.410156 0.148438 3.484375 -0.359375 C 2.554688 -0.867188 1.835938 -1.585938 1.328125 -2.515625 C 0.828125 -3.453125 0.578125 -4.550781 0.578125 -5.8125 C 0.578125 -7.09375 0.8125 -8.195312 1.28125 -9.125 C 1.757812 -10.0625 2.429688 -10.785156 3.296875 -11.296875 C 4.171875 -11.804688 5.203125 -12.0625 6.390625 -12.0625 C 7.242188 -12.0625 8.015625 -11.894531 8.703125 -11.5625 C 9.390625 -11.226562 9.96875 -10.753906 10.4375 -10.140625 C 10.914062 -9.535156 11.242188 -8.816406 11.421875 -7.984375 L 10.109375 -7.671875 C 9.941406 -8.648438 9.519531 -9.421875 8.84375 -9.984375 C 8.164062 -10.554688 7.347656 -10.84375 6.390625 -10.84375 C 5.492188 -10.84375 4.710938 -10.640625 4.046875 -10.234375 C 3.378906 -9.828125 2.863281 -9.242188 2.5 -8.484375 C 2.132812 -7.734375 1.953125 -6.84375 1.953125 -5.8125 C 1.960938 -4.800781 2.160156 -3.914062 2.546875 -3.15625 C 2.941406 -2.40625 3.5 -1.828125 4.21875 -1.421875 C 4.945312 -1.015625 5.796875 -0.8125 6.765625 -0.8125 C 7.546875 -0.8125 8.242188 -0.96875 8.859375 -1.28125 C 9.472656 -1.59375 9.976562 -2.035156 10.375 -2.609375 C 10.78125 -3.179688 11.035156 -3.851562 11.140625 -4.625 L 12.46875 -4.296875 C 12.320312 -3.335938 11.988281 -2.503906 11.46875 -1.796875 C 10.957031 -1.097656 10.296875 -0.554688 9.484375 -0.171875 C 8.679688 0.210938 7.773438 0.40625 6.765625 0.40625 Z M 6.765625 0.40625 "/></g></g></g><g fill="#000000" fill-opacity="1"><g transform="translate(51.673388, 13.171854)"><g><path d="M 3.546875 0.328125 C 2.921875 0.328125 2.363281 0.222656 1.875 0.015625 C 1.394531 -0.191406 1.015625 -0.484375 0.734375 -0.859375 C 0.460938 -1.242188 0.328125 -1.6875 0.328125 -2.1875 C 0.328125 -2.851562 0.613281 -3.429688 1.1875 -3.921875 C 1.769531 -4.421875 2.738281 -4.753906 4.09375 -4.921875 L 6.171875 -5.171875 C 6.378906 -5.191406 6.539062 -5.257812 6.65625 -5.375 C 6.78125 -5.488281 6.84375 -5.632812 6.84375 -5.8125 C 6.84375 -6.332031 6.613281 -6.75 6.15625 -7.0625 C 5.707031 -7.375 5.117188 -7.53125 4.390625 -7.53125 C 3.878906 -7.53125 3.414062 -7.429688 3 -7.234375 C 2.59375 -7.046875 2.269531 -6.796875 2.03125 -6.484375 C 1.800781 -6.179688 1.675781 -5.863281 1.65625 -5.53125 L 0.515625 -6.015625 C 0.566406 -6.484375 0.765625 -6.914062 1.109375 -7.3125 C 1.460938 -7.71875 1.925781 -8.046875 2.5 -8.296875 C 3.082031 -8.546875 3.734375 -8.671875 4.453125 -8.671875 C 5.160156 -8.671875 5.785156 -8.546875 6.328125 -8.296875 C 6.878906 -8.054688 7.304688 -7.707031 7.609375 -7.25 C 7.921875 -6.789062 8.078125 -6.25 8.078125 -5.625 L 8.078125 -1.390625 C 8.078125 -1.222656 8.117188 -1.085938 8.203125 -0.984375 C 8.285156 -0.878906 8.394531 -0.828125 8.53125 -0.828125 C 8.78125 -0.828125 9.003906 -0.992188 9.203125 -1.328125 L 9.890625 -0.53125 C 9.710938 -0.28125 9.460938 -0.078125 9.140625 0.078125 C 8.828125 0.242188 8.515625 0.328125 8.203125 0.328125 C 7.796875 0.328125 7.46875 0.195312 7.21875 -0.0625 C 6.976562 -0.320312 6.847656 -0.640625 6.828125 -1.015625 L 6.8125 -1.390625 L 6.796875 -1.390625 C 6.492188 -0.859375 6.0625 -0.4375 5.5 -0.125 C 4.945312 0.175781 4.296875 0.328125 3.546875 0.328125 Z M 3.765625 -0.8125 C 4.347656 -0.8125 4.867188 -0.925781 5.328125 -1.15625 C 5.785156 -1.394531 6.144531 -1.722656 6.40625 -2.140625 C 6.675781 -2.554688 6.8125 -3.035156 6.8125 -3.578125 L 6.8125 -4.171875 L 4.234375 -3.859375 C 3.234375 -3.734375 2.539062 -3.519531 2.15625 -3.21875 C 1.78125 -2.925781 1.59375 -2.585938 1.59375 -2.203125 C 1.59375 -1.785156 1.796875 -1.445312 2.203125 -1.1875 C 2.609375 -0.9375 3.128906 -0.8125 3.765625 -0.8125 Z M 3.765625 -0.8125 "/></g></g></g><g fill="#000000" fill-opacity="1"><g transform="translate(62.173951, 13.171854)"><g><path d="M 4.453125 -8.703125 C 5.160156 -8.703125 5.742188 -8.472656 6.203125 -8.015625 C 6.660156 -7.566406 6.929688 -6.921875 7.015625 -6.078125 L 5.921875 -5.71875 C 5.847656 -6.300781 5.664062 -6.742188 5.375 -7.046875 C 5.082031 -7.359375 4.710938 -7.515625 4.265625 -7.515625 C 3.585938 -7.515625 3.050781 -7.253906 2.65625 -6.734375 C 2.269531 -6.222656 2.078125 -5.507812 2.078125 -4.59375 L 2.078125 0 L 0.828125 0 L 0.828125 -8.34375 L 1.90625 -8.34375 L 2.015625 -7.046875 L 2.03125 -7.046875 C 2.257812 -7.546875 2.585938 -7.945312 3.015625 -8.25 C 3.441406 -8.550781 3.921875 -8.703125 4.453125 -8.703125 Z M 4.453125 -8.703125 "/></g></g></g></g></g></svg>