<svg xmlns="http://www.w3.org/2000/svg" xmlns:xlink="http://www.w3.org/1999/xlink" width="120" zoomAndPan="magnify" viewBox="0 0 90 89.999999" height="120" preserveAspectRatio="xMidYMid meet" version="1.0"><defs><g/><clipPath id="fb1386ff48"><path d="M 2.878906 0 L 87.121094 0 C 88.710938 0 90 1.289062 90 2.878906 L 90 87.121094 C 90 88.710938 88.710938 90 87.121094 90 L 2.878906 90 C 1.289062 90 0 88.710938 0 87.121094 L 0 2.878906 C 0 1.289062 1.289062 0 2.878906 0 Z M 2.878906 0 " clip-rule="nonzero"/></clipPath><clipPath id="5359014a99"><path d="M 0 0 L 90 0 L 90 90 L 0 90 Z M 0 0 " clip-rule="nonzero"/></clipPath><clipPath id="b5570d9042"><path d="M 2.878906 0 L 87.121094 0 C 88.710938 0 90 1.289062 90 2.878906 L 90 87.121094 C 90 88.710938 88.710938 90 87.121094 90 L 2.878906 90 C 1.289062 90 0 88.710938 0 87.121094 L 0 2.878906 C 0 1.289062 1.289062 0 2.878906 0 Z M 2.878906 0 " clip-rule="nonzero"/></clipPath><clipPath id="59871ec568"><rect x="0" width="90" y="0" height="90"/></clipPath><clipPath id="aa0a81e549"><path d="M 10.761719 10.277344 L 79.007812 10.277344 L 79.007812 60.503906 L 10.761719 60.503906 Z M 10.761719 10.277344 " clip-rule="nonzero"/></clipPath><clipPath id="dd1a836387"><path d="M 0.320312 1 L 8 1 L 8 14 L 0.320312 14 Z M 0.320312 1 " clip-rule="nonzero"/></clipPath><clipPath id="7b4d97c0de"><path d="M 38 0.441406 L 51 0.441406 L 51 14 L 38 14 Z M 38 0.441406 " clip-rule="nonzero"/></clipPath><clipPath id="a94112d7e5"><rect x="0" width="71" y="0" height="17"/></clipPath></defs><rect x="-9" width="108" fill="#ffffff" y="-9" height="107.999999" fill-opacity="1"/><rect x="-9" width="108" fill="#ffffff" y="-9" height="107.999999" fill-opacity="1"/><g clip-path="url(#fb1386ff48)"><g transform="matrix(1, 0, 0, 1, 0, -0.00000000000000949)"><g clip-path="url(#59871ec568)"><g clip-path="url(#5359014a99)"><g clip-path="url(#b5570d9042)"><rect x="-19.8" width="129.6" fill="#ffffff" height="129.599999" y="-19.8" fill-opacity="1"/></g></g></g></g></g><g clip-path="url(#aa0a81e549)"><path fill="#000000" d="M 75.523438 37.339844 C 74.269531 39.285156 69.167969 41.277344 68.378906 41.578125 C 68.328125 41.597656 68.277344 41.621094 68.226562 41.644531 C 68.078125 41.714844 67.59375 41.84375 66.886719 41.089844 C 66.261719 40.425781 65.1875 38.746094 64.640625 37.863281 C 64.464844 37.578125 64.589844 37.199219 64.90625 37.082031 L 74.429688 33.460938 C 74.628906 33.382812 74.859375 33.4375 75 33.601562 C 75.523438 34.1875 76.582031 35.695312 75.523438 37.339844 Z M 73.023438 51.632812 C 72.363281 51.820312 71.421875 51.949219 70.101562 51.871094 C 69.632812 51.839844 69.1875 51.664062 68.824219 51.363281 L 65.84375 48.886719 C 65.398438 48.519531 65.476562 47.8125 65.992188 47.550781 C 67.117188 46.984375 69.085938 46.253906 71.527344 46.445312 C 72.5625 46.527344 73.460938 47.1875 73.839844 48.152344 C 74.003906 48.566406 74.15625 49.066406 74.257812 49.652344 C 74.414062 50.53125 73.882812 51.386719 73.023438 51.632812 Z M 64.121094 52.042969 L 25.648438 52.042969 C 25.265625 52.042969 25.066406 51.804688 25.324219 51.65625 L 27.058594 50.664062 C 29.027344 49.652344 31.304688 49.5625 32.210938 49.570312 C 33.21875 49.582031 34.230469 49.585938 35.238281 49.585938 L 54.53125 49.585938 C 55.539062 49.585938 56.550781 49.582031 57.558594 49.570312 C 58.460938 49.5625 60.742188 49.652344 62.710938 50.664062 L 64.445312 51.65625 C 64.703125 51.804688 64.503906 52.042969 64.121094 52.042969 Z M 25.128906 37.863281 C 24.582031 38.746094 23.507812 40.425781 22.882812 41.089844 C 22.171875 41.84375 21.6875 41.714844 21.542969 41.644531 C 21.492188 41.621094 21.441406 41.597656 21.390625 41.578125 C 20.601562 41.277344 15.5 39.285156 14.246094 37.339844 C 13.183594 35.695312 14.246094 34.1875 14.765625 33.601562 C 14.910156 33.4375 15.140625 33.382812 15.339844 33.460938 L 24.863281 37.082031 C 25.175781 37.199219 25.304688 37.578125 25.128906 37.863281 Z M 23.925781 48.886719 L 20.941406 51.363281 C 20.582031 51.664062 20.136719 51.839844 19.667969 51.871094 C 18.347656 51.949219 17.40625 51.820312 16.746094 51.632812 C 15.886719 51.386719 15.355469 50.53125 15.511719 49.652344 C 15.613281 49.066406 15.765625 48.566406 15.929688 48.152344 C 16.308594 47.1875 17.207031 46.527344 18.242188 46.445312 C 20.683594 46.253906 22.652344 46.984375 23.777344 47.550781 C 24.292969 47.8125 24.371094 48.519531 23.925781 48.886719 Z M 62.34375 43.414062 C 61.585938 44.089844 60.347656 44.816406 58.394531 45.144531 C 58.394531 45.144531 53.375 46.039062 44.882812 46.039062 C 36.394531 46.039062 31.375 45.144531 31.375 45.144531 C 29.421875 44.816406 28.183594 44.089844 27.421875 43.414062 C 26.679688 42.753906 26.519531 41.652344 27.039062 40.804688 L 27.453125 40.132812 C 28.230469 38.871094 29.515625 38.003906 30.976562 37.769531 C 34.113281 37.261719 39.066406 37.222656 42.136719 37.257812 C 43.945312 37.28125 45.757812 37.28125 47.570312 37.257812 C 50.636719 37.222656 55.632812 37.257812 58.792969 37.769531 C 60.253906 38.003906 61.539062 38.871094 62.3125 40.132812 L 62.730469 40.804688 C 63.25 41.652344 63.089844 42.753906 62.34375 43.414062 Z M 22.066406 23.003906 C 22.390625 21.980469 23.464844 19.335938 26.792969 14.675781 C 27.480469 13.710938 28.5625 13.109375 29.742188 13.03125 C 32.792969 12.824219 39.132812 12.453125 44.882812 12.453125 C 50.636719 12.453125 56.976562 12.824219 60.027344 13.03125 C 61.207031 13.109375 62.285156 13.710938 62.972656 14.675781 C 66.304688 19.335938 67.375 21.980469 67.703125 23.003906 C 67.78125 23.246094 67.597656 23.496094 67.339844 23.492188 L 44.882812 23.148438 L 22.429688 23.492188 C 22.171875 23.496094 21.988281 23.246094 22.066406 23.003906 Z M 79.003906 52.738281 L 78.726562 36.546875 C 78.550781 31.785156 71.953125 25.695312 71.953125 25.695312 C 72.625 25.332031 73.367188 25.121094 74.132812 25.085938 C 75.214844 25.039062 76.746094 24.664062 76.378906 22.855469 C 75.96875 20.859375 72.921875 20.386719 71.300781 20.273438 C 70.792969 20.238281 70.390625 20.699219 70.492188 21.199219 L 71.058594 23.949219 C 71.058594 23.949219 71.058594 23.953125 71.0625 23.953125 C 71.101562 24.160156 70.820312 24.261719 70.710938 24.082031 L 70.207031 23.234375 C 66.21875 16.394531 64.480469 13.96875 63.015625 12.714844 C 62.351562 12.144531 61.558594 11.75 60.707031 11.5625 C 54.382812 10.15625 44.882812 10.28125 44.882812 10.28125 C 44.882812 10.28125 35.386719 10.15625 29.0625 11.5625 C 28.210938 11.75 27.414062 12.144531 26.753906 12.714844 C 25.289062 13.96875 23.550781 16.394531 19.5625 23.234375 L 19.058594 24.082031 C 18.949219 24.261719 18.667969 24.160156 18.707031 23.953125 C 18.707031 23.953125 18.707031 23.949219 18.710938 23.949219 L 19.273438 21.199219 C 19.378906 20.699219 18.976562 20.238281 18.46875 20.273438 C 16.847656 20.386719 13.796875 20.859375 13.390625 22.855469 C 13.023438 24.664062 14.554688 25.039062 15.636719 25.085938 C 16.398438 25.121094 17.144531 25.332031 17.816406 25.695312 C 17.816406 25.695312 11.21875 31.785156 11.039062 36.546875 L 10.761719 52.738281 C 10.75 53.410156 11.019531 54.054688 11.492188 54.515625 L 11.492188 56.402344 C 11.492188 58.660156 13.335938 60.503906 15.589844 60.503906 L 23.109375 60.503906 C 24.636719 60.503906 25.886719 59.253906 25.886719 57.722656 L 25.886719 56.550781 L 63.882812 56.550781 L 63.882812 57.722656 C 63.882812 59.253906 65.132812 60.503906 66.660156 60.503906 L 74.179688 60.503906 C 76.433594 60.503906 78.277344 58.660156 78.277344 56.402344 L 78.277344 54.515625 C 78.75 54.054688 79.015625 53.410156 79.003906 52.738281 " fill-opacity="1" fill-rule="nonzero"/></g><g transform="matrix(1, 0, 0, 1, 10, 67)"><g clip-path="url(#a94112d7e5)"><g clip-path="url(#dd1a836387)"><g fill="#000000" fill-opacity="1"><g transform="translate(0.476953, 12.671854)"><g><path d="M 4.015625 0.34375 C 3.046875 0.34375 2.238281 0.0820312 1.59375 -0.4375 C 0.945312 -0.957031 0.523438 -1.6875 0.328125 -2.625 L 1.53125 -3.140625 C 1.632812 -2.421875 1.894531 -1.859375 2.3125 -1.453125 C 2.738281 -1.054688 3.289062 -0.859375 3.96875 -0.859375 C 4.632812 -0.859375 5.148438 -1.078125 5.515625 -1.515625 C 5.878906 -1.953125 6.0625 -2.570312 6.0625 -3.375 L 6.0625 -11.65625 L 7.453125 -11.65625 L 7.453125 -3.234375 C 7.453125 -2.097656 7.148438 -1.21875 6.546875 -0.59375 C 5.953125 0.03125 5.109375 0.34375 4.015625 0.34375 Z M 4.015625 0.34375 "/></g></g></g></g><g fill="#000000" fill-opacity="1"><g transform="translate(9.373494, 12.671854)"><g><path d="M 3.546875 0.328125 C 2.921875 0.328125 2.363281 0.222656 1.875 0.015625 C 1.394531 -0.191406 1.015625 -0.484375 0.734375 -0.859375 C 0.460938 -1.242188 0.328125 -1.6875 0.328125 -2.1875 C 0.328125 -2.851562 0.613281 -3.429688 1.1875 -3.921875 C 1.769531 -4.421875 2.738281 -4.753906 4.09375 -4.921875 L 6.171875 -5.171875 C 6.378906 -5.191406 6.539062 -5.257812 6.65625 -5.375 C 6.78125 -5.488281 6.84375 -5.632812 6.84375 -5.8125 C 6.84375 -6.332031 6.613281 -6.75 6.15625 -7.0625 C 5.707031 -7.375 5.117188 -7.53125 4.390625 -7.53125 C 3.878906 -7.53125 3.414062 -7.429688 3 -7.234375 C 2.59375 -7.046875 2.269531 -6.796875 2.03125 -6.484375 C 1.800781 -6.179688 1.675781 -5.863281 1.65625 -5.53125 L 0.515625 -6.015625 C 0.566406 -6.484375 0.765625 -6.914062 1.109375 -7.3125 C 1.460938 -7.71875 1.925781 -8.046875 2.5 -8.296875 C 3.082031 -8.546875 3.734375 -8.671875 4.453125 -8.671875 C 5.160156 -8.671875 5.785156 -8.546875 6.328125 -8.296875 C 6.878906 -8.054688 7.304688 -7.707031 7.609375 -7.25 C 7.921875 -6.789062 8.078125 -6.25 8.078125 -5.625 L 8.078125 -1.390625 C 8.078125 -1.222656 8.117188 -1.085938 8.203125 -0.984375 C 8.285156 -0.878906 8.394531 -0.828125 8.53125 -0.828125 C 8.78125 -0.828125 9.003906 -0.992188 9.203125 -1.328125 L 9.890625 -0.53125 C 9.710938 -0.28125 9.460938 -0.078125 9.140625 0.078125 C 8.828125 0.242188 8.515625 0.328125 8.203125 0.328125 C 7.796875 0.328125 7.46875 0.195312 7.21875 -0.0625 C 6.976562 -0.320312 6.847656 -0.640625 6.828125 -1.015625 L 6.8125 -1.390625 L 6.796875 -1.390625 C 6.492188 -0.859375 6.0625 -0.4375 5.5 -0.125 C 4.945312 0.175781 4.296875 0.328125 3.546875 0.328125 Z M 3.765625 -0.8125 C 4.347656 -0.8125 4.867188 -0.925781 5.328125 -1.15625 C 5.785156 -1.394531 6.144531 -1.722656 6.40625 -2.140625 C 6.675781 -2.554688 6.8125 -3.035156 6.8125 -3.578125 L 6.8125 -4.171875 L 4.234375 -3.859375 C 3.234375 -3.734375 2.539062 -3.519531 2.15625 -3.21875 C 1.78125 -2.925781 1.59375 -2.585938 1.59375 -2.203125 C 1.59375 -1.785156 1.796875 -1.445312 2.203125 -1.1875 C 2.609375 -0.9375 3.128906 -0.8125 3.765625 -0.8125 Z M 3.765625 -0.8125 "/></g></g></g><g fill="#000000" fill-opacity="1"><g transform="translate(19.874054, 12.671854)"><g><path d="M 4.453125 -8.703125 C 5.160156 -8.703125 5.742188 -8.472656 6.203125 -8.015625 C 6.660156 -7.566406 6.929688 -6.921875 7.015625 -6.078125 L 5.921875 -5.71875 C 5.847656 -6.300781 5.664062 -6.742188 5.375 -7.046875 C 5.082031 -7.359375 4.710938 -7.515625 4.265625 -7.515625 C 3.585938 -7.515625 3.050781 -7.253906 2.65625 -6.734375 C 2.269531 -6.222656 2.078125 -5.507812 2.078125 -4.59375 L 2.078125 0 L 0.828125 0 L 0.828125 -8.34375 L 1.90625 -8.34375 L 2.015625 -7.046875 L 2.03125 -7.046875 C 2.257812 -7.546875 2.585938 -7.945312 3.015625 -8.25 C 3.441406 -8.550781 3.921875 -8.703125 4.453125 -8.703125 Z M 4.453125 -8.703125 "/></g></g></g><g fill="#000000" fill-opacity="1"><g transform="translate(27.761881, 12.671854)"><g><path d="M 3.546875 0.328125 C 2.921875 0.328125 2.363281 0.222656 1.875 0.015625 C 1.394531 -0.191406 1.015625 -0.484375 0.734375 -0.859375 C 0.460938 -1.242188 0.328125 -1.6875 0.328125 -2.1875 C 0.328125 -2.851562 0.613281 -3.429688 1.1875 -3.921875 C 1.769531 -4.421875 2.738281 -4.753906 4.09375 -4.921875 L 6.171875 -5.171875 C 6.378906 -5.191406 6.539062 -5.257812 6.65625 -5.375 C 6.78125 -5.488281 6.84375 -5.632812 6.84375 -5.8125 C 6.84375 -6.332031 6.613281 -6.75 6.15625 -7.0625 C 5.707031 -7.375 5.117188 -7.53125 4.390625 -7.53125 C 3.878906 -7.53125 3.414062 -7.429688 3 -7.234375 C 2.59375 -7.046875 2.269531 -6.796875 2.03125 -6.484375 C 1.800781 -6.179688 1.675781 -5.863281 1.65625 -5.53125 L 0.515625 -6.015625 C 0.566406 -6.484375 0.765625 -6.914062 1.109375 -7.3125 C 1.460938 -7.71875 1.925781 -8.046875 2.5 -8.296875 C 3.082031 -8.546875 3.734375 -8.671875 4.453125 -8.671875 C 5.160156 -8.671875 5.785156 -8.546875 6.328125 -8.296875 C 6.878906 -8.054688 7.304688 -7.707031 7.609375 -7.25 C 7.921875 -6.789062 8.078125 -6.25 8.078125 -5.625 L 8.078125 -1.390625 C 8.078125 -1.222656 8.117188 -1.085938 8.203125 -0.984375 C 8.285156 -0.878906 8.394531 -0.828125 8.53125 -0.828125 C 8.78125 -0.828125 9.003906 -0.992188 9.203125 -1.328125 L 9.890625 -0.53125 C 9.710938 -0.28125 9.460938 -0.078125 9.140625 0.078125 C 8.828125 0.242188 8.515625 0.328125 8.203125 0.328125 C 7.796875 0.328125 7.46875 0.195312 7.21875 -0.0625 C 6.976562 -0.320312 6.847656 -0.640625 6.828125 -1.015625 L 6.8125 -1.390625 L 6.796875 -1.390625 C 6.492188 -0.859375 6.0625 -0.4375 5.5 -0.125 C 4.945312 0.175781 4.296875 0.328125 3.546875 0.328125 Z M 3.765625 -0.8125 C 4.347656 -0.8125 4.867188 -0.925781 5.328125 -1.15625 C 5.785156 -1.394531 6.144531 -1.722656 6.40625 -2.140625 C 6.675781 -2.554688 6.8125 -3.035156 6.8125 -3.578125 L 6.8125 -4.171875 L 4.234375 -3.859375 C 3.234375 -3.734375 2.539062 -3.519531 2.15625 -3.21875 C 1.78125 -2.925781 1.59375 -2.585938 1.59375 -2.203125 C 1.59375 -1.785156 1.796875 -1.445312 2.203125 -1.1875 C 2.609375 -0.9375 3.128906 -0.8125 3.765625 -0.8125 Z M 3.765625 -0.8125 "/></g></g></g><g clip-path="url(#7b4d97c0de)"><g fill="#000000" fill-opacity="1"><g transform="translate(38.262441, 12.671854)"><g><path d="M 6.765625 0.40625 C 5.503906 0.40625 4.410156 0.148438 3.484375 -0.359375 C 2.554688 -0.867188 1.835938 -1.585938 1.328125 -2.515625 C 0.828125 -3.453125 0.578125 -4.550781 0.578125 -5.8125 C 0.578125 -7.09375 0.8125 -8.195312 1.28125 -9.125 C 1.757812 -10.0625 2.429688 -10.785156 3.296875 -11.296875 C 4.171875 -11.804688 5.203125 -12.0625 6.390625 -12.0625 C 7.242188 -12.0625 8.015625 -11.894531 8.703125 -11.5625 C 9.390625 -11.226562 9.96875 -10.753906 10.4375 -10.140625 C 10.914062 -9.535156 11.242188 -8.816406 11.421875 -7.984375 L 10.109375 -7.671875 C 9.941406 -8.648438 9.519531 -9.421875 8.84375 -9.984375 C 8.164062 -10.554688 7.347656 -10.84375 6.390625 -10.84375 C 5.492188 -10.84375 4.710938 -10.640625 4.046875 -10.234375 C 3.378906 -9.828125 2.863281 -9.242188 2.5 -8.484375 C 2.132812 -7.734375 1.953125 -6.84375 1.953125 -5.8125 C 1.960938 -4.800781 2.160156 -3.914062 2.546875 -3.15625 C 2.941406 -2.40625 3.5 -1.828125 4.21875 -1.421875 C 4.945312 -1.015625 5.796875 -0.8125 6.765625 -0.8125 C 7.546875 -0.8125 8.242188 -0.96875 8.859375 -1.28125 C 9.472656 -1.59375 9.976562 -2.035156 10.375 -2.609375 C 10.78125 -3.179688 11.035156 -3.851562 11.140625 -4.625 L 12.46875 -4.296875 C 12.320312 -3.335938 11.988281 -2.503906 11.46875 -1.796875 C 10.957031 -1.097656 10.296875 -0.554688 9.484375 -0.171875 C 8.679688 0.210938 7.773438 0.40625 6.765625 0.40625 Z M 6.765625 0.40625 "/></g></g></g></g><g fill="#000000" fill-opacity="1"><g transform="translate(51.673388, 12.671854)"><g><path d="M 3.546875 0.328125 C 2.921875 0.328125 2.363281 0.222656 1.875 0.015625 C 1.394531 -0.191406 1.015625 -0.484375 0.734375 -0.859375 C 0.460938 -1.242188 0.328125 -1.6875 0.328125 -2.1875 C 0.328125 -2.851562 0.613281 -3.429688 1.1875 -3.921875 C 1.769531 -4.421875 2.738281 -4.753906 4.09375 -4.921875 L 6.171875 -5.171875 C 6.378906 -5.191406 6.539062 -5.257812 6.65625 -5.375 C 6.78125 -5.488281 6.84375 -5.632812 6.84375 -5.8125 C 6.84375 -6.332031 6.613281 -6.75 6.15625 -7.0625 C 5.707031 -7.375 5.117188 -7.53125 4.390625 -7.53125 C 3.878906 -7.53125 3.414062 -7.429688 3 -7.234375 C 2.59375 -7.046875 2.269531 -6.796875 2.03125 -6.484375 C 1.800781 -6.179688 1.675781 -5.863281 1.65625 -5.53125 L 0.515625 -6.015625 C 0.566406 -6.484375 0.765625 -6.914062 1.109375 -7.3125 C 1.460938 -7.71875 1.925781 -8.046875 2.5 -8.296875 C 3.082031 -8.546875 3.734375 -8.671875 4.453125 -8.671875 C 5.160156 -8.671875 5.785156 -8.546875 6.328125 -8.296875 C 6.878906 -8.054688 7.304688 -7.707031 7.609375 -7.25 C 7.921875 -6.789062 8.078125 -6.25 8.078125 -5.625 L 8.078125 -1.390625 C 8.078125 -1.222656 8.117188 -1.085938 8.203125 -0.984375 C 8.285156 -0.878906 8.394531 -0.828125 8.53125 -0.828125 C 8.78125 -0.828125 9.003906 -0.992188 9.203125 -1.328125 L 9.890625 -0.53125 C 9.710938 -0.28125 9.460938 -0.078125 9.140625 0.078125 C 8.828125 0.242188 8.515625 0.328125 8.203125 0.328125 C 7.796875 0.328125 7.46875 0.195312 7.21875 -0.0625 C 6.976562 -0.320312 6.847656 -0.640625 6.828125 -1.015625 L 6.8125 -1.390625 L 6.796875 -1.390625 C 6.492188 -0.859375 6.0625 -0.4375 5.5 -0.125 C 4.945312 0.175781 4.296875 0.328125 3.546875 0.328125 Z M 3.765625 -0.8125 C 4.347656 -0.8125 4.867188 -0.925781 5.328125 -1.15625 C 5.785156 -1.394531 6.144531 -1.722656 6.40625 -2.140625 C 6.675781 -2.554688 6.8125 -3.035156 6.8125 -3.578125 L 6.8125 -4.171875 L 4.234375 -3.859375 C 3.234375 -3.734375 2.539062 -3.519531 2.15625 -3.21875 C 1.78125 -2.925781 1.59375 -2.585938 1.59375 -2.203125 C 1.59375 -1.785156 1.796875 -1.445312 2.203125 -1.1875 C 2.609375 -0.9375 3.128906 -0.8125 3.765625 -0.8125 Z M 3.765625 -0.8125 "/></g></g></g><g fill="#000000" fill-opacity="1"><g transform="translate(62.173951, 12.671854)"><g><path d="M 4.453125 -8.703125 C 5.160156 -8.703125 5.742188 -8.472656 6.203125 -8.015625 C 6.660156 -7.566406 6.929688 -6.921875 7.015625 -6.078125 L 5.921875 -5.71875 C 5.847656 -6.300781 5.664062 -6.742188 5.375 -7.046875 C 5.082031 -7.359375 4.710938 -7.515625 4.265625 -7.515625 C 3.585938 -7.515625 3.050781 -7.253906 2.65625 -6.734375 C 2.269531 -6.222656 2.078125 -5.507812 2.078125 -4.59375 L 2.078125 0 L 0.828125 0 L 0.828125 -8.34375 L 1.90625 -8.34375 L 2.015625 -7.046875 L 2.03125 -7.046875 C 2.257812 -7.546875 2.585938 -7.945312 3.015625 -8.25 C 3.441406 -8.550781 3.921875 -8.703125 4.453125 -8.703125 Z M 4.453125 -8.703125 "/></g></g></g></g></g></svg>