<svg xmlns="http://www.w3.org/2000/svg" xmlns:xlink="http://www.w3.org/1999/xlink" width="120" zoomAndPan="magnify" viewBox="0 0 90 89.999999" height="120" preserveAspectRatio="xMidYMid meet" version="1.0"><defs><g/><clipPath id="db60a5fa1b"><path d="M 2.878906 0 L 87.121094 0 C 88.710938 0 90 1.289062 90 2.878906 L 90 87.121094 C 90 88.710938 88.710938 90 87.121094 90 L 2.878906 90 C 1.289062 90 0 88.710938 0 87.121094 L 0 2.878906 C 0 1.289062 1.289062 0 2.878906 0 Z M 2.878906 0 " clip-rule="nonzero"/></clipPath><clipPath id="276105fa96"><path d="M 0 0 L 90 0 L 90 90 L 0 90 Z M 0 0 " clip-rule="nonzero"/></clipPath><clipPath id="287322b9ed"><path d="M 2.878906 0 L 87.121094 0 C 88.710938 0 90 1.289062 90 2.878906 L 90 87.121094 C 90 88.710938 88.710938 90 87.121094 90 L 2.878906 90 C 1.289062 90 0 88.710938 0 87.121094 L 0 2.878906 C 0 1.289062 1.289062 0 2.878906 0 Z M 2.878906 0 " clip-rule="nonzero"/></clipPath><clipPath id="b6e45472b1"><rect x="0" width="90" y="0" height="90"/></clipPath><clipPath id="02de0c2d8b"><path d="M 19 16.351562 L 71 16.351562 L 71 32 L 19 32 Z M 19 16.351562 " clip-rule="nonzero"/></clipPath><clipPath id="875a24e8c7"><path d="M 12 51 L 23 51 L 23 58.351562 L 12 58.351562 Z M 12 51 " clip-rule="nonzero"/></clipPath><clipPath id="4f7e328b5d"><path d="M 67 51 L 78 51 L 78 58.351562 L 67 58.351562 Z M 67 51 " clip-rule="nonzero"/></clipPath><clipPath id="155425847c"><path d="M 10.761719 24 L 23 24 L 23 32 L 10.761719 32 Z M 10.761719 24 " clip-rule="nonzero"/></clipPath><clipPath id="9a1f9329d3"><path d="M 67 24 L 79.011719 24 L 79.011719 32 L 67 32 Z M 67 24 " clip-rule="nonzero"/></clipPath><clipPath id="b51cbe8672"><path d="M 0.320312 1 L 8 1 L 8 14 L 0.320312 14 Z M 0.320312 1 " clip-rule="nonzero"/></clipPath><clipPath id="da8a3d49c7"><rect x="0" width="71" y="0" height="18"/></clipPath></defs><g clip-path="url(#db60a5fa1b)"><g transform="matrix(1, 0, 0, 1, 0, -0.00000000000000949)"><g clip-path="url(#b6e45472b1)"><g clip-path="url(#276105fa96)"><g clip-path="url(#287322b9ed)"><rect x="-19.8" width="129.6" fill="#000000" height="129.599999" y="-19.8" fill-opacity="1"/></g></g></g></g></g><g clip-path="url(#02de0c2d8b)"><path fill="#ffffff" d="M 68.28125 31.796875 C 67.445312 29.347656 66.351562 26.980469 65.03125 24.753906 C 64.394531 23.679688 63.695312 22.625 62.953125 21.617188 C 61.929688 20.226562 60.34375 19.308594 58.609375 19.097656 C 54.117188 18.558594 49.550781 18.28125 45.027344 18.28125 L 45.003906 18.28125 C 40.421875 18.28125 35.789062 18.5625 31.238281 19.117188 C 29.539062 19.324219 28.015625 20.199219 26.941406 21.574219 C 26.25 22.460938 25.601562 23.398438 25.011719 24.359375 C 23.601562 26.660156 22.503906 29.148438 21.746094 31.753906 L 19.910156 31.21875 C 20.714844 28.453125 21.882812 25.804688 23.382812 23.359375 C 24.007812 22.339844 24.699219 21.34375 25.433594 20.402344 C 26.820312 18.621094 28.800781 17.488281 31.007812 17.222656 C 35.632812 16.65625 40.34375 16.371094 45 16.371094 L 45.023438 16.371094 C 49.625 16.371094 54.269531 16.648438 58.835938 17.199219 C 61.089844 17.472656 63.152344 18.667969 64.488281 20.484375 C 65.269531 21.542969 66.003906 22.652344 66.675781 23.78125 C 68.058594 26.117188 69.207031 28.605469 70.085938 31.175781 L 68.277344 31.796875 Z M 68.28125 31.796875 " fill-opacity="1" fill-rule="nonzero"/></g><path fill="#ffffff" d="M 77.988281 49.726562 L 12.03125 49.726562 L 12.042969 38.238281 C 12.199219 37.21875 12.5625 36.253906 13.125 35.382812 C 13.425781 34.914062 14.339844 33.496094 17.746094 31.738281 C 17.863281 31.675781 17.984375 31.617188 18.109375 31.554688 C 21.425781 29.902344 25.199219 29.03125 29.027344 29.03125 L 60.976562 29.03125 C 64.601562 29.03125 68.1875 29.8125 71.347656 31.292969 C 71.789062 31.5 72.1875 31.703125 72.539062 31.886719 C 75.355469 33.378906 76.34375 34.535156 76.890625 35.378906 C 77.457031 36.253906 77.824219 37.21875 77.976562 38.242188 L 77.988281 38.382812 Z M 13.941406 47.8125 L 76.074219 47.8125 L 76.074219 38.457031 C 75.957031 37.730469 75.691406 37.042969 75.285156 36.417969 C 74.863281 35.769531 74.070312 34.859375 71.640625 33.578125 C 71.316406 33.40625 70.945312 33.21875 70.53125 33.023438 C 67.625 31.660156 64.320312 30.941406 60.972656 30.941406 L 29.027344 30.941406 C 25.492188 30.941406 22.011719 31.746094 18.957031 33.265625 C 18.839844 33.324219 18.730469 33.378906 18.625 33.433594 C 16.664062 34.449219 15.351562 35.453125 14.730469 36.417969 C 14.328125 37.042969 14.0625 37.730469 13.941406 38.457031 Z M 13.941406 47.8125 " fill-opacity="1" fill-rule="nonzero"/><path fill="#ffffff" d="M 61.890625 49.726562 L 28.125 49.726562 L 28.125 48.351562 C 28.125 45.355469 30.566406 42.914062 33.5625 42.914062 L 56.453125 42.914062 C 59.453125 42.914062 61.890625 45.355469 61.890625 48.351562 Z M 30.078125 47.8125 L 59.9375 47.8125 C 59.679688 46.125 58.214844 44.824219 56.453125 44.824219 L 33.5625 44.824219 C 31.800781 44.824219 30.335938 46.125 30.078125 47.8125 Z M 30.078125 47.8125 " fill-opacity="1" fill-rule="nonzero"/><path fill="#ffffff" d="M 27.890625 42.171875 L 19.71875 42.171875 C 18.574219 42.171875 17.625 41.503906 17.410156 40.546875 L 16.800781 37.824219 C 16.671875 37.234375 16.851562 36.632812 17.300781 36.171875 C 17.941406 35.515625 19.035156 35.21875 20.089844 35.425781 C 22.101562 35.816406 23.921875 36.183594 25.566406 36.515625 C 26.785156 36.761719 28.773438 37.164062 29.75 38.46875 C 29.960938 38.746094 30.113281 39.054688 30.203125 39.375 L 30.242188 39.503906 L 30.242188 40.167969 C 30.242188 41.292969 29.210938 42.175781 27.890625 42.175781 Z M 18.6875 37.488281 L 19.277344 40.128906 C 19.292969 40.144531 19.453125 40.257812 19.71875 40.257812 L 27.890625 40.257812 C 28.132812 40.257812 28.28125 40.171875 28.332031 40.121094 L 28.332031 39.792969 C 28.304688 39.730469 28.269531 39.671875 28.222656 39.613281 C 27.683594 38.890625 26.078125 38.566406 25.21875 38.390625 C 23.546875 38.054688 21.734375 37.6875 19.726562 37.296875 C 19.210938 37.195312 18.8125 37.371094 18.6875 37.484375 Z M 18.6875 37.488281 " fill-opacity="1" fill-rule="nonzero"/><path fill="#ffffff" d="M 70.296875 42.171875 L 62.125 42.171875 C 60.808594 42.171875 59.777344 41.289062 59.777344 40.164062 L 59.777344 39.5 L 59.8125 39.371094 C 59.902344 39.050781 60.054688 38.742188 60.265625 38.464844 C 61.246094 37.164062 63.234375 36.761719 64.421875 36.519531 L 64.484375 36.507812 C 66.121094 36.175781 67.929688 35.808594 69.929688 35.421875 C 70.984375 35.21875 72.078125 35.511719 72.71875 36.171875 C 73.167969 36.632812 73.347656 37.234375 73.21875 37.820312 L 72.605469 40.546875 C 72.394531 41.5 71.445312 42.171875 70.300781 42.171875 Z M 61.6875 40.121094 C 61.734375 40.171875 61.882812 40.261719 62.125 40.261719 L 70.296875 40.261719 C 70.566406 40.261719 70.722656 40.148438 70.746094 40.109375 L 71.332031 37.488281 C 71.207031 37.375 70.808594 37.199219 70.292969 37.300781 C 68.296875 37.6875 66.492188 38.050781 64.859375 38.382812 L 64.800781 38.398438 C 63.9375 38.570312 62.335938 38.894531 61.792969 39.617188 C 61.746094 39.675781 61.710938 39.734375 61.683594 39.796875 L 61.683594 40.125 Z M 61.6875 40.121094 " fill-opacity="1" fill-rule="nonzero"/><path fill="#ffffff" d="M 77.988281 53.402344 L 12.03125 53.402344 L 12.03125 47.8125 L 77.988281 47.8125 Z M 13.941406 51.492188 L 76.074219 51.492188 L 76.074219 49.726562 L 13.941406 49.726562 Z M 13.941406 51.492188 " fill-opacity="1" fill-rule="nonzero"/><g clip-path="url(#875a24e8c7)"><path fill="#ffffff" d="M 19.722656 58.710938 L 15.234375 58.710938 C 13.46875 58.710938 12.03125 57.273438 12.03125 55.507812 L 12.03125 51.488281 L 22.925781 51.488281 L 22.925781 55.507812 C 22.925781 57.273438 21.488281 58.710938 19.722656 58.710938 Z M 13.941406 53.402344 L 13.941406 55.507812 C 13.941406 56.21875 14.523438 56.796875 15.234375 56.796875 L 19.722656 56.796875 C 20.433594 56.796875 21.015625 56.21875 21.015625 55.507812 L 21.015625 53.402344 Z M 13.941406 53.402344 " fill-opacity="1" fill-rule="nonzero"/></g><g clip-path="url(#4f7e328b5d)"><path fill="#ffffff" d="M 74.78125 58.710938 L 70.292969 58.710938 C 68.527344 58.710938 67.089844 57.273438 67.089844 55.507812 L 67.089844 51.488281 L 77.988281 51.488281 L 77.988281 55.507812 C 77.988281 57.273438 76.550781 58.710938 74.78125 58.710938 Z M 69.003906 53.402344 L 69.003906 55.507812 C 69.003906 56.21875 69.582031 56.796875 70.292969 56.796875 L 74.78125 56.796875 C 75.496094 56.796875 76.074219 56.21875 76.074219 55.507812 L 76.074219 53.402344 Z M 69.003906 53.402344 " fill-opacity="1" fill-rule="nonzero"/></g><g clip-path="url(#155425847c)"><path fill="#ffffff" d="M 22.074219 31.757812 L 14.519531 31.757812 C 12.453125 31.757812 10.769531 30.074219 10.769531 28.007812 C 10.769531 26.320312 12.140625 24.945312 13.828125 24.945312 L 17.753906 24.945312 C 20.136719 24.945312 22.074219 26.886719 22.074219 29.265625 L 22.074219 31.761719 Z M 13.832031 26.859375 C 13.195312 26.859375 12.683594 27.375 12.683594 28.007812 C 12.683594 29.023438 13.507812 29.847656 14.519531 29.847656 L 20.160156 29.847656 L 20.160156 29.265625 C 20.160156 27.9375 19.082031 26.859375 17.753906 26.859375 L 13.828125 26.859375 Z M 13.832031 26.859375 " fill-opacity="1" fill-rule="nonzero"/></g><g clip-path="url(#9a1f9329d3)"><path fill="#ffffff" d="M 75.496094 31.757812 L 67.941406 31.757812 L 67.941406 29.265625 C 67.941406 26.882812 69.882812 24.945312 72.261719 24.945312 L 76.1875 24.945312 C 77.875 24.945312 79.25 26.320312 79.25 28.003906 C 79.25 30.074219 77.566406 31.757812 75.496094 31.757812 Z M 69.855469 29.847656 L 75.496094 29.847656 C 76.507812 29.847656 77.332031 29.019531 77.332031 28.007812 C 77.332031 27.375 76.820312 26.859375 76.183594 26.859375 L 72.261719 26.859375 C 70.933594 26.859375 69.851562 27.9375 69.851562 29.265625 L 69.851562 29.847656 Z M 69.855469 29.847656 " fill-opacity="1" fill-rule="nonzero"/></g><g transform="matrix(1, 0, 0, 1, 10, 65)"><g clip-path="url(#da8a3d49c7)"><g clip-path="url(#b51cbe8672)"><g fill="#ffffff" fill-opacity="1"><g transform="translate(0.476953, 13.171854)"><g><path d="M 4.015625 0.34375 C 3.046875 0.34375 2.238281 0.0820312 1.59375 -0.4375 C 0.945312 -0.957031 0.523438 -1.6875 0.328125 -2.625 L 1.53125 -3.140625 C 1.632812 -2.421875 1.894531 -1.859375 2.3125 -1.453125 C 2.738281 -1.054688 3.289062 -0.859375 3.96875 -0.859375 C 4.632812 -0.859375 5.148438 -1.078125 5.515625 -1.515625 C 5.878906 -1.953125 6.0625 -2.570312 6.0625 -3.375 L 6.0625 -11.65625 L 7.453125 -11.65625 L 7.453125 -3.234375 C 7.453125 -2.097656 7.148438 -1.21875 6.546875 -0.59375 C 5.953125 0.03125 5.109375 0.34375 4.015625 0.34375 Z M 4.015625 0.34375 "/></g></g></g></g><g fill="#ffffff" fill-opacity="1"><g transform="translate(9.373494, 13.171854)"><g><path d="M 3.546875 0.328125 C 2.921875 0.328125 2.363281 0.222656 1.875 0.015625 C 1.394531 -0.191406 1.015625 -0.484375 0.734375 -0.859375 C 0.460938 -1.242188 0.328125 -1.6875 0.328125 -2.1875 C 0.328125 -2.851562 0.613281 -3.429688 1.1875 -3.921875 C 1.769531 -4.421875 2.738281 -4.753906 4.09375 -4.921875 L 6.171875 -5.171875 C 6.378906 -5.191406 6.539062 -5.257812 6.65625 -5.375 C 6.78125 -5.488281 6.84375 -5.632812 6.84375 -5.8125 C 6.84375 -6.332031 6.613281 -6.75 6.15625 -7.0625 C 5.707031 -7.375 5.117188 -7.53125 4.390625 -7.53125 C 3.878906 -7.53125 3.414062 -7.429688 3 -7.234375 C 2.59375 -7.046875 2.269531 -6.796875 2.03125 -6.484375 C 1.800781 -6.179688 1.675781 -5.863281 1.65625 -5.53125 L 0.515625 -6.015625 C 0.566406 -6.484375 0.765625 -6.914062 1.109375 -7.3125 C 1.460938 -7.71875 1.925781 -8.046875 2.5 -8.296875 C 3.082031 -8.546875 3.734375 -8.671875 4.453125 -8.671875 C 5.160156 -8.671875 5.785156 -8.546875 6.328125 -8.296875 C 6.878906 -8.054688 7.304688 -7.707031 7.609375 -7.25 C 7.921875 -6.789062 8.078125 -6.25 8.078125 -5.625 L 8.078125 -1.390625 C 8.078125 -1.222656 8.117188 -1.085938 8.203125 -0.984375 C 8.285156 -0.878906 8.394531 -0.828125 8.53125 -0.828125 C 8.78125 -0.828125 9.003906 -0.992188 9.203125 -1.328125 L 9.890625 -0.53125 C 9.710938 -0.28125 9.460938 -0.078125 9.140625 0.078125 C 8.828125 0.242188 8.515625 0.328125 8.203125 0.328125 C 7.796875 0.328125 7.46875 0.195312 7.21875 -0.0625 C 6.976562 -0.320312 6.847656 -0.640625 6.828125 -1.015625 L 6.8125 -1.390625 L 6.796875 -1.390625 C 6.492188 -0.859375 6.0625 -0.4375 5.5 -0.125 C 4.945312 0.175781 4.296875 0.328125 3.546875 0.328125 Z M 3.765625 -0.8125 C 4.347656 -0.8125 4.867188 -0.925781 5.328125 -1.15625 C 5.785156 -1.394531 6.144531 -1.722656 6.40625 -2.140625 C 6.675781 -2.554688 6.8125 -3.035156 6.8125 -3.578125 L 6.8125 -4.171875 L 4.234375 -3.859375 C 3.234375 -3.734375 2.539062 -3.519531 2.15625 -3.21875 C 1.78125 -2.925781 1.59375 -2.585938 1.59375 -2.203125 C 1.59375 -1.785156 1.796875 -1.445312 2.203125 -1.1875 C 2.609375 -0.9375 3.128906 -0.8125 3.765625 -0.8125 Z M 3.765625 -0.8125 "/></g></g></g><g fill="#ffffff" fill-opacity="1"><g transform="translate(19.874054, 13.171854)"><g><path d="M 4.453125 -8.703125 C 5.160156 -8.703125 5.742188 -8.472656 6.203125 -8.015625 C 6.660156 -7.566406 6.929688 -6.921875 7.015625 -6.078125 L 5.921875 -5.71875 C 5.847656 -6.300781 5.664062 -6.742188 5.375 -7.046875 C 5.082031 -7.359375 4.710938 -7.515625 4.265625 -7.515625 C 3.585938 -7.515625 3.050781 -7.253906 2.65625 -6.734375 C 2.269531 -6.222656 2.078125 -5.507812 2.078125 -4.59375 L 2.078125 0 L 0.828125 0 L 0.828125 -8.34375 L 1.90625 -8.34375 L 2.015625 -7.046875 L 2.03125 -7.046875 C 2.257812 -7.546875 2.585938 -7.945312 3.015625 -8.25 C 3.441406 -8.550781 3.921875 -8.703125 4.453125 -8.703125 Z M 4.453125 -8.703125 "/></g></g></g><g fill="#ffffff" fill-opacity="1"><g transform="translate(27.761881, 13.171854)"><g><path d="M 3.546875 0.328125 C 2.921875 0.328125 2.363281 0.222656 1.875 0.015625 C 1.394531 -0.191406 1.015625 -0.484375 0.734375 -0.859375 C 0.460938 -1.242188 0.328125 -1.6875 0.328125 -2.1875 C 0.328125 -2.851562 0.613281 -3.429688 1.1875 -3.921875 C 1.769531 -4.421875 2.738281 -4.753906 4.09375 -4.921875 L 6.171875 -5.171875 C 6.378906 -5.191406 6.539062 -5.257812 6.65625 -5.375 C 6.78125 -5.488281 6.84375 -5.632812 6.84375 -5.8125 C 6.84375 -6.332031 6.613281 -6.75 6.15625 -7.0625 C 5.707031 -7.375 5.117188 -7.53125 4.390625 -7.53125 C 3.878906 -7.53125 3.414062 -7.429688 3 -7.234375 C 2.59375 -7.046875 2.269531 -6.796875 2.03125 -6.484375 C 1.800781 -6.179688 1.675781 -5.863281 1.65625 -5.53125 L 0.515625 -6.015625 C 0.566406 -6.484375 0.765625 -6.914062 1.109375 -7.3125 C 1.460938 -7.71875 1.925781 -8.046875 2.5 -8.296875 C 3.082031 -8.546875 3.734375 -8.671875 4.453125 -8.671875 C 5.160156 -8.671875 5.785156 -8.546875 6.328125 -8.296875 C 6.878906 -8.054688 7.304688 -7.707031 7.609375 -7.25 C 7.921875 -6.789062 8.078125 -6.25 8.078125 -5.625 L 8.078125 -1.390625 C 8.078125 -1.222656 8.117188 -1.085938 8.203125 -0.984375 C 8.285156 -0.878906 8.394531 -0.828125 8.53125 -0.828125 C 8.78125 -0.828125 9.003906 -0.992188 9.203125 -1.328125 L 9.890625 -0.53125 C 9.710938 -0.28125 9.460938 -0.078125 9.140625 0.078125 C 8.828125 0.242188 8.515625 0.328125 8.203125 0.328125 C 7.796875 0.328125 7.46875 0.195312 7.21875 -0.0625 C 6.976562 -0.320312 6.847656 -0.640625 6.828125 -1.015625 L 6.8125 -1.390625 L 6.796875 -1.390625 C 6.492188 -0.859375 6.0625 -0.4375 5.5 -0.125 C 4.945312 0.175781 4.296875 0.328125 3.546875 0.328125 Z M 3.765625 -0.8125 C 4.347656 -0.8125 4.867188 -0.925781 5.328125 -1.15625 C 5.785156 -1.394531 6.144531 -1.722656 6.40625 -2.140625 C 6.675781 -2.554688 6.8125 -3.035156 6.8125 -3.578125 L 6.8125 -4.171875 L 4.234375 -3.859375 C 3.234375 -3.734375 2.539062 -3.519531 2.15625 -3.21875 C 1.78125 -2.925781 1.59375 -2.585938 1.59375 -2.203125 C 1.59375 -1.785156 1.796875 -1.445312 2.203125 -1.1875 C 2.609375 -0.9375 3.128906 -0.8125 3.765625 -0.8125 Z M 3.765625 -0.8125 "/></g></g></g><g fill="#ffffff" fill-opacity="1"><g transform="translate(38.262441, 13.171854)"><g><path d="M 6.765625 0.40625 C 5.503906 0.40625 4.410156 0.148438 3.484375 -0.359375 C 2.554688 -0.867188 1.835938 -1.585938 1.328125 -2.515625 C 0.828125 -3.453125 0.578125 -4.550781 0.578125 -5.8125 C 0.578125 -7.09375 0.8125 -8.195312 1.28125 -9.125 C 1.757812 -10.0625 2.429688 -10.785156 3.296875 -11.296875 C 4.171875 -11.804688 5.203125 -12.0625 6.390625 -12.0625 C 7.242188 -12.0625 8.015625 -11.894531 8.703125 -11.5625 C 9.390625 -11.226562 9.96875 -10.753906 10.4375 -10.140625 C 10.914062 -9.535156 11.242188 -8.816406 11.421875 -7.984375 L 10.109375 -7.671875 C 9.941406 -8.648438 9.519531 -9.421875 8.84375 -9.984375 C 8.164062 -10.554688 7.347656 -10.84375 6.390625 -10.84375 C 5.492188 -10.84375 4.710938 -10.640625 4.046875 -10.234375 C 3.378906 -9.828125 2.863281 -9.242188 2.5 -8.484375 C 2.132812 -7.734375 1.953125 -6.84375 1.953125 -5.8125 C 1.960938 -4.800781 2.160156 -3.914062 2.546875 -3.15625 C 2.941406 -2.40625 3.5 -1.828125 4.21875 -1.421875 C 4.945312 -1.015625 5.796875 -0.8125 6.765625 -0.8125 C 7.546875 -0.8125 8.242188 -0.96875 8.859375 -1.28125 C 9.472656 -1.59375 9.976562 -2.035156 10.375 -2.609375 C 10.78125 -3.179688 11.035156 -3.851562 11.140625 -4.625 L 12.46875 -4.296875 C 12.320312 -3.335938 11.988281 -2.503906 11.46875 -1.796875 C 10.957031 -1.097656 10.296875 -0.554688 9.484375 -0.171875 C 8.679688 0.210938 7.773438 0.40625 6.765625 0.40625 Z M 6.765625 0.40625 "/></g></g></g><g fill="#ffffff" fill-opacity="1"><g transform="translate(51.673388, 13.171854)"><g><path d="M 3.546875 0.328125 C 2.921875 0.328125 2.363281 0.222656 1.875 0.015625 C 1.394531 -0.191406 1.015625 -0.484375 0.734375 -0.859375 C 0.460938 -1.242188 0.328125 -1.6875 0.328125 -2.1875 C 0.328125 -2.851562 0.613281 -3.429688 1.1875 -3.921875 C 1.769531 -4.421875 2.738281 -4.753906 4.09375 -4.921875 L 6.171875 -5.171875 C 6.378906 -5.191406 6.539062 -5.257812 6.65625 -5.375 C 6.78125 -5.488281 6.84375 -5.632812 6.84375 -5.8125 C 6.84375 -6.332031 6.613281 -6.75 6.15625 -7.0625 C 5.707031 -7.375 5.117188 -7.53125 4.390625 -7.53125 C 3.878906 -7.53125 3.414062 -7.429688 3 -7.234375 C 2.59375 -7.046875 2.269531 -6.796875 2.03125 -6.484375 C 1.800781 -6.179688 1.675781 -5.863281 1.65625 -5.53125 L 0.515625 -6.015625 C 0.566406 -6.484375 0.765625 -6.914062 1.109375 -7.3125 C 1.460938 -7.71875 1.925781 -8.046875 2.5 -8.296875 C 3.082031 -8.546875 3.734375 -8.671875 4.453125 -8.671875 C 5.160156 -8.671875 5.785156 -8.546875 6.328125 -8.296875 C 6.878906 -8.054688 7.304688 -7.707031 7.609375 -7.25 C 7.921875 -6.789062 8.078125 -6.25 8.078125 -5.625 L 8.078125 -1.390625 C 8.078125 -1.222656 8.117188 -1.085938 8.203125 -0.984375 C 8.285156 -0.878906 8.394531 -0.828125 8.53125 -0.828125 C 8.78125 -0.828125 9.003906 -0.992188 9.203125 -1.328125 L 9.890625 -0.53125 C 9.710938 -0.28125 9.460938 -0.078125 9.140625 0.078125 C 8.828125 0.242188 8.515625 0.328125 8.203125 0.328125 C 7.796875 0.328125 7.46875 0.195312 7.21875 -0.0625 C 6.976562 -0.320312 6.847656 -0.640625 6.828125 -1.015625 L 6.8125 -1.390625 L 6.796875 -1.390625 C 6.492188 -0.859375 6.0625 -0.4375 5.5 -0.125 C 4.945312 0.175781 4.296875 0.328125 3.546875 0.328125 Z M 3.765625 -0.8125 C 4.347656 -0.8125 4.867188 -0.925781 5.328125 -1.15625 C 5.785156 -1.394531 6.144531 -1.722656 6.40625 -2.140625 C 6.675781 -2.554688 6.8125 -3.035156 6.8125 -3.578125 L 6.8125 -4.171875 L 4.234375 -3.859375 C 3.234375 -3.734375 2.539062 -3.519531 2.15625 -3.21875 C 1.78125 -2.925781 1.59375 -2.585938 1.59375 -2.203125 C 1.59375 -1.785156 1.796875 -1.445312 2.203125 -1.1875 C 2.609375 -0.9375 3.128906 -0.8125 3.765625 -0.8125 Z M 3.765625 -0.8125 "/></g></g></g><g fill="#ffffff" fill-opacity="1"><g transform="translate(62.173951, 13.171854)"><g><path d="M 4.453125 -8.703125 C 5.160156 -8.703125 5.742188 -8.472656 6.203125 -8.015625 C 6.660156 -7.566406 6.929688 -6.921875 7.015625 -6.078125 L 5.921875 -5.71875 C 5.847656 -6.300781 5.664062 -6.742188 5.375 -7.046875 C 5.082031 -7.359375 4.710938 -7.515625 4.265625 -7.515625 C 3.585938 -7.515625 3.050781 -7.253906 2.65625 -6.734375 C 2.269531 -6.222656 2.078125 -5.507812 2.078125 -4.59375 L 2.078125 0 L 0.828125 0 L 0.828125 -8.34375 L 1.90625 -8.34375 L 2.015625 -7.046875 L 2.03125 -7.046875 C 2.257812 -7.546875 2.585938 -7.945312 3.015625 -8.25 C 3.441406 -8.550781 3.921875 -8.703125 4.453125 -8.703125 Z M 4.453125 -8.703125 "/></g></g></g></g></g></svg>