<svg xmlns="http://www.w3.org/2000/svg" xmlns:xlink="http://www.w3.org/1999/xlink" width="2200" zoomAndPan="magnify" viewBox="0 0 1650 374.999991" height="500" preserveAspectRatio="xMidYMid meet" version="1.0"><defs><g/></defs><g fill="#000000" fill-opacity="1"><g transform="translate(148.686258, 274.002726)"><g><path d="M 277.671875 -126.25 C 268.398438 -91.175781 252.617188 -62.804688 230.328125 -41.140625 C 208.035156 -19.472656 181.734375 -5.507812 151.421875 0.75 C 161.191406 8.269531 172.085938 12.03125 184.109375 12.03125 C 190.367188 12.03125 195.941406 10.835938 200.828125 8.453125 C 205.710938 6.078125 210.535156 3.007812 215.296875 -0.75 C 215.796875 -1.25 217.171875 -2.3125 219.421875 -3.9375 C 221.679688 -5.570312 223.6875 -6.390625 225.4375 -6.390625 C 227.695312 -6.390625 229.765625 -3.820312 231.640625 1.3125 C 233.515625 6.445312 234.453125 12.773438 234.453125 20.296875 C 234.453125 27.804688 233.453125 34.941406 231.453125 41.703125 C 227.691406 54.734375 220.988281 64.878906 211.34375 72.140625 C 201.707031 79.398438 189.625 83.03125 175.09375 83.03125 C 144.03125 83.03125 122.238281 64.117188 109.71875 26.296875 L 102.203125 4.140625 C 74.898438 2.128906 53.546875 -6.320312 38.140625 -21.21875 C 22.734375 -36.125 15.03125 -56.601562 15.03125 -82.65625 C 15.03125 -95.4375 17.160156 -109.96875 21.421875 -126.25 C 28.679688 -154.050781 40.140625 -177.65625 55.796875 -197.0625 C 71.453125 -216.476562 90.113281 -231.132812 111.78125 -241.03125 C 133.445312 -250.925781 157.179688 -255.875 182.984375 -255.875 C 214.546875 -255.875 239.21875 -248.421875 257 -233.515625 C 274.78125 -218.609375 283.671875 -197.128906 283.671875 -169.078125 C 283.671875 -155.804688 281.671875 -141.53125 277.671875 -126.25 Z M 178.46875 -123.609375 C 188.238281 -158.179688 193.125 -182.484375 193.125 -196.515625 C 193.125 -204.523438 191.742188 -210.28125 188.984375 -213.78125 C 186.234375 -217.289062 181.976562 -219.046875 176.21875 -219.046875 C 168.707031 -219.046875 161.941406 -216.039062 155.921875 -210.03125 C 149.910156 -204.019531 143.960938 -194.1875 138.078125 -180.53125 C 132.191406 -166.882812 125.867188 -147.910156 119.109375 -123.609375 C 109.085938 -88.546875 104.078125 -64.375 104.078125 -51.09375 C 104.078125 -43.332031 105.453125 -37.695312 108.203125 -34.1875 C 110.960938 -30.6875 115.347656 -28.9375 121.359375 -28.9375 C 128.878906 -28.9375 135.644531 -32.003906 141.65625 -38.140625 C 147.664062 -44.273438 153.550781 -54.101562 159.3125 -67.625 C 165.070312 -81.15625 171.457031 -99.816406 178.46875 -123.609375 Z M 178.46875 -123.609375 "/></g></g></g><g fill="#000000" fill-opacity="1"><g transform="translate(394.035782, 274.002726)"><g><path d="M 223.1875 -51.84375 C 222.6875 -49.84375 222.4375 -48.34375 222.4375 -47.34375 C 222.4375 -45.59375 222.875 -44.210938 223.75 -43.203125 C 224.625 -42.203125 225.8125 -41.703125 227.3125 -41.703125 C 230.320312 -41.703125 232.890625 -43.015625 235.015625 -45.640625 C 237.148438 -48.273438 238.59375 -49.59375 239.34375 -49.59375 C 240.59375 -49.59375 241.65625 -48.78125 242.53125 -47.15625 C 243.414062 -45.53125 243.859375 -43.585938 243.859375 -41.328125 C 244.109375 -34.316406 241.601562 -27.363281 236.34375 -20.46875 C 231.082031 -13.582031 223.691406 -7.882812 214.171875 -3.375 C 204.648438 1.125 194.003906 3.375 182.234375 3.375 C 167.453125 3.375 155.675781 0.367188 146.90625 -5.640625 C 138.144531 -11.648438 132.507812 -19.539062 130 -29.3125 C 120.988281 -19.289062 111.03125 -11.710938 100.125 -6.578125 C 89.226562 -1.441406 78.144531 1.125 66.875 1.125 C 49.34375 1.125 34.628906 -3.191406 22.734375 -11.828125 C 10.835938 -20.472656 4.890625 -32.5625 4.890625 -48.09375 C 4.890625 -55.101562 6.140625 -62.367188 8.640625 -69.890625 L 32.6875 -148.421875 C 33.4375 -150.671875 33.8125 -152.546875 33.8125 -154.046875 C 33.8125 -156.804688 33.1875 -159 31.9375 -160.625 C 30.6875 -162.25 28.804688 -163.941406 26.296875 -165.703125 C 23.796875 -167.703125 22.039062 -169.453125 21.03125 -170.953125 C 20.03125 -172.460938 19.910156 -174.46875 20.671875 -176.96875 C 22.171875 -182.726562 30.054688 -187.800781 44.328125 -192.1875 C 58.609375 -196.570312 73.515625 -198.765625 89.046875 -198.765625 C 103.578125 -198.765625 114.222656 -196.007812 120.984375 -190.5 C 127.742188 -184.988281 131.125 -177.472656 131.125 -167.953125 C 131.125 -162.191406 130.25 -156.679688 128.5 -151.421875 L 104.828125 -73.265625 C 103.828125 -70.515625 103.328125 -67.882812 103.328125 -65.375 C 103.328125 -61.875 104.328125 -59.242188 106.328125 -57.484375 C 108.335938 -55.734375 110.96875 -54.859375 114.21875 -54.859375 C 118.976562 -54.859375 122.859375 -56.234375 125.859375 -58.984375 C 128.867188 -61.742188 131.878906 -66.378906 134.890625 -72.890625 L 157.8125 -148.421875 C 158.5625 -150.671875 158.9375 -152.546875 158.9375 -154.046875 C 158.9375 -156.804688 158.304688 -159 157.046875 -160.625 C 155.796875 -162.25 154.046875 -163.941406 151.796875 -165.703125 C 149.296875 -167.703125 147.539062 -169.453125 146.53125 -170.953125 C 145.53125 -172.460938 145.40625 -174.46875 146.15625 -176.96875 C 147.414062 -182.726562 155.179688 -187.800781 169.453125 -192.1875 C 183.734375 -196.570312 198.640625 -198.765625 214.171875 -198.765625 C 228.703125 -198.765625 239.410156 -196.007812 246.296875 -190.5 C 253.179688 -184.988281 256.625 -177.597656 256.625 -168.328125 C 256.625 -163.566406 255.625 -157.929688 253.625 -151.421875 Z M 223.1875 -51.84375 "/></g></g></g><g fill="#000000" fill-opacity="1"><g transform="translate(614.211602, 274.002726)"><g><path d="M 134.140625 -198.765625 C 162.941406 -198.765625 185.984375 -193.441406 203.265625 -182.796875 C 220.554688 -172.148438 229.203125 -155.929688 229.203125 -134.140625 C 229.203125 -125.867188 227.695312 -116.472656 224.6875 -105.953125 L 209.28125 -54.109375 C 209.03125 -53.109375 208.90625 -51.851562 208.90625 -50.34375 C 208.90625 -46.34375 210.535156 -44.34375 213.796875 -44.34375 C 216.796875 -44.34375 219.359375 -45.65625 221.484375 -48.28125 C 223.617188 -50.914062 225.0625 -52.234375 225.8125 -52.234375 C 227.0625 -52.234375 228.125 -51.351562 229 -49.59375 C 229.882812 -47.84375 230.328125 -45.835938 230.328125 -43.578125 C 230.578125 -36.816406 228.007812 -29.929688 222.625 -22.921875 C 217.238281 -15.910156 210.035156 -10.148438 201.015625 -5.640625 C 191.992188 -1.128906 182.097656 1.125 171.328125 1.125 C 158.304688 1.125 147.160156 -1.253906 137.890625 -6.015625 C 128.628906 -10.773438 122.242188 -17.785156 118.734375 -27.046875 C 111.210938 -18.035156 102.316406 -11.085938 92.046875 -6.203125 C 81.785156 -1.316406 70.765625 1.125 58.984375 1.125 C 45.710938 1.125 34.566406 -1.441406 25.546875 -6.578125 C 16.535156 -11.710938 9.835938 -18.347656 5.453125 -26.484375 C 1.066406 -34.628906 -1.125 -43.210938 -1.125 -52.234375 C -1.125 -56.234375 -0.75 -60.113281 0 -63.875 C 4.007812 -81.15625 12.710938 -94.179688 26.109375 -102.953125 C 39.515625 -111.722656 55.484375 -116.109375 74.015625 -116.109375 C 94.804688 -116.109375 115.222656 -112.847656 135.265625 -106.328125 L 144.65625 -131.125 C 147.914062 -141.644531 149.546875 -149.785156 149.546875 -155.546875 C 149.296875 -161.566406 147.289062 -166.078125 143.53125 -169.078125 C 139.769531 -172.085938 134.007812 -173.59375 126.25 -173.59375 C 127.75 -169.582031 128.5 -165.445312 128.5 -161.1875 C 128.5 -151.914062 124.988281 -143.898438 117.96875 -137.140625 C 110.957031 -130.378906 100.941406 -127 87.921875 -127 C 75.648438 -127 66.066406 -129.691406 59.171875 -135.078125 C 52.285156 -140.460938 48.84375 -147.160156 48.84375 -155.171875 C 48.84375 -167.703125 55.851562 -178.097656 69.875 -186.359375 C 83.90625 -194.628906 105.328125 -198.765625 134.140625 -198.765625 Z M 113.09375 -84.921875 C 106.082031 -84.921875 100.382812 -82.226562 96 -76.84375 C 91.613281 -71.457031 89.421875 -65.628906 89.421875 -59.359375 C 89.421875 -55.359375 90.359375 -52.101562 92.234375 -49.59375 C 94.117188 -47.09375 96.816406 -45.84375 100.328125 -45.84375 C 103.578125 -45.84375 107.144531 -47.15625 111.03125 -49.78125 C 114.914062 -52.414062 117.734375 -56.363281 119.484375 -61.625 L 127.375 -83.78125 C 123.113281 -84.539062 118.351562 -84.921875 113.09375 -84.921875 Z M 113.09375 -84.921875 "/></g></g></g><g fill="#000000" fill-opacity="1"><g transform="translate(822.364143, 274.002726)"><g><path d="M 232.578125 -51.84375 C 232.078125 -50.84375 231.828125 -49.34375 231.828125 -47.34375 C 231.828125 -45.59375 232.265625 -44.210938 233.140625 -43.203125 C 234.015625 -42.203125 235.207031 -41.703125 236.71875 -41.703125 C 239.71875 -41.703125 242.28125 -43.015625 244.40625 -45.640625 C 246.539062 -48.273438 247.984375 -49.59375 248.734375 -49.59375 C 249.984375 -49.59375 250.984375 -48.78125 251.734375 -47.15625 C 252.492188 -45.53125 252.875 -43.585938 252.875 -41.328125 C 253.125 -34.066406 250.742188 -26.988281 245.734375 -20.09375 C 240.722656 -13.207031 233.394531 -7.570312 223.75 -3.1875 C 214.101562 1.1875 202.519531 3.375 189 3.375 C 172.46875 3.375 159.316406 -0.441406 149.546875 -8.078125 C 139.773438 -15.710938 134.765625 -25.921875 134.515625 -38.703125 C 134.515625 -47.972656 136.769531 -58.367188 141.28125 -69.890625 L 161.9375 -124 C 163.1875 -127.25 163.8125 -129.875 163.8125 -131.875 C 163.8125 -135.132812 162.75 -137.703125 160.625 -139.578125 C 158.5 -141.460938 155.929688 -142.40625 152.921875 -142.40625 C 147.410156 -142.40625 142.148438 -139.835938 137.140625 -134.703125 C 132.128906 -129.566406 128.5 -123.238281 126.25 -115.71875 L 102.953125 -39.078125 C 101.953125 -36.316406 101.453125 -33.6875 101.453125 -31.1875 C 101.453125 -28.175781 102.078125 -25.734375 103.328125 -23.859375 C 104.578125 -21.984375 106.332031 -20.039062 108.59375 -18.03125 C 110.34375 -16.53125 111.59375 -15.15625 112.34375 -13.90625 C 113.09375 -12.65625 113.21875 -11.148438 112.71875 -9.390625 C 111.71875 -6.140625 109.335938 -3.757812 105.578125 -2.25 C 101.828125 -0.75 95.941406 0 87.921875 0 L 2.25 0 C -4.257812 0 -8.953125 -1.0625 -11.828125 -3.1875 C -14.710938 -5.320312 -15.78125 -8.140625 -15.03125 -11.640625 C -14.03125 -14.648438 -11.398438 -17.28125 -7.140625 -19.53125 C -3.378906 -21.539062 -0.25 -23.921875 2.25 -26.671875 C 4.757812 -29.429688 6.890625 -33.816406 8.640625 -39.828125 L 42.078125 -148.421875 C 42.578125 -149.671875 42.828125 -151.421875 42.828125 -153.671875 C 42.828125 -156.429688 42.265625 -158.5625 41.140625 -160.0625 C 40.015625 -161.5625 38.195312 -163.441406 35.6875 -165.703125 C 33.1875 -167.703125 31.4375 -169.453125 30.4375 -170.953125 C 29.4375 -172.460938 29.3125 -174.46875 30.0625 -176.96875 C 31.5625 -182.726562 39.445312 -187.800781 53.71875 -192.1875 C 68 -196.570312 82.90625 -198.765625 98.4375 -198.765625 C 110.96875 -198.765625 120.863281 -195.316406 128.125 -188.421875 C 135.382812 -181.535156 138.640625 -171.957031 137.890625 -159.6875 C 148.160156 -174.46875 159.054688 -184.675781 170.578125 -190.3125 C 182.097656 -195.945312 194.625 -198.765625 208.15625 -198.765625 C 223.4375 -198.765625 235.769531 -194.128906 245.15625 -184.859375 C 254.550781 -175.585938 259.25 -163.566406 259.25 -148.796875 C 259.25 -141.023438 258 -133.382812 255.5 -125.875 Z M 232.578125 -51.84375 "/></g></g></g><g fill="#000000" fill-opacity="1"><g transform="translate(1053.811773, 274.002726)"><g><path d="M 227.6875 -260.015625 C 235.707031 -260.015625 243.535156 -258.320312 251.171875 -254.9375 C 258.816406 -251.550781 265.082031 -246.914062 269.96875 -241.03125 C 274.851562 -235.144531 277.296875 -228.820312 277.296875 -222.0625 C 277.296875 -207.28125 267.273438 -199.890625 247.234375 -199.890625 C 241.472656 -199.890625 237.023438 -200.328125 233.890625 -201.203125 C 230.765625 -202.078125 227.070312 -203.519531 222.8125 -205.53125 C 222.0625 -203.769531 221.6875 -201.265625 221.6875 -198.015625 C 221.6875 -194.003906 222.375 -189.242188 223.75 -183.734375 C 225.125 -178.222656 226.816406 -173.085938 228.828125 -168.328125 C 234.085938 -160.566406 236.71875 -151.300781 236.71875 -140.53125 C 236.71875 -135.769531 236.085938 -130.003906 234.828125 -123.234375 C 231.828125 -110.210938 225.253906 -98.316406 215.109375 -87.546875 C 204.960938 -76.773438 191.9375 -68.320312 176.03125 -62.1875 C 160.125 -56.050781 142.648438 -52.984375 123.609375 -52.984375 C 109.085938 -52.984375 95.4375 -53.984375 82.65625 -55.984375 C 78.90625 -52.722656 77.03125 -48.710938 77.03125 -43.953125 C 77.03125 -40.703125 78.53125 -38.007812 81.53125 -35.875 C 84.539062 -33.75 89.550781 -32.6875 96.5625 -32.6875 L 152.921875 -32.6875 C 172.210938 -32.6875 187.242188 -29.367188 198.015625 -22.734375 C 208.785156 -16.097656 214.171875 -6.640625 214.171875 5.640625 C 214.171875 10.148438 213.421875 14.78125 211.921875 19.53125 C 208.910156 29.300781 202.082031 38.378906 191.4375 46.765625 C 180.789062 55.160156 165.820312 61.988281 146.53125 67.25 C 127.25 72.507812 103.832031 75.140625 76.28125 75.140625 C 51.726562 75.140625 30.9375 73.007812 13.90625 68.75 C -3.125 64.5 -15.835938 58.675781 -24.234375 51.28125 C -32.628906 43.894531 -36.828125 35.691406 -36.828125 26.671875 C -36.828125 24.671875 -36.320312 21.664062 -35.3125 17.65625 C -33.0625 10.394531 -27.988281 4.445312 -20.09375 -0.1875 C -12.207031 -4.820312 0.75 -7.890625 18.78125 -9.390625 C 12.769531 -15.148438 9.765625 -22.039062 9.765625 -30.0625 C 9.765625 -32.8125 10.140625 -35.691406 10.890625 -38.703125 C 14.898438 -51.722656 26.675781 -61.363281 46.21875 -67.625 C 27.425781 -77.894531 18.03125 -92.925781 18.03125 -112.71875 C 18.03125 -118.226562 18.785156 -123.988281 20.296875 -130 C 23.296875 -143.03125 29.929688 -154.867188 40.203125 -165.515625 C 50.472656 -176.160156 63.625 -184.613281 79.65625 -190.875 C 95.6875 -197.132812 113.222656 -200.265625 132.265625 -200.265625 C 162.066406 -200.265625 185.484375 -196.382812 202.515625 -188.625 C 198.765625 -194.382812 195.820312 -200.582031 193.6875 -207.21875 C 191.5625 -213.851562 190.5 -219.925781 190.5 -225.4375 C 190.5 -234.957031 193.566406 -243.097656 199.703125 -249.859375 C 205.835938 -256.628906 215.164062 -260.015625 227.6875 -260.015625 Z M 146.15625 -126.625 C 150.164062 -139.394531 152.171875 -149.164062 152.171875 -155.9375 C 152.171875 -164.445312 148.539062 -168.703125 141.28125 -168.703125 C 135.007812 -168.703125 129.554688 -165.632812 124.921875 -159.5 C 120.296875 -153.363281 115.601562 -142.40625 110.84375 -126.625 C 106.832031 -113.59375 104.828125 -103.695312 104.828125 -96.9375 C 104.828125 -88.675781 108.332031 -84.546875 115.34375 -84.546875 C 121.613281 -84.546875 127.125 -87.675781 131.875 -93.9375 C 136.632812 -100.195312 141.394531 -111.09375 146.15625 -126.625 Z M 71.390625 5.265625 C 64.378906 5.265625 57.992188 4.890625 52.234375 4.140625 C 49.222656 7.890625 47.71875 12.894531 47.71875 19.15625 C 47.96875 25.425781 50.535156 29.9375 55.421875 32.6875 C 60.304688 35.445312 67.882812 36.828125 78.15625 36.828125 C 90.675781 36.828125 100.878906 34.945312 108.765625 31.1875 C 116.660156 27.425781 120.609375 22.039062 120.609375 15.03125 C 120.609375 12.019531 119.476562 9.640625 117.21875 7.890625 C 114.96875 6.140625 111.710938 5.265625 107.453125 5.265625 Z M 71.390625 5.265625 "/></g></g></g><g fill="#000000" fill-opacity="1"><g transform="translate(1254.825583, 274.002726)"><g><path d="M 145.40625 -198.765625 C 179.476562 -198.765625 204.59375 -191.875 220.75 -178.09375 C 236.90625 -164.320312 244.984375 -146.289062 244.984375 -124 C 244.984375 -116.476562 243.976562 -108.082031 241.96875 -98.8125 C 237.207031 -78.28125 228.3125 -60.3125 215.28125 -44.90625 C 202.257812 -29.5 186.289062 -17.597656 167.375 -9.203125 C 148.46875 -0.816406 127.992188 3.375 105.953125 3.375 C 71.140625 3.375 45.398438 -3.570312 28.734375 -17.46875 C 12.078125 -31.375 3.75 -49.847656 3.75 -72.890625 C 3.75 -80.660156 4.753906 -89.300781 6.765625 -98.8125 C 11.523438 -118.351562 20.601562 -135.703125 34 -150.859375 C 47.40625 -166.015625 63.8125 -177.785156 83.21875 -186.171875 C 102.632812 -194.566406 123.363281 -198.765625 145.40625 -198.765625 Z M 144.28125 -165.328125 C 139.019531 -165.328125 133.445312 -160.628906 127.5625 -151.234375 C 121.675781 -141.835938 114.722656 -124.113281 106.703125 -98.0625 C 98.691406 -72.007812 94.6875 -53.722656 94.6875 -43.203125 C 94.6875 -37.691406 95.5625 -34 97.3125 -32.125 C 99.070312 -30.25 101.453125 -29.3125 104.453125 -29.3125 C 109.710938 -28.8125 115.160156 -33.316406 120.796875 -42.828125 C 126.429688 -52.347656 133.507812 -70.882812 142.03125 -98.4375 C 149.789062 -122.738281 153.671875 -140.398438 153.671875 -151.421875 C 153.671875 -156.679688 152.859375 -160.3125 151.234375 -162.3125 C 149.609375 -164.320312 147.289062 -165.328125 144.28125 -165.328125 Z M 144.28125 -165.328125 "/></g></g></g></svg>