<svg xmlns="http://www.w3.org/2000/svg" xmlns:xlink="http://www.w3.org/1999/xlink" width="2100" zoomAndPan="magnify" viewBox="0 0 1574.88 374.999991" height="500" preserveAspectRatio="xMidYMid meet" version="1.0"><defs><g/><clipPath id="f0f775bae3"><path d="M 0.359375 0.84375 L 335.671875 0.84375 L 335.671875 336.15625 L 0.359375 336.15625 Z M 0.359375 0.84375 " clip-rule="nonzero"/></clipPath><clipPath id="7983f7b724"><path d="M 12.214844 0.84375 L 323.816406 0.84375 C 330.363281 0.84375 335.671875 6.152344 335.671875 12.699219 L 335.671875 324.300781 C 335.671875 330.847656 330.363281 336.15625 323.816406 336.15625 L 12.214844 336.15625 C 5.667969 336.15625 0.359375 330.847656 0.359375 324.300781 L 0.359375 12.699219 C 0.359375 6.152344 5.667969 0.84375 12.214844 0.84375 Z M 12.214844 0.84375 " clip-rule="nonzero"/></clipPath><clipPath id="ad9a36b48c"><path d="M 0.359375 0.84375 L 335.671875 0.84375 L 335.671875 336.15625 L 0.359375 336.15625 Z M 0.359375 0.84375 " clip-rule="nonzero"/></clipPath><clipPath id="c6f0dfac5d"><path d="M 12.214844 0.84375 L 323.816406 0.84375 C 330.363281 0.84375 335.671875 6.152344 335.671875 12.699219 L 335.671875 324.300781 C 335.671875 330.847656 330.363281 336.15625 323.816406 336.15625 L 12.214844 336.15625 C 5.667969 336.15625 0.359375 330.847656 0.359375 324.300781 L 0.359375 12.699219 C 0.359375 6.152344 5.667969 0.84375 12.214844 0.84375 Z M 12.214844 0.84375 " clip-rule="nonzero"/></clipPath><clipPath id="0128951f96"><rect x="0" width="336" y="0" height="337"/></clipPath><clipPath id="4eee9efa5c"><path d="M 74 89.574219 L 262 89.574219 L 262 148 L 74 148 Z M 74 89.574219 " clip-rule="nonzero"/></clipPath><clipPath id="446c748bd0"><path d="M 45 220 L 86 220 L 86 247.648438 L 45 247.648438 Z M 45 220 " clip-rule="nonzero"/></clipPath><clipPath id="59a7d160d2"><path d="M 250 220 L 291 220 L 291 247.648438 L 250 247.648438 Z M 250 220 " clip-rule="nonzero"/></clipPath><clipPath id="0b6d7fe06e"><path d="M 40.457031 121 L 83 121 L 83 147 L 40.457031 147 Z M 40.457031 121 " clip-rule="nonzero"/></clipPath><clipPath id="488f5d6eb1"><path d="M 253 121 L 295.863281 121 L 295.863281 147 L 253 147 Z M 253 121 " clip-rule="nonzero"/></clipPath><clipPath id="2b4213e2b3"><rect x="0" width="336" y="0" height="337"/></clipPath><clipPath id="6d056630a2"><rect x="0" width="1140" y="0" height="272"/></clipPath></defs><g transform="matrix(1, 0, 0, 1, 22, 19)"><g clip-path="url(#2b4213e2b3)"><g clip-path="url(#f0f775bae3)"><g clip-path="url(#7983f7b724)"><g transform="matrix(1, 0, 0, 1, 0, 0.000000000000049738)"><g clip-path="url(#0128951f96)"><g clip-path="url(#ad9a36b48c)"><g clip-path="url(#c6f0dfac5d)"><path fill="#000000" d="M 0.359375 0.84375 L 335.671875 0.84375 L 335.671875 336.15625 L 0.359375 336.15625 Z M 0.359375 0.84375 " fill-opacity="1" fill-rule="nonzero"/></g></g></g></g></g></g><g clip-path="url(#4eee9efa5c)"><path fill="#ffffff" d="M 254.753906 147.117188 C 251.636719 138 247.5625 129.175781 242.648438 120.886719 C 240.277344 116.882812 237.667969 112.949219 234.902344 109.191406 C 231.085938 104.007812 225.1875 100.59375 218.722656 99.8125 C 201.992188 97.796875 184.964844 96.769531 168.113281 96.761719 L 168.023438 96.761719 C 150.957031 96.761719 133.703125 97.8125 116.746094 99.882812 C 110.417969 100.65625 104.730469 103.90625 100.726562 109.042969 C 98.152344 112.34375 95.738281 115.835938 93.546875 119.40625 C 88.289062 127.988281 84.199219 137.253906 81.375 146.957031 L 74.535156 144.972656 C 77.53125 134.660156 81.882812 124.804688 87.472656 115.683594 C 89.804688 111.878906 92.375 108.175781 95.109375 104.664062 C 100.28125 98.027344 107.65625 93.816406 115.878906 92.816406 C 133.121094 90.710938 150.664062 89.644531 168.019531 89.644531 L 168.105469 89.644531 C 185.238281 89.644531 202.550781 90.6875 219.566406 92.738281 C 227.96875 93.753906 235.648438 98.207031 240.628906 104.96875 C 243.539062 108.917969 246.273438 113.050781 248.765625 117.253906 C 253.933594 125.960938 258.207031 135.234375 261.480469 144.808594 L 254.742188 147.117188 Z M 254.753906 147.117188 " fill-opacity="1" fill-rule="nonzero"/></g><path fill="#ffffff" d="M 290.917969 213.925781 L 45.183594 213.925781 L 45.226562 171.121094 C 45.804688 167.316406 47.164062 163.730469 49.265625 160.476562 C 50.386719 158.742188 53.789062 153.457031 66.480469 146.898438 C 66.910156 146.675781 67.355469 146.449219 67.820312 146.21875 C 80.179688 140.0625 94.246094 136.8125 108.511719 136.8125 L 227.539062 136.8125 C 241.042969 136.8125 254.402344 139.730469 266.175781 145.246094 C 267.828125 146.019531 269.304688 146.765625 270.617188 147.457031 C 281.113281 153.007812 284.796875 157.328125 286.835938 160.46875 C 288.949219 163.730469 290.3125 167.316406 290.878906 171.132812 L 290.921875 171.65625 L 290.921875 213.925781 Z M 52.304688 206.800781 L 283.789062 206.800781 L 283.789062 171.929688 C 283.347656 169.222656 282.359375 166.671875 280.851562 164.339844 C 279.28125 161.925781 276.324219 158.53125 267.277344 153.753906 C 266.0625 153.109375 264.683594 152.414062 263.144531 151.691406 C 252.316406 146.617188 240 143.933594 227.53125 143.933594 L 108.503906 143.933594 C 95.335938 143.933594 82.367188 146.925781 70.988281 152.59375 C 70.554688 152.808594 70.140625 153.015625 69.75 153.222656 C 62.441406 157.003906 57.558594 160.738281 55.246094 164.332031 C 53.738281 166.671875 52.753906 169.222656 52.304688 171.929688 Z M 52.304688 206.800781 " fill-opacity="1" fill-rule="nonzero"/><path fill="#ffffff" d="M 230.949219 213.925781 L 105.148438 213.925781 L 105.148438 208.800781 C 105.148438 197.632812 114.234375 188.546875 125.402344 188.546875 L 210.691406 188.546875 C 221.859375 188.546875 230.949219 197.632812 230.949219 208.800781 Z M 112.421875 206.800781 L 223.671875 206.800781 C 222.707031 200.5 217.25 195.664062 210.691406 195.664062 L 125.402344 195.664062 C 118.84375 195.664062 113.386719 200.5 112.421875 206.800781 Z M 112.421875 206.800781 " fill-opacity="1" fill-rule="nonzero"/><path fill="#ffffff" d="M 104.277344 185.777344 L 73.828125 185.777344 C 69.558594 185.777344 66.027344 183.292969 65.226562 179.726562 L 62.957031 169.574219 C 62.46875 167.382812 63.140625 165.140625 64.8125 163.425781 C 67.195312 160.96875 71.273438 159.875 75.203125 160.636719 C 82.699219 162.089844 89.480469 163.464844 95.605469 164.703125 C 100.148438 165.621094 107.554688 167.125 111.199219 171.972656 C 111.988281 173.015625 112.554688 174.15625 112.894531 175.355469 L 113.03125 175.832031 L 113.03125 178.304688 C 113.03125 182.5 109.183594 185.785156 104.277344 185.785156 Z M 69.980469 168.324219 L 72.179688 178.167969 C 72.242188 178.222656 72.832031 178.652344 73.828125 178.652344 L 104.277344 178.652344 C 105.175781 178.652344 105.730469 178.316406 105.910156 178.132812 L 105.910156 176.910156 C 105.808594 176.683594 105.675781 176.457031 105.511719 176.238281 C 103.496094 173.554688 97.519531 172.34375 94.3125 171.691406 C 88.085938 170.433594 81.328125 169.0625 73.851562 167.613281 C 71.929688 167.238281 70.445312 167.886719 69.980469 168.3125 Z M 69.980469 168.324219 " fill-opacity="1" fill-rule="nonzero"/><path fill="#ffffff" d="M 262.269531 185.777344 L 231.820312 185.777344 C 226.910156 185.777344 223.066406 182.492188 223.066406 178.300781 L 223.066406 175.824219 L 223.203125 175.347656 C 223.542969 174.144531 224.109375 173.003906 224.894531 171.96875 C 228.539062 167.117188 235.945312 165.617188 240.378906 164.722656 L 240.609375 164.675781 C 246.710938 163.441406 253.449219 162.074219 260.898438 160.628906 C 264.820312 159.875 268.898438 160.964844 271.289062 163.421875 C 272.960938 165.140625 273.632812 167.382812 273.144531 169.570312 L 270.875 179.71875 C 270.074219 183.28125 266.539062 185.773438 262.273438 185.773438 Z M 230.1875 178.140625 C 230.363281 178.324219 230.917969 178.65625 231.820312 178.65625 L 262.269531 178.65625 C 263.265625 178.65625 263.855469 178.234375 263.945312 178.085938 L 266.113281 168.328125 C 265.648438 167.90625 264.171875 167.257812 262.246094 167.632812 C 254.8125 169.070312 248.09375 170.429688 242.011719 171.664062 L 241.785156 171.710938 C 238.570312 172.359375 232.601562 173.570312 230.578125 176.253906 C 230.414062 176.476562 230.28125 176.695312 230.179688 176.921875 L 230.179688 178.144531 Z M 230.1875 178.140625 " fill-opacity="1" fill-rule="nonzero"/><path fill="#ffffff" d="M 290.917969 227.617188 L 45.183594 227.617188 L 45.183594 206.800781 L 290.917969 206.800781 Z M 52.304688 220.496094 L 283.789062 220.496094 L 283.789062 213.925781 L 52.304688 213.925781 Z M 52.304688 220.496094 " fill-opacity="1" fill-rule="nonzero"/><g clip-path="url(#446c748bd0)"><path fill="#ffffff" d="M 73.839844 247.398438 L 57.117188 247.398438 C 50.535156 247.398438 45.179688 242.042969 45.179688 235.457031 L 45.179688 220.492188 L 85.777344 220.492188 L 85.777344 235.457031 C 85.777344 242.042969 80.421875 247.398438 73.839844 247.398438 Z M 52.304688 227.617188 L 52.304688 235.457031 C 52.304688 238.113281 54.464844 240.269531 57.117188 240.269531 L 73.839844 240.269531 C 76.492188 240.269531 78.652344 238.113281 78.652344 235.457031 L 78.652344 227.617188 Z M 52.304688 227.617188 " fill-opacity="1" fill-rule="nonzero"/></g><g clip-path="url(#59a7d160d2)"><path fill="#ffffff" d="M 278.976562 247.398438 L 262.257812 247.398438 C 255.671875 247.398438 250.316406 242.042969 250.316406 235.457031 L 250.316406 220.492188 L 290.917969 220.492188 L 290.917969 235.457031 C 290.917969 242.042969 285.5625 247.398438 278.976562 247.398438 Z M 257.445312 227.617188 L 257.445312 235.457031 C 257.445312 238.113281 259.601562 240.269531 262.257812 240.269531 L 278.976562 240.269531 C 281.632812 240.269531 283.789062 238.113281 283.789062 235.457031 L 283.789062 227.617188 Z M 257.445312 227.617188 " fill-opacity="1" fill-rule="nonzero"/></g><g clip-path="url(#0b6d7fe06e)"><path fill="#ffffff" d="M 82.597656 146.980469 L 54.457031 146.980469 C 46.753906 146.980469 40.480469 140.707031 40.480469 133.003906 C 40.480469 126.710938 45.597656 121.601562 51.882812 121.601562 L 66.503906 121.601562 C 75.378906 121.601562 82.597656 128.824219 82.597656 137.695312 L 82.597656 146.988281 Z M 51.886719 128.722656 C 49.527344 128.722656 47.605469 130.640625 47.605469 133.003906 C 47.605469 136.785156 50.683594 139.855469 54.457031 139.855469 L 75.472656 139.855469 L 75.472656 137.691406 C 75.472656 132.746094 71.449219 128.722656 66.503906 128.722656 L 51.882812 128.722656 Z M 51.886719 128.722656 " fill-opacity="1" fill-rule="nonzero"/></g><g clip-path="url(#488f5d6eb1)"><path fill="#ffffff" d="M 281.636719 146.980469 L 253.496094 146.980469 L 253.496094 137.691406 C 253.496094 128.816406 260.71875 121.59375 269.589844 121.59375 L 284.214844 121.59375 C 290.503906 121.59375 295.621094 126.710938 295.621094 132.996094 C 295.621094 140.707031 289.347656 146.976562 281.644531 146.976562 Z M 260.617188 139.855469 L 281.632812 139.855469 C 285.410156 139.855469 288.484375 136.777344 288.484375 133.003906 C 288.484375 130.640625 286.5625 128.722656 284.203125 128.722656 L 269.578125 128.722656 C 264.636719 128.722656 260.609375 132.746094 260.609375 137.691406 L 260.609375 139.855469 Z M 260.617188 139.855469 " fill-opacity="1" fill-rule="nonzero"/></g></g></g><g transform="matrix(1, 0, 0, 1, 405, 76)"><g clip-path="url(#6d056630a2)"><g fill="#000000" fill-opacity="1"><g transform="translate(0.436053, 202.956774)"><g><path d="M 65.65625 5.671875 C 49.8125 5.671875 36.617188 1.394531 26.078125 -7.15625 C 15.535156 -15.71875 8.644531 -27.65625 5.40625 -42.96875 L 25.125 -51.34375 C 26.75 -39.632812 31.03125 -30.488281 37.96875 -23.90625 C 44.90625 -17.332031 53.867188 -14.046875 64.859375 -14.046875 C 75.835938 -14.046875 84.300781 -17.601562 90.25 -24.71875 C 96.195312 -31.84375 99.171875 -41.976562 99.171875 -55.125 L 99.171875 -190.5 L 121.875 -190.5 L 121.875 -52.96875 C 121.875 -34.40625 116.960938 -19.988281 107.140625 -9.71875 C 97.328125 0.539062 83.5 5.671875 65.65625 5.671875 Z M 65.65625 5.671875 "/></g></g></g><g fill="#000000" fill-opacity="1"><g transform="translate(145.809845, 202.956774)"><g><path d="M 58.09375 5.40625 C 47.820312 5.40625 38.722656 3.691406 30.796875 0.265625 C 22.878906 -3.148438 16.664062 -7.96875 12.15625 -14.1875 C 7.65625 -20.40625 5.40625 -27.566406 5.40625 -35.671875 C 5.40625 -46.660156 10.132812 -56.207031 19.59375 -64.3125 C 29.050781 -72.414062 44.859375 -77.820312 67.015625 -80.53125 L 100.796875 -84.578125 C 104.210938 -84.941406 106.910156 -86.066406 108.890625 -87.953125 C 110.878906 -89.847656 111.875 -92.234375 111.875 -95.109375 C 111.875 -103.578125 108.179688 -110.378906 100.796875 -115.515625 C 93.410156 -120.648438 83.769531 -123.21875 71.875 -123.21875 C 63.40625 -123.21875 55.835938 -121.640625 49.171875 -118.484375 C 42.515625 -115.335938 37.25 -111.238281 33.375 -106.1875 C 29.5 -101.144531 27.378906 -95.921875 27.015625 -90.515625 L 8.375 -98.359375 C 9.28125 -105.921875 12.566406 -112.988281 18.234375 -119.5625 C 23.910156 -126.144531 31.476562 -131.503906 40.9375 -135.640625 C 50.394531 -139.785156 60.976562 -141.859375 72.6875 -141.859375 C 84.394531 -141.859375 94.707031 -139.832031 103.625 -135.78125 C 112.539062 -131.726562 119.519531 -125.960938 124.5625 -118.484375 C 129.613281 -111.015625 132.140625 -102.144531 132.140625 -91.875 L 132.140625 -22.703125 C 132.140625 -19.992188 132.8125 -17.785156 134.15625 -16.078125 C 135.507812 -14.367188 137.269531 -13.515625 139.4375 -13.515625 C 143.570312 -13.515625 147.265625 -16.21875 150.515625 -21.625 L 161.59375 -8.640625 C 158.707031 -4.503906 154.695312 -1.128906 149.5625 1.484375 C 144.425781 4.097656 139.25 5.40625 134.03125 5.40625 C 127.363281 5.40625 122.046875 3.289062 118.078125 -0.9375 C 114.117188 -5.175781 111.957031 -10.359375 111.59375 -16.484375 L 111.328125 -22.703125 L 111.0625 -22.703125 C 106.195312 -14.054688 99.210938 -7.207031 90.109375 -2.15625 C 81.015625 2.882812 70.34375 5.40625 58.09375 5.40625 Z M 61.609375 -13.234375 C 71.160156 -13.234375 79.671875 -15.171875 87.140625 -19.046875 C 94.617188 -22.921875 100.519531 -28.234375 104.84375 -34.984375 C 109.164062 -41.742188 111.328125 -49.539062 111.328125 -58.375 L 111.328125 -68.09375 L 69.171875 -62.96875 C 52.785156 -60.976562 41.484375 -57.550781 35.265625 -52.6875 C 29.046875 -47.820312 25.9375 -42.238281 25.9375 -35.9375 C 25.9375 -29.09375 29.269531 -23.597656 35.9375 -19.453125 C 42.601562 -15.304688 51.160156 -13.234375 61.609375 -13.234375 Z M 61.609375 -13.234375 "/></g></g></g><g fill="#000000" fill-opacity="1"><g transform="translate(317.39414, 202.956774)"><g><path d="M 72.6875 -142.140625 C 84.394531 -142.140625 93.988281 -138.445312 101.46875 -131.0625 C 108.945312 -123.675781 113.316406 -113.132812 114.578125 -99.4375 L 96.734375 -93.5 C 95.648438 -103.039062 92.722656 -110.332031 87.953125 -115.375 C 83.179688 -120.425781 77.101562 -122.953125 69.71875 -122.953125 C 58.726562 -122.953125 50.035156 -118.71875 43.640625 -110.25 C 37.242188 -101.78125 34.046875 -90.070312 34.046875 -75.125 L 34.046875 0 L 13.515625 0 L 13.515625 -136.453125 L 31.078125 -136.453125 L 32.96875 -115.109375 L 33.234375 -115.109375 C 37.015625 -123.398438 42.375 -129.976562 49.3125 -134.84375 C 56.25 -139.707031 64.039062 -142.140625 72.6875 -142.140625 Z M 72.6875 -142.140625 "/></g></g></g><g fill="#000000" fill-opacity="1"><g transform="translate(446.285031, 202.956774)"><g><path d="M 58.09375 5.40625 C 47.820312 5.40625 38.722656 3.691406 30.796875 0.265625 C 22.878906 -3.148438 16.664062 -7.96875 12.15625 -14.1875 C 7.65625 -20.40625 5.40625 -27.566406 5.40625 -35.671875 C 5.40625 -46.660156 10.132812 -56.207031 19.59375 -64.3125 C 29.050781 -72.414062 44.859375 -77.820312 67.015625 -80.53125 L 100.796875 -84.578125 C 104.210938 -84.941406 106.910156 -86.066406 108.890625 -87.953125 C 110.878906 -89.847656 111.875 -92.234375 111.875 -95.109375 C 111.875 -103.578125 108.179688 -110.378906 100.796875 -115.515625 C 93.410156 -120.648438 83.769531 -123.21875 71.875 -123.21875 C 63.40625 -123.21875 55.835938 -121.640625 49.171875 -118.484375 C 42.515625 -115.335938 37.25 -111.238281 33.375 -106.1875 C 29.5 -101.144531 27.378906 -95.921875 27.015625 -90.515625 L 8.375 -98.359375 C 9.28125 -105.921875 12.566406 -112.988281 18.234375 -119.5625 C 23.910156 -126.144531 31.476562 -131.503906 40.9375 -135.640625 C 50.394531 -139.785156 60.976562 -141.859375 72.6875 -141.859375 C 84.394531 -141.859375 94.707031 -139.832031 103.625 -135.78125 C 112.539062 -131.726562 119.519531 -125.960938 124.5625 -118.484375 C 129.613281 -111.015625 132.140625 -102.144531 132.140625 -91.875 L 132.140625 -22.703125 C 132.140625 -19.992188 132.8125 -17.785156 134.15625 -16.078125 C 135.507812 -14.367188 137.269531 -13.515625 139.4375 -13.515625 C 143.570312 -13.515625 147.265625 -16.21875 150.515625 -21.625 L 161.59375 -8.640625 C 158.707031 -4.503906 154.695312 -1.128906 149.5625 1.484375 C 144.425781 4.097656 139.25 5.40625 134.03125 5.40625 C 127.363281 5.40625 122.046875 3.289062 118.078125 -0.9375 C 114.117188 -5.175781 111.957031 -10.359375 111.59375 -16.484375 L 111.328125 -22.703125 L 111.0625 -22.703125 C 106.195312 -14.054688 99.210938 -7.207031 90.109375 -2.15625 C 81.015625 2.882812 70.34375 5.40625 58.09375 5.40625 Z M 61.609375 -13.234375 C 71.160156 -13.234375 79.671875 -15.171875 87.140625 -19.046875 C 94.617188 -22.921875 100.519531 -28.234375 104.84375 -34.984375 C 109.164062 -41.742188 111.328125 -49.539062 111.328125 -58.375 L 111.328125 -68.09375 L 69.171875 -62.96875 C 52.785156 -60.976562 41.484375 -57.550781 35.265625 -52.6875 C 29.046875 -47.820312 25.9375 -42.238281 25.9375 -35.9375 C 25.9375 -29.09375 29.269531 -23.597656 35.9375 -19.453125 C 42.601562 -15.304688 51.160156 -13.234375 61.609375 -13.234375 Z M 61.609375 -13.234375 "/></g></g></g><g fill="#000000" fill-opacity="1"><g transform="translate(617.869283, 202.956774)"><g><path d="M 110.515625 6.75 C 89.984375 6.75 72.148438 2.5625 57.015625 -5.8125 C 41.878906 -14.1875 30.164062 -25.984375 21.875 -41.203125 C 13.59375 -56.429688 9.453125 -74.398438 9.453125 -95.109375 C 9.453125 -116.015625 13.328125 -134.078125 21.078125 -149.296875 C 28.828125 -164.515625 39.816406 -176.3125 54.046875 -184.6875 C 68.273438 -193.070312 85.117188 -197.265625 104.578125 -197.265625 C 118.441406 -197.265625 131.003906 -194.515625 142.265625 -189.015625 C 153.523438 -183.523438 163.023438 -175.820312 170.765625 -165.90625 C 178.515625 -156 183.832031 -144.203125 186.71875 -130.515625 L 165.375 -125.375 C 162.488281 -141.414062 155.550781 -154.070312 144.5625 -163.34375 C 133.570312 -172.625 120.242188 -177.265625 104.578125 -177.265625 C 89.804688 -177.265625 76.96875 -173.929688 66.0625 -167.265625 C 55.164062 -160.597656 46.742188 -151.09375 40.796875 -138.75 C 34.859375 -126.414062 31.890625 -111.867188 31.890625 -95.109375 C 32.066406 -78.535156 35.351562 -64.078125 41.75 -51.734375 C 48.144531 -39.398438 57.238281 -29.898438 69.03125 -23.234375 C 80.832031 -16.566406 94.660156 -13.234375 110.515625 -13.234375 C 123.304688 -13.234375 134.742188 -15.800781 144.828125 -20.9375 C 154.921875 -26.070312 163.207031 -33.320312 169.6875 -42.6875 C 176.175781 -52.0625 180.320312 -63.050781 182.125 -75.65625 L 203.75 -70.25 C 201.40625 -54.582031 196 -40.984375 187.53125 -29.453125 C 179.0625 -17.921875 168.25 -9.003906 155.09375 -2.703125 C 141.945312 3.597656 127.085938 6.75 110.515625 6.75 Z M 110.515625 6.75 "/></g></g></g><g fill="#000000" fill-opacity="1"><g transform="translate(837.010741, 202.956774)"><g><path d="M 58.09375 5.40625 C 47.820312 5.40625 38.722656 3.691406 30.796875 0.265625 C 22.878906 -3.148438 16.664062 -7.96875 12.15625 -14.1875 C 7.65625 -20.40625 5.40625 -27.566406 5.40625 -35.671875 C 5.40625 -46.660156 10.132812 -56.207031 19.59375 -64.3125 C 29.050781 -72.414062 44.859375 -77.820312 67.015625 -80.53125 L 100.796875 -84.578125 C 104.210938 -84.941406 106.910156 -86.066406 108.890625 -87.953125 C 110.878906 -89.847656 111.875 -92.234375 111.875 -95.109375 C 111.875 -103.578125 108.179688 -110.378906 100.796875 -115.515625 C 93.410156 -120.648438 83.769531 -123.21875 71.875 -123.21875 C 63.40625 -123.21875 55.835938 -121.640625 49.171875 -118.484375 C 42.515625 -115.335938 37.25 -111.238281 33.375 -106.1875 C 29.5 -101.144531 27.378906 -95.921875 27.015625 -90.515625 L 8.375 -98.359375 C 9.28125 -105.921875 12.566406 -112.988281 18.234375 -119.5625 C 23.910156 -126.144531 31.476562 -131.503906 40.9375 -135.640625 C 50.394531 -139.785156 60.976562 -141.859375 72.6875 -141.859375 C 84.394531 -141.859375 94.707031 -139.832031 103.625 -135.78125 C 112.539062 -131.726562 119.519531 -125.960938 124.5625 -118.484375 C 129.613281 -111.015625 132.140625 -102.144531 132.140625 -91.875 L 132.140625 -22.703125 C 132.140625 -19.992188 132.8125 -17.785156 134.15625 -16.078125 C 135.507812 -14.367188 137.269531 -13.515625 139.4375 -13.515625 C 143.570312 -13.515625 147.265625 -16.21875 150.515625 -21.625 L 161.59375 -8.640625 C 158.707031 -4.503906 154.695312 -1.128906 149.5625 1.484375 C 144.425781 4.097656 139.25 5.40625 134.03125 5.40625 C 127.363281 5.40625 122.046875 3.289062 118.078125 -0.9375 C 114.117188 -5.175781 111.957031 -10.359375 111.59375 -16.484375 L 111.328125 -22.703125 L 111.0625 -22.703125 C 106.195312 -14.054688 99.210938 -7.207031 90.109375 -2.15625 C 81.015625 2.882812 70.34375 5.40625 58.09375 5.40625 Z M 61.609375 -13.234375 C 71.160156 -13.234375 79.671875 -15.171875 87.140625 -19.046875 C 94.617188 -22.921875 100.519531 -28.234375 104.84375 -34.984375 C 109.164062 -41.742188 111.328125 -49.539062 111.328125 -58.375 L 111.328125 -68.09375 L 69.171875 -62.96875 C 52.785156 -60.976562 41.484375 -57.550781 35.265625 -52.6875 C 29.046875 -47.820312 25.9375 -42.238281 25.9375 -35.9375 C 25.9375 -29.09375 29.269531 -23.597656 35.9375 -19.453125 C 42.601562 -15.304688 51.160156 -13.234375 61.609375 -13.234375 Z M 61.609375 -13.234375 "/></g></g></g><g fill="#000000" fill-opacity="1"><g transform="translate(1008.595036, 202.956774)"><g><path d="M 72.6875 -142.140625 C 84.394531 -142.140625 93.988281 -138.445312 101.46875 -131.0625 C 108.945312 -123.675781 113.316406 -113.132812 114.578125 -99.4375 L 96.734375 -93.5 C 95.648438 -103.039062 92.722656 -110.332031 87.953125 -115.375 C 83.179688 -120.425781 77.101562 -122.953125 69.71875 -122.953125 C 58.726562 -122.953125 50.035156 -118.71875 43.640625 -110.25 C 37.242188 -101.78125 34.046875 -90.070312 34.046875 -75.125 L 34.046875 0 L 13.515625 0 L 13.515625 -136.453125 L 31.078125 -136.453125 L 32.96875 -115.109375 L 33.234375 -115.109375 C 37.015625 -123.398438 42.375 -129.976562 49.3125 -134.84375 C 56.25 -139.707031 64.039062 -142.140625 72.6875 -142.140625 Z M 72.6875 -142.140625 "/></g></g></g></g></g></svg>