<svg xmlns="http://www.w3.org/2000/svg" xmlns:xlink="http://www.w3.org/1999/xlink" width="2200" zoomAndPan="magnify" viewBox="0 0 1650 374.999991" height="500" preserveAspectRatio="xMidYMid meet" version="1.0"><defs><g/><clipPath id="2764c74d2e"><path d="M 23.273438 19.828125 L 358.613281 19.828125 L 358.613281 355.171875 L 23.273438 355.171875 Z M 23.273438 19.828125 " clip-rule="nonzero"/></clipPath><clipPath id="7614c76bdc"><path d="M 35.128906 19.828125 L 346.753906 19.828125 C 353.304688 19.828125 358.613281 25.140625 358.613281 31.6875 L 358.613281 343.3125 C 358.613281 349.859375 353.304688 355.171875 346.753906 355.171875 L 35.128906 355.171875 C 28.582031 355.171875 23.273438 349.859375 23.273438 343.3125 L 23.273438 31.6875 C 23.273438 25.140625 28.582031 19.828125 35.128906 19.828125 Z M 35.128906 19.828125 " clip-rule="nonzero"/></clipPath><clipPath id="5a7d41706a"><path d="M 0.273438 0.828125 L 335.613281 0.828125 L 335.613281 336.171875 L 0.273438 336.171875 Z M 0.273438 0.828125 " clip-rule="nonzero"/></clipPath><clipPath id="691edf1f39"><path d="M 12.128906 0.828125 L 323.753906 0.828125 C 330.304688 0.828125 335.613281 6.140625 335.613281 12.6875 L 335.613281 324.3125 C 335.613281 330.859375 330.304688 336.171875 323.753906 336.171875 L 12.128906 336.171875 C 5.582031 336.171875 0.273438 330.859375 0.273438 324.3125 L 0.273438 12.6875 C 0.273438 6.140625 5.582031 0.828125 12.128906 0.828125 Z M 12.128906 0.828125 " clip-rule="nonzero"/></clipPath><clipPath id="9b60ab591d"><rect x="0" width="336" y="0" height="337"/></clipPath><clipPath id="5cc10a8cdb"><path d="M 62.835938 93.226562 L 319.019531 93.226562 L 319.019531 281.769531 L 62.835938 281.769531 Z M 62.835938 93.226562 " clip-rule="nonzero"/></clipPath><clipPath id="f26131a07a"><rect x="0" width="1140" y="0" height="272"/></clipPath></defs><g clip-path="url(#2764c74d2e)"><g clip-path="url(#7614c76bdc)"><g transform="matrix(1, 0, 0, 1, 23, 19)"><g clip-path="url(#9b60ab591d)"><g clip-path="url(#5a7d41706a)"><g clip-path="url(#691edf1f39)"><path fill="#000000" d="M 0.273438 0.828125 L 335.613281 0.828125 L 335.613281 336.171875 L 0.273438 336.171875 Z M 0.273438 0.828125 " fill-opacity="1" fill-rule="nonzero"/></g></g></g></g></g></g><g clip-path="url(#5cc10a8cdb)"><path fill="#ffffff" d="M 305.949219 194.816406 C 301.242188 202.121094 282.09375 209.601562 279.121094 210.726562 C 278.929688 210.800781 278.742188 210.886719 278.554688 210.972656 C 278 211.234375 276.183594 211.730469 273.519531 208.890625 C 271.179688 206.402344 267.148438 200.089844 265.097656 196.789062 C 264.429688 195.714844 264.90625 194.296875 266.089844 193.847656 L 301.832031 180.253906 C 302.589844 179.964844 303.445312 180.171875 303.984375 180.777344 C 305.949219 182.988281 309.925781 188.648438 305.949219 194.816406 Z M 296.558594 248.464844 C 294.085938 249.171875 290.542969 249.660156 285.59375 249.363281 C 283.835938 249.253906 282.15625 248.59375 280.804688 247.46875 L 269.605469 238.167969 C 267.933594 236.78125 268.226562 234.125 270.171875 233.144531 C 274.390625 231.023438 281.78125 228.28125 290.9375 228.996094 C 294.824219 229.300781 298.203125 231.777344 299.628906 235.40625 C 300.238281 236.960938 300.808594 238.835938 301.195312 241.039062 C 301.78125 244.335938 299.78125 247.546875 296.558594 248.464844 Z M 263.140625 250.015625 L 118.71875 250.015625 C 117.28125 250.015625 116.527344 249.113281 117.503906 248.558594 L 124.015625 244.839844 C 131.394531 241.039062 139.957031 240.699219 143.347656 240.734375 C 147.136719 240.773438 150.929688 240.785156 154.71875 240.785156 L 227.136719 240.785156 C 230.929688 240.785156 234.71875 240.773438 238.511719 240.734375 C 241.898438 240.699219 250.460938 241.039062 257.84375 244.839844 L 264.351562 248.558594 C 265.328125 249.113281 264.578125 250.015625 263.140625 250.015625 Z M 116.761719 196.789062 C 114.710938 200.089844 110.679688 206.402344 108.335938 208.890625 C 105.667969 211.730469 103.855469 211.234375 103.300781 210.972656 C 103.117188 210.886719 102.925781 210.800781 102.738281 210.726562 C 99.765625 209.601562 80.617188 202.121094 75.90625 194.816406 C 71.933594 188.648438 75.910156 182.988281 77.871094 180.777344 C 78.40625 180.171875 79.265625 179.964844 80.023438 180.253906 L 115.765625 193.847656 C 116.949219 194.296875 117.425781 195.714844 116.761719 196.789062 Z M 112.25 238.167969 L 101.050781 247.46875 C 99.699219 248.59375 98.019531 249.253906 96.261719 249.363281 C 91.3125 249.660156 87.773438 249.171875 85.296875 248.464844 C 82.074219 247.546875 80.078125 244.335938 80.660156 241.039062 C 81.046875 238.835938 81.617188 236.960938 82.226562 235.40625 C 83.65625 231.777344 87.03125 229.300781 90.917969 228.996094 C 100.074219 228.28125 107.46875 231.023438 111.6875 233.144531 C 113.628906 234.125 113.921875 236.78125 112.25 238.167969 Z M 256.476562 217.621094 C 253.621094 220.15625 248.980469 222.890625 241.644531 224.121094 C 241.644531 224.121094 222.796875 227.46875 190.925781 227.46875 C 159.058594 227.46875 140.210938 224.121094 140.210938 224.121094 C 132.875 222.890625 128.234375 220.15625 125.382812 217.621094 C 122.589844 215.140625 121.984375 211.007812 123.941406 207.828125 L 125.496094 205.300781 C 128.410156 200.566406 133.230469 197.316406 138.722656 196.425781 C 150.496094 194.523438 169.082031 194.378906 180.609375 194.511719 C 187.410156 194.589844 194.210938 194.597656 201.011719 194.515625 C 212.519531 194.378906 231.277344 194.507812 243.136719 196.425781 C 248.625 197.316406 253.445312 200.566406 256.359375 205.300781 L 257.914062 207.828125 C 259.871094 211.007812 259.269531 215.140625 256.476562 217.621094 Z M 105.265625 141 C 106.492188 137.15625 110.519531 127.234375 123.019531 109.730469 C 125.597656 106.121094 129.660156 103.851562 134.089844 103.558594 C 145.539062 102.792969 169.335938 101.402344 190.925781 101.402344 C 212.519531 101.402344 236.316406 102.792969 247.765625 103.558594 C 252.195312 103.851562 256.253906 106.121094 258.835938 109.730469 C 271.335938 127.234375 275.363281 137.15625 276.589844 141 C 276.886719 141.917969 276.1875 142.855469 275.222656 142.839844 L 190.925781 141.542969 L 106.632812 142.839844 C 105.667969 142.855469 104.972656 141.917969 105.265625 141 Z M 319.015625 252.628906 L 317.976562 191.832031 C 317.3125 173.96875 292.539062 151.101562 292.539062 151.101562 C 295.058594 149.734375 297.859375 148.941406 300.726562 148.816406 C 304.78125 148.636719 310.539062 147.226562 309.152344 140.441406 C 307.625 132.957031 296.175781 131.167969 290.09375 130.75 C 288.183594 130.617188 286.679688 132.347656 287.066406 134.222656 L 289.1875 144.546875 C 289.191406 144.550781 289.191406 144.558594 289.191406 144.566406 C 289.34375 145.335938 288.289062 145.730469 287.882812 145.050781 L 285.996094 141.871094 C 271.015625 116.1875 264.484375 107.082031 258.992188 102.375 C 256.503906 100.238281 253.519531 98.753906 250.316406 98.042969 C 226.589844 92.773438 190.925781 93.238281 190.925781 93.238281 C 190.925781 93.238281 155.269531 92.773438 131.539062 98.042969 C 128.335938 98.753906 125.351562 100.238281 122.863281 102.375 C 117.371094 107.082031 110.839844 116.1875 95.863281 141.871094 L 93.972656 145.050781 C 93.566406 145.730469 92.511719 145.335938 92.664062 144.566406 C 92.664062 144.558594 92.664062 144.550781 92.667969 144.546875 L 94.792969 134.222656 C 95.179688 132.347656 93.671875 130.617188 91.765625 130.75 C 85.683594 131.167969 74.230469 132.957031 72.703125 140.441406 C 71.316406 147.226562 77.074219 148.636719 81.132812 148.816406 C 84 148.941406 86.796875 149.734375 89.320312 151.101562 C 89.320312 151.101562 64.542969 173.96875 63.882812 191.832031 L 62.839844 252.628906 C 62.796875 255.152344 63.792969 257.566406 65.574219 259.296875 L 65.574219 266.382812 C 65.574219 274.847656 72.496094 281.769531 80.957031 281.769531 L 109.179688 281.769531 C 114.917969 281.769531 119.613281 277.078125 119.613281 271.335938 L 119.613281 266.933594 L 262.246094 266.933594 L 262.246094 271.335938 C 262.246094 277.078125 266.941406 281.769531 272.675781 281.769531 L 300.898438 281.769531 C 309.363281 281.769531 316.285156 274.847656 316.285156 266.382812 L 316.285156 259.296875 C 318.0625 257.566406 319.058594 255.152344 319.015625 252.628906 " fill-opacity="1" fill-rule="nonzero"/></g><g transform="matrix(1, 0, 0, 1, 464, 76)"><g clip-path="url(#f26131a07a)"><g fill="#000000" fill-opacity="1"><g transform="translate(0.55705, 202.963741)"><g><path d="M 65.671875 5.671875 C 49.816406 5.671875 36.617188 1.394531 26.078125 -7.15625 C 15.535156 -15.71875 8.644531 -27.65625 5.40625 -42.96875 L 25.125 -51.34375 C 26.75 -39.632812 31.03125 -30.488281 37.96875 -23.90625 C 44.90625 -17.332031 53.867188 -14.046875 64.859375 -14.046875 C 75.847656 -14.046875 84.3125 -17.601562 90.25 -24.71875 C 96.195312 -31.84375 99.171875 -41.976562 99.171875 -55.125 L 99.171875 -190.515625 L 121.875 -190.515625 L 121.875 -52.96875 C 121.875 -34.40625 116.960938 -19.988281 107.140625 -9.71875 C 97.328125 0.539062 83.503906 5.671875 65.671875 5.671875 Z M 65.671875 5.671875 "/></g></g></g><g fill="#000000" fill-opacity="1"><g transform="translate(145.941915, 202.963741)"><g><path d="M 58.09375 5.40625 C 47.832031 5.40625 38.738281 3.691406 30.8125 0.265625 C 22.882812 -3.148438 16.664062 -7.96875 12.15625 -14.1875 C 7.65625 -20.40625 5.40625 -27.566406 5.40625 -35.671875 C 5.40625 -46.660156 10.132812 -56.207031 19.59375 -64.3125 C 29.050781 -72.414062 44.859375 -77.820312 67.015625 -80.53125 L 100.796875 -84.578125 C 104.222656 -84.941406 106.925781 -86.066406 108.90625 -87.953125 C 110.882812 -89.847656 111.875 -92.238281 111.875 -95.125 C 111.875 -103.59375 108.179688 -110.394531 100.796875 -115.53125 C 93.410156 -120.664062 83.769531 -123.234375 71.875 -123.234375 C 63.414062 -123.234375 55.851562 -121.65625 49.1875 -118.5 C 42.519531 -115.34375 37.25 -111.242188 33.375 -106.203125 C 29.5 -101.160156 27.378906 -95.9375 27.015625 -90.53125 L 8.375 -98.359375 C 9.28125 -105.929688 12.566406 -113.003906 18.234375 -119.578125 C 23.910156 -126.148438 31.476562 -131.507812 40.9375 -135.65625 C 50.394531 -139.800781 60.976562 -141.875 72.6875 -141.875 C 84.40625 -141.875 94.722656 -139.847656 103.640625 -135.796875 C 112.554688 -131.742188 119.535156 -125.976562 124.578125 -118.5 C 129.617188 -111.019531 132.140625 -102.144531 132.140625 -91.875 L 132.140625 -22.703125 C 132.140625 -19.992188 132.816406 -17.785156 134.171875 -16.078125 C 135.523438 -14.367188 137.28125 -13.515625 139.4375 -13.515625 C 143.582031 -13.515625 147.273438 -16.21875 150.515625 -21.625 L 161.59375 -8.640625 C 158.71875 -4.503906 154.710938 -1.128906 149.578125 1.484375 C 144.441406 4.097656 139.257812 5.40625 134.03125 5.40625 C 127.363281 5.40625 122.046875 3.289062 118.078125 -0.9375 C 114.117188 -5.175781 111.960938 -10.359375 111.609375 -16.484375 L 111.34375 -22.703125 L 111.0625 -22.703125 C 106.195312 -14.054688 99.210938 -7.207031 90.109375 -2.15625 C 81.015625 2.882812 70.34375 5.40625 58.09375 5.40625 Z M 61.609375 -13.234375 C 71.160156 -13.234375 79.671875 -15.171875 87.140625 -19.046875 C 94.617188 -22.921875 100.519531 -28.234375 104.84375 -34.984375 C 109.175781 -41.742188 111.34375 -49.539062 111.34375 -58.375 L 111.34375 -68.09375 L 69.1875 -62.96875 C 52.789062 -60.976562 41.484375 -57.550781 35.265625 -52.6875 C 29.046875 -47.832031 25.9375 -42.25 25.9375 -35.9375 C 25.9375 -29.09375 29.269531 -23.597656 35.9375 -19.453125 C 42.601562 -15.304688 51.160156 -13.234375 61.609375 -13.234375 Z M 61.609375 -13.234375 "/></g></g></g><g fill="#000000" fill-opacity="1"><g transform="translate(317.53928, 202.963741)"><g><path d="M 72.6875 -142.140625 C 84.40625 -142.140625 94 -138.445312 101.46875 -131.0625 C 108.945312 -123.675781 113.316406 -113.140625 114.578125 -99.453125 L 96.75 -93.5 C 95.664062 -103.050781 92.734375 -110.347656 87.953125 -115.390625 C 83.179688 -120.429688 77.101562 -122.953125 69.71875 -122.953125 C 58.726562 -122.953125 50.035156 -118.71875 43.640625 -110.25 C 37.242188 -101.78125 34.046875 -90.070312 34.046875 -75.125 L 34.046875 0 L 13.515625 0 L 13.515625 -136.46875 L 31.078125 -136.46875 L 32.96875 -115.125 L 33.234375 -115.125 C 37.015625 -123.40625 42.375 -129.976562 49.3125 -134.84375 C 56.25 -139.707031 64.039062 -142.140625 72.6875 -142.140625 Z M 72.6875 -142.140625 "/></g></g></g><g fill="#000000" fill-opacity="1"><g transform="translate(446.439989, 202.963741)"><g><path d="M 58.09375 5.40625 C 47.832031 5.40625 38.738281 3.691406 30.8125 0.265625 C 22.882812 -3.148438 16.664062 -7.96875 12.15625 -14.1875 C 7.65625 -20.40625 5.40625 -27.566406 5.40625 -35.671875 C 5.40625 -46.660156 10.132812 -56.207031 19.59375 -64.3125 C 29.050781 -72.414062 44.859375 -77.820312 67.015625 -80.53125 L 100.796875 -84.578125 C 104.222656 -84.941406 106.925781 -86.066406 108.90625 -87.953125 C 110.882812 -89.847656 111.875 -92.238281 111.875 -95.125 C 111.875 -103.59375 108.179688 -110.394531 100.796875 -115.53125 C 93.410156 -120.664062 83.769531 -123.234375 71.875 -123.234375 C 63.414062 -123.234375 55.851562 -121.65625 49.1875 -118.5 C 42.519531 -115.34375 37.25 -111.242188 33.375 -106.203125 C 29.5 -101.160156 27.378906 -95.9375 27.015625 -90.53125 L 8.375 -98.359375 C 9.28125 -105.929688 12.566406 -113.003906 18.234375 -119.578125 C 23.910156 -126.148438 31.476562 -131.507812 40.9375 -135.65625 C 50.394531 -139.800781 60.976562 -141.875 72.6875 -141.875 C 84.40625 -141.875 94.722656 -139.847656 103.640625 -135.796875 C 112.554688 -131.742188 119.535156 -125.976562 124.578125 -118.5 C 129.617188 -111.019531 132.140625 -102.144531 132.140625 -91.875 L 132.140625 -22.703125 C 132.140625 -19.992188 132.816406 -17.785156 134.171875 -16.078125 C 135.523438 -14.367188 137.28125 -13.515625 139.4375 -13.515625 C 143.582031 -13.515625 147.273438 -16.21875 150.515625 -21.625 L 161.59375 -8.640625 C 158.71875 -4.503906 154.710938 -1.128906 149.578125 1.484375 C 144.441406 4.097656 139.257812 5.40625 134.03125 5.40625 C 127.363281 5.40625 122.046875 3.289062 118.078125 -0.9375 C 114.117188 -5.175781 111.960938 -10.359375 111.609375 -16.484375 L 111.34375 -22.703125 L 111.0625 -22.703125 C 106.195312 -14.054688 99.210938 -7.207031 90.109375 -2.15625 C 81.015625 2.882812 70.34375 5.40625 58.09375 5.40625 Z M 61.609375 -13.234375 C 71.160156 -13.234375 79.671875 -15.171875 87.140625 -19.046875 C 94.617188 -22.921875 100.519531 -28.234375 104.84375 -34.984375 C 109.175781 -41.742188 111.34375 -49.539062 111.34375 -58.375 L 111.34375 -68.09375 L 69.1875 -62.96875 C 52.789062 -60.976562 41.484375 -57.550781 35.265625 -52.6875 C 29.046875 -47.832031 25.9375 -42.25 25.9375 -35.9375 C 25.9375 -29.09375 29.269531 -23.597656 35.9375 -19.453125 C 42.601562 -15.304688 51.160156 -13.234375 61.609375 -13.234375 Z M 61.609375 -13.234375 "/></g></g></g><g fill="#000000" fill-opacity="1"><g transform="translate(618.037311, 202.963741)"><g><path d="M 110.53125 6.75 C 89.988281 6.75 72.148438 2.5625 57.015625 -5.8125 C 41.878906 -14.1875 30.164062 -25.984375 21.875 -41.203125 C 13.59375 -56.429688 9.453125 -74.40625 9.453125 -95.125 C 9.453125 -116.019531 13.328125 -134.078125 21.078125 -149.296875 C 28.828125 -164.523438 39.816406 -176.328125 54.046875 -184.703125 C 68.273438 -193.078125 85.117188 -197.265625 104.578125 -197.265625 C 118.453125 -197.265625 131.019531 -194.515625 142.28125 -189.015625 C 153.539062 -183.523438 163.039062 -175.828125 170.78125 -165.921875 C 178.53125 -156.015625 183.847656 -144.210938 186.734375 -130.515625 L 165.390625 -125.390625 C 162.503906 -141.421875 155.566406 -154.078125 144.578125 -163.359375 C 133.585938 -172.640625 120.253906 -177.28125 104.578125 -177.28125 C 89.804688 -177.28125 76.96875 -173.945312 66.0625 -167.28125 C 55.164062 -160.613281 46.742188 -151.109375 40.796875 -138.765625 C 34.859375 -126.421875 31.890625 -111.875 31.890625 -95.125 C 32.066406 -78.550781 35.351562 -64.09375 41.75 -51.75 C 48.144531 -39.40625 57.242188 -29.898438 69.046875 -23.234375 C 80.847656 -16.566406 94.675781 -13.234375 110.53125 -13.234375 C 123.320312 -13.234375 134.757812 -15.800781 144.84375 -20.9375 C 154.9375 -26.070312 163.222656 -33.320312 169.703125 -42.6875 C 176.191406 -52.0625 180.335938 -63.054688 182.140625 -75.671875 L 203.75 -70.265625 C 201.414062 -54.585938 196.015625 -40.984375 187.546875 -29.453125 C 179.078125 -17.921875 168.265625 -9.003906 155.109375 -2.703125 C 141.960938 3.597656 127.101562 6.75 110.53125 6.75 Z M 110.53125 6.75 "/></g></g></g><g fill="#000000" fill-opacity="1"><g transform="translate(837.195461, 202.963741)"><g><path d="M 58.09375 5.40625 C 47.832031 5.40625 38.738281 3.691406 30.8125 0.265625 C 22.882812 -3.148438 16.664062 -7.96875 12.15625 -14.1875 C 7.65625 -20.40625 5.40625 -27.566406 5.40625 -35.671875 C 5.40625 -46.660156 10.132812 -56.207031 19.59375 -64.3125 C 29.050781 -72.414062 44.859375 -77.820312 67.015625 -80.53125 L 100.796875 -84.578125 C 104.222656 -84.941406 106.925781 -86.066406 108.90625 -87.953125 C 110.882812 -89.847656 111.875 -92.238281 111.875 -95.125 C 111.875 -103.59375 108.179688 -110.394531 100.796875 -115.53125 C 93.410156 -120.664062 83.769531 -123.234375 71.875 -123.234375 C 63.414062 -123.234375 55.851562 -121.65625 49.1875 -118.5 C 42.519531 -115.34375 37.25 -111.242188 33.375 -106.203125 C 29.5 -101.160156 27.378906 -95.9375 27.015625 -90.53125 L 8.375 -98.359375 C 9.28125 -105.929688 12.566406 -113.003906 18.234375 -119.578125 C 23.910156 -126.148438 31.476562 -131.507812 40.9375 -135.65625 C 50.394531 -139.800781 60.976562 -141.875 72.6875 -141.875 C 84.40625 -141.875 94.722656 -139.847656 103.640625 -135.796875 C 112.554688 -131.742188 119.535156 -125.976562 124.578125 -118.5 C 129.617188 -111.019531 132.140625 -102.144531 132.140625 -91.875 L 132.140625 -22.703125 C 132.140625 -19.992188 132.816406 -17.785156 134.171875 -16.078125 C 135.523438 -14.367188 137.28125 -13.515625 139.4375 -13.515625 C 143.582031 -13.515625 147.273438 -16.21875 150.515625 -21.625 L 161.59375 -8.640625 C 158.71875 -4.503906 154.710938 -1.128906 149.578125 1.484375 C 144.441406 4.097656 139.257812 5.40625 134.03125 5.40625 C 127.363281 5.40625 122.046875 3.289062 118.078125 -0.9375 C 114.117188 -5.175781 111.960938 -10.359375 111.609375 -16.484375 L 111.34375 -22.703125 L 111.0625 -22.703125 C 106.195312 -14.054688 99.210938 -7.207031 90.109375 -2.15625 C 81.015625 2.882812 70.34375 5.40625 58.09375 5.40625 Z M 61.609375 -13.234375 C 71.160156 -13.234375 79.671875 -15.171875 87.140625 -19.046875 C 94.617188 -22.921875 100.519531 -28.234375 104.84375 -34.984375 C 109.175781 -41.742188 111.34375 -49.539062 111.34375 -58.375 L 111.34375 -68.09375 L 69.1875 -62.96875 C 52.789062 -60.976562 41.484375 -57.550781 35.265625 -52.6875 C 29.046875 -47.832031 25.9375 -42.25 25.9375 -35.9375 C 25.9375 -29.09375 29.269531 -23.597656 35.9375 -19.453125 C 42.601562 -15.304688 51.160156 -13.234375 61.609375 -13.234375 Z M 61.609375 -13.234375 "/></g></g></g><g fill="#000000" fill-opacity="1"><g transform="translate(1008.792827, 202.963741)"><g><path d="M 72.6875 -142.140625 C 84.40625 -142.140625 94 -138.445312 101.46875 -131.0625 C 108.945312 -123.675781 113.316406 -113.140625 114.578125 -99.453125 L 96.75 -93.5 C 95.664062 -103.050781 92.734375 -110.347656 87.953125 -115.390625 C 83.179688 -120.429688 77.101562 -122.953125 69.71875 -122.953125 C 58.726562 -122.953125 50.035156 -118.71875 43.640625 -110.25 C 37.242188 -101.78125 34.046875 -90.070312 34.046875 -75.125 L 34.046875 0 L 13.515625 0 L 13.515625 -136.46875 L 31.078125 -136.46875 L 32.96875 -115.125 L 33.234375 -115.125 C 37.015625 -123.40625 42.375 -129.976562 49.3125 -134.84375 C 56.25 -139.707031 64.039062 -142.140625 72.6875 -142.140625 Z M 72.6875 -142.140625 "/></g></g></g></g></g></svg>