<svg xmlns="http://www.w3.org/2000/svg" xmlns:xlink="http://www.w3.org/1999/xlink" width="2200" zoomAndPan="magnify" viewBox="0 0 1650 374.999991" height="500" preserveAspectRatio="xMidYMid meet" version="1.0"><defs><g/><clipPath id="706ef291c7"><path d="M 23.273438 19.828125 L 358.613281 19.828125 L 358.613281 355.171875 L 23.273438 355.171875 Z M 23.273438 19.828125 " clip-rule="nonzero"/></clipPath><clipPath id="e80d8daa7f"><path d="M 35.128906 19.828125 L 346.753906 19.828125 C 353.304688 19.828125 358.613281 25.140625 358.613281 31.6875 L 358.613281 343.3125 C 358.613281 349.859375 353.304688 355.171875 346.753906 355.171875 L 35.128906 355.171875 C 28.582031 355.171875 23.273438 349.859375 23.273438 343.3125 L 23.273438 31.6875 C 23.273438 25.140625 28.582031 19.828125 35.128906 19.828125 Z M 35.128906 19.828125 " clip-rule="nonzero"/></clipPath><clipPath id="81ac291950"><path d="M 0.273438 0.828125 L 335.613281 0.828125 L 335.613281 336.171875 L 0.273438 336.171875 Z M 0.273438 0.828125 " clip-rule="nonzero"/></clipPath><clipPath id="8f7d248d7a"><path d="M 12.128906 0.828125 L 323.753906 0.828125 C 330.304688 0.828125 335.613281 6.140625 335.613281 12.6875 L 335.613281 324.3125 C 335.613281 330.859375 330.304688 336.171875 323.753906 336.171875 L 12.128906 336.171875 C 5.582031 336.171875 0.273438 330.859375 0.273438 324.3125 L 0.273438 12.6875 C 0.273438 6.140625 5.582031 0.828125 12.128906 0.828125 Z M 12.128906 0.828125 " clip-rule="nonzero"/></clipPath><clipPath id="79a2216685"><rect x="0" width="336" y="0" height="337"/></clipPath><clipPath id="c222216d8f"><path d="M 62.835938 93.226562 L 319.3125 93.226562 L 319.3125 282.144531 L 62.835938 282.144531 Z M 62.835938 93.226562 " clip-rule="nonzero"/></clipPath><clipPath id="56b4f9965f"><rect x="0" width="1140" y="0" height="272"/></clipPath></defs><g clip-path="url(#706ef291c7)"><g clip-path="url(#e80d8daa7f)"><g transform="matrix(1, 0, 0, 1, 23, 19)"><g clip-path="url(#79a2216685)"><g clip-path="url(#81ac291950)"><g clip-path="url(#8f7d248d7a)"><path fill="#ffffff" d="M 0.273438 0.828125 L 335.613281 0.828125 L 335.613281 336.171875 L 0.273438 336.171875 Z M 0.273438 0.828125 " fill-opacity="1" fill-rule="nonzero"/></g></g></g></g></g></g><g clip-path="url(#c222216d8f)"><path fill="#000000" d="M 306.226562 195.015625 C 301.511719 202.335938 282.34375 209.832031 279.367188 210.960938 C 279.175781 211.035156 278.988281 211.121094 278.800781 211.207031 C 278.246094 211.46875 276.429688 211.96875 273.761719 209.121094 C 271.417969 206.628906 267.382812 200.300781 265.328125 196.996094 C 264.660156 195.917969 265.140625 194.496094 266.324219 194.046875 L 302.105469 180.425781 C 302.867188 180.136719 303.722656 180.34375 304.261719 180.953125 C 306.226562 183.167969 310.207031 188.839844 306.226562 195.015625 Z M 296.828125 248.773438 C 294.351562 249.480469 290.804688 249.96875 285.847656 249.671875 C 284.089844 249.566406 282.40625 248.902344 281.054688 247.773438 L 269.839844 238.457031 C 268.167969 237.066406 268.460938 234.40625 270.40625 233.425781 C 274.632812 231.296875 282.03125 228.550781 291.199219 229.269531 C 295.089844 229.574219 298.472656 232.054688 299.898438 235.691406 C 300.507812 237.246094 301.082031 239.125 301.46875 241.332031 C 302.054688 244.636719 300.050781 247.855469 296.828125 248.773438 Z M 263.367188 250.324219 L 118.78125 250.324219 C 117.34375 250.324219 116.589844 249.421875 117.566406 248.867188 L 124.082031 245.140625 C 131.472656 241.332031 140.042969 240.992188 143.4375 241.027344 C 147.234375 241.066406 151.027344 241.078125 154.824219 241.078125 L 227.324219 241.078125 C 231.121094 241.078125 234.914062 241.066406 238.710938 241.027344 C 242.105469 240.992188 250.675781 241.332031 258.066406 245.140625 L 264.582031 248.867188 C 265.558594 249.421875 264.808594 250.324219 263.367188 250.324219 Z M 116.820312 196.996094 C 114.769531 200.300781 110.734375 206.628906 108.390625 209.121094 C 105.71875 211.96875 103.902344 211.46875 103.347656 211.207031 C 103.160156 211.121094 102.972656 211.035156 102.78125 210.960938 C 99.808594 209.832031 80.636719 202.335938 75.921875 195.015625 C 71.941406 188.839844 75.925781 183.167969 77.886719 180.953125 C 78.425781 180.34375 79.285156 180.136719 80.042969 180.425781 L 115.828125 194.046875 C 117.011719 194.496094 117.488281 195.917969 116.820312 196.996094 Z M 112.308594 238.457031 L 101.097656 247.773438 C 99.742188 248.902344 98.058594 249.566406 96.300781 249.671875 C 91.34375 249.96875 87.800781 249.480469 85.320312 248.773438 C 82.097656 247.855469 80.097656 244.636719 80.679688 241.332031 C 81.070312 239.125 81.640625 237.246094 82.25 235.691406 C 83.679688 232.054688 87.058594 229.574219 90.949219 229.269531 C 100.117188 228.550781 107.519531 231.296875 111.742188 233.425781 C 113.6875 234.40625 113.980469 237.066406 112.308594 238.457031 Z M 256.695312 217.871094 C 253.839844 220.410156 249.191406 223.148438 241.847656 224.382812 C 241.847656 224.382812 222.980469 227.734375 191.074219 227.734375 C 159.167969 227.734375 140.300781 224.382812 140.300781 224.382812 C 132.957031 223.148438 128.308594 220.410156 125.453125 217.871094 C 122.65625 215.382812 122.050781 211.242188 124.011719 208.054688 L 125.570312 205.523438 C 128.488281 200.777344 133.3125 197.523438 138.808594 196.632812 C 150.597656 194.722656 169.203125 194.582031 180.746094 194.714844 C 187.550781 194.792969 194.359375 194.800781 201.171875 194.71875 C 212.691406 194.578125 231.472656 194.710938 243.339844 196.632812 C 248.835938 197.523438 253.664062 200.777344 256.582031 205.523438 L 258.136719 208.054688 C 260.097656 211.242188 259.492188 215.382812 256.695312 217.871094 Z M 105.316406 141.09375 C 106.542969 137.242188 110.574219 127.304688 123.089844 109.765625 C 125.671875 106.144531 129.738281 103.875 134.171875 103.578125 C 145.636719 102.8125 169.457031 101.417969 191.074219 101.417969 C 212.691406 101.417969 236.515625 102.8125 247.976562 103.578125 C 252.414062 103.875 256.476562 106.144531 259.058594 109.765625 C 271.574219 127.304688 275.605469 137.242188 276.835938 141.09375 C 277.128906 142.011719 276.433594 142.953125 275.464844 142.9375 L 191.074219 141.640625 L 106.683594 142.9375 C 105.714844 142.953125 105.019531 142.011719 105.316406 141.09375 Z M 319.308594 252.945312 L 318.265625 192.03125 C 317.605469 174.128906 292.800781 151.214844 292.800781 151.214844 C 295.324219 149.847656 298.125 149.054688 301 148.925781 C 305.058594 148.75 310.820312 147.335938 309.4375 140.535156 C 307.90625 133.035156 296.441406 131.246094 290.351562 130.824219 C 288.441406 130.691406 286.933594 132.425781 287.320312 134.304688 L 289.449219 144.648438 C 289.449219 144.652344 289.449219 144.660156 289.453125 144.667969 C 289.605469 145.441406 288.546875 145.832031 288.140625 145.15625 L 286.25 141.96875 C 271.253906 116.234375 264.714844 107.109375 259.21875 102.394531 C 256.726562 100.253906 253.738281 98.765625 250.53125 98.054688 C 226.777344 92.773438 191.074219 93.238281 191.074219 93.238281 C 191.074219 93.238281 155.375 92.773438 131.617188 98.054688 C 128.410156 98.765625 125.425781 100.253906 122.933594 102.394531 C 117.433594 107.109375 110.894531 116.234375 95.902344 141.96875 L 94.007812 145.15625 C 93.601562 145.832031 92.546875 145.441406 92.699219 144.667969 C 92.699219 144.660156 92.699219 144.652344 92.703125 144.648438 L 94.828125 134.304688 C 95.214844 132.425781 93.707031 130.691406 91.796875 130.824219 C 85.707031 131.246094 74.246094 133.035156 72.714844 140.535156 C 71.328125 147.335938 77.09375 148.75 81.152344 148.925781 C 84.023438 149.054688 86.824219 149.847656 89.347656 151.214844 C 89.347656 151.214844 64.542969 174.128906 63.882812 192.03125 L 62.839844 252.945312 C 62.796875 255.472656 63.796875 257.890625 65.574219 259.628906 L 65.574219 266.730469 C 65.574219 275.207031 72.507812 282.144531 80.976562 282.144531 L 109.234375 282.144531 C 114.976562 282.144531 119.675781 277.441406 119.675781 271.691406 L 119.675781 267.28125 L 262.472656 267.28125 L 262.472656 271.691406 C 262.472656 277.441406 267.171875 282.144531 272.914062 282.144531 L 301.171875 282.144531 C 309.644531 282.144531 316.574219 275.207031 316.574219 266.730469 L 316.574219 259.628906 C 318.355469 257.890625 319.351562 255.472656 319.308594 252.945312 " fill-opacity="1" fill-rule="nonzero"/></g><g transform="matrix(1, 0, 0, 1, 464, 76)"><g clip-path="url(#56b4f9965f)"><g fill="#ffffff" fill-opacity="1"><g transform="translate(0.55705, 202.963741)"><g><path d="M 65.671875 5.671875 C 49.816406 5.671875 36.617188 1.394531 26.078125 -7.15625 C 15.535156 -15.71875 8.644531 -27.65625 5.40625 -42.96875 L 25.125 -51.34375 C 26.75 -39.632812 31.03125 -30.488281 37.96875 -23.90625 C 44.90625 -17.332031 53.867188 -14.046875 64.859375 -14.046875 C 75.847656 -14.046875 84.3125 -17.601562 90.25 -24.71875 C 96.195312 -31.84375 99.171875 -41.976562 99.171875 -55.125 L 99.171875 -190.515625 L 121.875 -190.515625 L 121.875 -52.96875 C 121.875 -34.40625 116.960938 -19.988281 107.140625 -9.71875 C 97.328125 0.539062 83.503906 5.671875 65.671875 5.671875 Z M 65.671875 5.671875 "/></g></g></g><g fill="#ffffff" fill-opacity="1"><g transform="translate(145.941915, 202.963741)"><g><path d="M 58.09375 5.40625 C 47.832031 5.40625 38.738281 3.691406 30.8125 0.265625 C 22.882812 -3.148438 16.664062 -7.96875 12.15625 -14.1875 C 7.65625 -20.40625 5.40625 -27.566406 5.40625 -35.671875 C 5.40625 -46.660156 10.132812 -56.207031 19.59375 -64.3125 C 29.050781 -72.414062 44.859375 -77.820312 67.015625 -80.53125 L 100.796875 -84.578125 C 104.222656 -84.941406 106.925781 -86.066406 108.90625 -87.953125 C 110.882812 -89.847656 111.875 -92.238281 111.875 -95.125 C 111.875 -103.59375 108.179688 -110.394531 100.796875 -115.53125 C 93.410156 -120.664062 83.769531 -123.234375 71.875 -123.234375 C 63.414062 -123.234375 55.851562 -121.65625 49.1875 -118.5 C 42.519531 -115.34375 37.25 -111.242188 33.375 -106.203125 C 29.5 -101.160156 27.378906 -95.9375 27.015625 -90.53125 L 8.375 -98.359375 C 9.28125 -105.929688 12.566406 -113.003906 18.234375 -119.578125 C 23.910156 -126.148438 31.476562 -131.507812 40.9375 -135.65625 C 50.394531 -139.800781 60.976562 -141.875 72.6875 -141.875 C 84.40625 -141.875 94.722656 -139.847656 103.640625 -135.796875 C 112.554688 -131.742188 119.535156 -125.976562 124.578125 -118.5 C 129.617188 -111.019531 132.140625 -102.144531 132.140625 -91.875 L 132.140625 -22.703125 C 132.140625 -19.992188 132.816406 -17.785156 134.171875 -16.078125 C 135.523438 -14.367188 137.28125 -13.515625 139.4375 -13.515625 C 143.582031 -13.515625 147.273438 -16.21875 150.515625 -21.625 L 161.59375 -8.640625 C 158.71875 -4.503906 154.710938 -1.128906 149.578125 1.484375 C 144.441406 4.097656 139.257812 5.40625 134.03125 5.40625 C 127.363281 5.40625 122.046875 3.289062 118.078125 -0.9375 C 114.117188 -5.175781 111.960938 -10.359375 111.609375 -16.484375 L 111.34375 -22.703125 L 111.0625 -22.703125 C 106.195312 -14.054688 99.210938 -7.207031 90.109375 -2.15625 C 81.015625 2.882812 70.34375 5.40625 58.09375 5.40625 Z M 61.609375 -13.234375 C 71.160156 -13.234375 79.671875 -15.171875 87.140625 -19.046875 C 94.617188 -22.921875 100.519531 -28.234375 104.84375 -34.984375 C 109.175781 -41.742188 111.34375 -49.539062 111.34375 -58.375 L 111.34375 -68.09375 L 69.1875 -62.96875 C 52.789062 -60.976562 41.484375 -57.550781 35.265625 -52.6875 C 29.046875 -47.832031 25.9375 -42.25 25.9375 -35.9375 C 25.9375 -29.09375 29.269531 -23.597656 35.9375 -19.453125 C 42.601562 -15.304688 51.160156 -13.234375 61.609375 -13.234375 Z M 61.609375 -13.234375 "/></g></g></g><g fill="#ffffff" fill-opacity="1"><g transform="translate(317.53928, 202.963741)"><g><path d="M 72.6875 -142.140625 C 84.40625 -142.140625 94 -138.445312 101.46875 -131.0625 C 108.945312 -123.675781 113.316406 -113.140625 114.578125 -99.453125 L 96.75 -93.5 C 95.664062 -103.050781 92.734375 -110.347656 87.953125 -115.390625 C 83.179688 -120.429688 77.101562 -122.953125 69.71875 -122.953125 C 58.726562 -122.953125 50.035156 -118.71875 43.640625 -110.25 C 37.242188 -101.78125 34.046875 -90.070312 34.046875 -75.125 L 34.046875 0 L 13.515625 0 L 13.515625 -136.46875 L 31.078125 -136.46875 L 32.96875 -115.125 L 33.234375 -115.125 C 37.015625 -123.40625 42.375 -129.976562 49.3125 -134.84375 C 56.25 -139.707031 64.039062 -142.140625 72.6875 -142.140625 Z M 72.6875 -142.140625 "/></g></g></g><g fill="#ffffff" fill-opacity="1"><g transform="translate(446.439989, 202.963741)"><g><path d="M 58.09375 5.40625 C 47.832031 5.40625 38.738281 3.691406 30.8125 0.265625 C 22.882812 -3.148438 16.664062 -7.96875 12.15625 -14.1875 C 7.65625 -20.40625 5.40625 -27.566406 5.40625 -35.671875 C 5.40625 -46.660156 10.132812 -56.207031 19.59375 -64.3125 C 29.050781 -72.414062 44.859375 -77.820312 67.015625 -80.53125 L 100.796875 -84.578125 C 104.222656 -84.941406 106.925781 -86.066406 108.90625 -87.953125 C 110.882812 -89.847656 111.875 -92.238281 111.875 -95.125 C 111.875 -103.59375 108.179688 -110.394531 100.796875 -115.53125 C 93.410156 -120.664062 83.769531 -123.234375 71.875 -123.234375 C 63.414062 -123.234375 55.851562 -121.65625 49.1875 -118.5 C 42.519531 -115.34375 37.25 -111.242188 33.375 -106.203125 C 29.5 -101.160156 27.378906 -95.9375 27.015625 -90.53125 L 8.375 -98.359375 C 9.28125 -105.929688 12.566406 -113.003906 18.234375 -119.578125 C 23.910156 -126.148438 31.476562 -131.507812 40.9375 -135.65625 C 50.394531 -139.800781 60.976562 -141.875 72.6875 -141.875 C 84.40625 -141.875 94.722656 -139.847656 103.640625 -135.796875 C 112.554688 -131.742188 119.535156 -125.976562 124.578125 -118.5 C 129.617188 -111.019531 132.140625 -102.144531 132.140625 -91.875 L 132.140625 -22.703125 C 132.140625 -19.992188 132.816406 -17.785156 134.171875 -16.078125 C 135.523438 -14.367188 137.28125 -13.515625 139.4375 -13.515625 C 143.582031 -13.515625 147.273438 -16.21875 150.515625 -21.625 L 161.59375 -8.640625 C 158.71875 -4.503906 154.710938 -1.128906 149.578125 1.484375 C 144.441406 4.097656 139.257812 5.40625 134.03125 5.40625 C 127.363281 5.40625 122.046875 3.289062 118.078125 -0.9375 C 114.117188 -5.175781 111.960938 -10.359375 111.609375 -16.484375 L 111.34375 -22.703125 L 111.0625 -22.703125 C 106.195312 -14.054688 99.210938 -7.207031 90.109375 -2.15625 C 81.015625 2.882812 70.34375 5.40625 58.09375 5.40625 Z M 61.609375 -13.234375 C 71.160156 -13.234375 79.671875 -15.171875 87.140625 -19.046875 C 94.617188 -22.921875 100.519531 -28.234375 104.84375 -34.984375 C 109.175781 -41.742188 111.34375 -49.539062 111.34375 -58.375 L 111.34375 -68.09375 L 69.1875 -62.96875 C 52.789062 -60.976562 41.484375 -57.550781 35.265625 -52.6875 C 29.046875 -47.832031 25.9375 -42.25 25.9375 -35.9375 C 25.9375 -29.09375 29.269531 -23.597656 35.9375 -19.453125 C 42.601562 -15.304688 51.160156 -13.234375 61.609375 -13.234375 Z M 61.609375 -13.234375 "/></g></g></g><g fill="#ffffff" fill-opacity="1"><g transform="translate(618.037311, 202.963741)"><g><path d="M 110.53125 6.75 C 89.988281 6.75 72.148438 2.5625 57.015625 -5.8125 C 41.878906 -14.1875 30.164062 -25.984375 21.875 -41.203125 C 13.59375 -56.429688 9.453125 -74.40625 9.453125 -95.125 C 9.453125 -116.019531 13.328125 -134.078125 21.078125 -149.296875 C 28.828125 -164.523438 39.816406 -176.328125 54.046875 -184.703125 C 68.273438 -193.078125 85.117188 -197.265625 104.578125 -197.265625 C 118.453125 -197.265625 131.019531 -194.515625 142.28125 -189.015625 C 153.539062 -183.523438 163.039062 -175.828125 170.78125 -165.921875 C 178.53125 -156.015625 183.847656 -144.210938 186.734375 -130.515625 L 165.390625 -125.390625 C 162.503906 -141.421875 155.566406 -154.078125 144.578125 -163.359375 C 133.585938 -172.640625 120.253906 -177.28125 104.578125 -177.28125 C 89.804688 -177.28125 76.96875 -173.945312 66.0625 -167.28125 C 55.164062 -160.613281 46.742188 -151.109375 40.796875 -138.765625 C 34.859375 -126.421875 31.890625 -111.875 31.890625 -95.125 C 32.066406 -78.550781 35.351562 -64.09375 41.75 -51.75 C 48.144531 -39.40625 57.242188 -29.898438 69.046875 -23.234375 C 80.847656 -16.566406 94.675781 -13.234375 110.53125 -13.234375 C 123.320312 -13.234375 134.757812 -15.800781 144.84375 -20.9375 C 154.9375 -26.070312 163.222656 -33.320312 169.703125 -42.6875 C 176.191406 -52.0625 180.335938 -63.054688 182.140625 -75.671875 L 203.75 -70.265625 C 201.414062 -54.585938 196.015625 -40.984375 187.546875 -29.453125 C 179.078125 -17.921875 168.265625 -9.003906 155.109375 -2.703125 C 141.960938 3.597656 127.101562 6.75 110.53125 6.75 Z M 110.53125 6.75 "/></g></g></g><g fill="#ffffff" fill-opacity="1"><g transform="translate(837.195461, 202.963741)"><g><path d="M 58.09375 5.40625 C 47.832031 5.40625 38.738281 3.691406 30.8125 0.265625 C 22.882812 -3.148438 16.664062 -7.96875 12.15625 -14.1875 C 7.65625 -20.40625 5.40625 -27.566406 5.40625 -35.671875 C 5.40625 -46.660156 10.132812 -56.207031 19.59375 -64.3125 C 29.050781 -72.414062 44.859375 -77.820312 67.015625 -80.53125 L 100.796875 -84.578125 C 104.222656 -84.941406 106.925781 -86.066406 108.90625 -87.953125 C 110.882812 -89.847656 111.875 -92.238281 111.875 -95.125 C 111.875 -103.59375 108.179688 -110.394531 100.796875 -115.53125 C 93.410156 -120.664062 83.769531 -123.234375 71.875 -123.234375 C 63.414062 -123.234375 55.851562 -121.65625 49.1875 -118.5 C 42.519531 -115.34375 37.25 -111.242188 33.375 -106.203125 C 29.5 -101.160156 27.378906 -95.9375 27.015625 -90.53125 L 8.375 -98.359375 C 9.28125 -105.929688 12.566406 -113.003906 18.234375 -119.578125 C 23.910156 -126.148438 31.476562 -131.507812 40.9375 -135.65625 C 50.394531 -139.800781 60.976562 -141.875 72.6875 -141.875 C 84.40625 -141.875 94.722656 -139.847656 103.640625 -135.796875 C 112.554688 -131.742188 119.535156 -125.976562 124.578125 -118.5 C 129.617188 -111.019531 132.140625 -102.144531 132.140625 -91.875 L 132.140625 -22.703125 C 132.140625 -19.992188 132.816406 -17.785156 134.171875 -16.078125 C 135.523438 -14.367188 137.28125 -13.515625 139.4375 -13.515625 C 143.582031 -13.515625 147.273438 -16.21875 150.515625 -21.625 L 161.59375 -8.640625 C 158.71875 -4.503906 154.710938 -1.128906 149.578125 1.484375 C 144.441406 4.097656 139.257812 5.40625 134.03125 5.40625 C 127.363281 5.40625 122.046875 3.289062 118.078125 -0.9375 C 114.117188 -5.175781 111.960938 -10.359375 111.609375 -16.484375 L 111.34375 -22.703125 L 111.0625 -22.703125 C 106.195312 -14.054688 99.210938 -7.207031 90.109375 -2.15625 C 81.015625 2.882812 70.34375 5.40625 58.09375 5.40625 Z M 61.609375 -13.234375 C 71.160156 -13.234375 79.671875 -15.171875 87.140625 -19.046875 C 94.617188 -22.921875 100.519531 -28.234375 104.84375 -34.984375 C 109.175781 -41.742188 111.34375 -49.539062 111.34375 -58.375 L 111.34375 -68.09375 L 69.1875 -62.96875 C 52.789062 -60.976562 41.484375 -57.550781 35.265625 -52.6875 C 29.046875 -47.832031 25.9375 -42.25 25.9375 -35.9375 C 25.9375 -29.09375 29.269531 -23.597656 35.9375 -19.453125 C 42.601562 -15.304688 51.160156 -13.234375 61.609375 -13.234375 Z M 61.609375 -13.234375 "/></g></g></g><g fill="#ffffff" fill-opacity="1"><g transform="translate(1008.792827, 202.963741)"><g><path d="M 72.6875 -142.140625 C 84.40625 -142.140625 94 -138.445312 101.46875 -131.0625 C 108.945312 -123.675781 113.316406 -113.140625 114.578125 -99.453125 L 96.75 -93.5 C 95.664062 -103.050781 92.734375 -110.347656 87.953125 -115.390625 C 83.179688 -120.429688 77.101562 -122.953125 69.71875 -122.953125 C 58.726562 -122.953125 50.035156 -118.71875 43.640625 -110.25 C 37.242188 -101.78125 34.046875 -90.070312 34.046875 -75.125 L 34.046875 0 L 13.515625 0 L 13.515625 -136.46875 L 31.078125 -136.46875 L 32.96875 -115.125 L 33.234375 -115.125 C 37.015625 -123.40625 42.375 -129.976562 49.3125 -134.84375 C 56.25 -139.707031 64.039062 -142.140625 72.6875 -142.140625 Z M 72.6875 -142.140625 "/></g></g></g></g></g></svg>