<svg xmlns="http://www.w3.org/2000/svg" xmlns:xlink="http://www.w3.org/1999/xlink" width="2100" zoomAndPan="magnify" viewBox="0 0 1574.88 374.999991" height="500" preserveAspectRatio="xMidYMid meet" version="1.0"><defs><g/><clipPath id="6b9b9d43f3"><path d="M 22.359375 19.84375 L 357.671875 19.84375 L 357.671875 355.15625 L 22.359375 355.15625 Z M 22.359375 19.84375 " clip-rule="nonzero"/></clipPath><clipPath id="64be3462d2"><path d="M 34.214844 19.84375 L 345.816406 19.84375 C 352.363281 19.84375 357.671875 25.152344 357.671875 31.699219 L 357.671875 343.300781 C 357.671875 349.847656 352.363281 355.15625 345.816406 355.15625 L 34.214844 355.15625 C 27.667969 355.15625 22.359375 349.847656 22.359375 343.300781 L 22.359375 31.699219 C 22.359375 25.152344 27.667969 19.84375 34.214844 19.84375 Z M 34.214844 19.84375 " clip-rule="nonzero"/></clipPath><clipPath id="375074a1d2"><path d="M 0.359375 0.84375 L 335.671875 0.84375 L 335.671875 336.15625 L 0.359375 336.15625 Z M 0.359375 0.84375 " clip-rule="nonzero"/></clipPath><clipPath id="38b58fbb8f"><path d="M 12.214844 0.84375 L 323.816406 0.84375 C 330.363281 0.84375 335.671875 6.152344 335.671875 12.699219 L 335.671875 324.300781 C 335.671875 330.847656 330.363281 336.15625 323.816406 336.15625 L 12.214844 336.15625 C 5.667969 336.15625 0.359375 330.847656 0.359375 324.300781 L 0.359375 12.699219 C 0.359375 6.152344 5.667969 0.84375 12.214844 0.84375 Z M 12.214844 0.84375 " clip-rule="nonzero"/></clipPath><clipPath id="09de32d348"><rect x="0" width="336" y="0" height="337"/></clipPath><clipPath id="bef012b966"><path d="M 96 108.574219 L 284 108.574219 L 284 166 L 96 166 Z M 96 108.574219 " clip-rule="nonzero"/></clipPath><clipPath id="8ff52d1e30"><path d="M 67 239 L 108 239 L 108 266.0625 L 67 266.0625 Z M 67 239 " clip-rule="nonzero"/></clipPath><clipPath id="b215f856c9"><path d="M 272 239 L 313 239 L 313 266.0625 L 272 266.0625 Z M 272 239 " clip-rule="nonzero"/></clipPath><clipPath id="0e5a92ad9e"><path d="M 62.457031 140 L 105 140 L 105 166 L 62.457031 166 Z M 62.457031 140 " clip-rule="nonzero"/></clipPath><clipPath id="e85501afde"><path d="M 275 140 L 317.4375 140 L 317.4375 166 L 275 166 Z M 275 140 " clip-rule="nonzero"/></clipPath><clipPath id="182e367a60"><rect x="0" width="1140" y="0" height="272"/></clipPath></defs><g clip-path="url(#6b9b9d43f3)"><g clip-path="url(#64be3462d2)"><g transform="matrix(1, 0, 0, 1, 22, 19)"><g clip-path="url(#09de32d348)"><g clip-path="url(#375074a1d2)"><g clip-path="url(#38b58fbb8f)"><path fill="#ffffff" d="M 0.359375 0.84375 L 335.671875 0.84375 L 335.671875 336.15625 L 0.359375 336.15625 Z M 0.359375 0.84375 " fill-opacity="1" fill-rule="nonzero"/></g></g></g></g></g></g><g clip-path="url(#bef012b966)"><path fill="#000000" d="M 276.644531 165.988281 C 273.527344 156.890625 269.457031 148.085938 264.546875 139.816406 C 262.171875 135.824219 259.570312 131.898438 256.804688 128.148438 C 252.988281 122.976562 247.09375 119.570312 240.632812 118.789062 C 223.910156 116.777344 206.890625 115.753906 190.046875 115.75 L 189.957031 115.75 C 172.898438 115.75 155.65625 116.796875 138.707031 118.863281 C 132.382812 119.636719 126.695312 122.878906 122.695312 128 C 120.121094 131.296875 117.707031 134.777344 115.519531 138.339844 C 110.265625 146.902344 106.175781 156.148438 103.355469 165.828125 L 96.519531 163.847656 C 99.511719 153.558594 103.863281 143.726562 109.445312 134.628906 C 111.777344 130.832031 114.347656 127.136719 117.082031 123.632812 C 122.25 117.011719 129.621094 112.8125 137.84375 111.8125 C 155.074219 109.710938 172.609375 108.644531 189.953125 108.644531 L 190.042969 108.644531 C 207.164062 108.644531 224.46875 109.6875 241.472656 111.734375 C 249.871094 112.746094 257.546875 117.191406 262.523438 123.9375 C 265.433594 127.875 268.167969 131.996094 270.660156 136.191406 C 275.820312 144.878906 280.097656 154.128906 283.367188 163.683594 L 276.632812 165.988281 Z M 276.644531 165.988281 " fill-opacity="1" fill-rule="nonzero"/></g><path fill="#000000" d="M 312.789062 232.640625 L 67.183594 232.640625 L 67.222656 189.933594 C 67.800781 186.140625 69.160156 182.5625 71.257812 179.316406 C 72.378906 177.582031 75.785156 172.3125 88.46875 165.769531 C 88.894531 165.546875 89.34375 165.320312 89.808594 165.089844 C 102.15625 158.949219 116.21875 155.707031 130.476562 155.707031 L 249.441406 155.707031 C 262.941406 155.707031 276.292969 158.617188 288.058594 164.121094 C 289.710938 164.894531 291.1875 165.636719 292.5 166.328125 C 302.988281 171.867188 306.671875 176.171875 308.710938 179.308594 C 310.820312 182.5625 312.1875 186.140625 312.753906 189.945312 L 312.792969 190.46875 L 312.792969 232.640625 Z M 74.300781 225.53125 L 305.664062 225.53125 L 305.664062 190.742188 C 305.222656 188.042969 304.234375 185.496094 302.726562 183.171875 C 301.160156 180.761719 298.203125 177.375 289.160156 172.609375 C 287.945312 171.96875 286.570312 171.269531 285.03125 170.550781 C 274.207031 165.488281 261.898438 162.8125 249.4375 162.8125 L 130.46875 162.8125 C 117.308594 162.8125 104.34375 165.796875 92.972656 171.449219 C 92.539062 171.664062 92.125 171.871094 91.734375 172.082031 C 84.433594 175.851562 79.550781 179.578125 77.238281 183.164062 C 75.730469 185.496094 74.746094 188.042969 74.300781 190.742188 Z M 74.300781 225.53125 " fill-opacity="1" fill-rule="nonzero"/><path fill="#000000" d="M 252.851562 232.640625 L 127.113281 232.640625 L 127.113281 227.53125 C 127.113281 216.386719 136.195312 207.320312 147.359375 207.320312 L 232.605469 207.320312 C 243.769531 207.320312 252.851562 216.386719 252.851562 227.53125 Z M 134.386719 225.53125 L 245.578125 225.53125 C 244.613281 219.25 239.160156 214.421875 232.605469 214.421875 L 147.359375 214.421875 C 140.804688 214.421875 135.351562 219.25 134.386719 225.53125 Z M 134.386719 225.53125 " fill-opacity="1" fill-rule="nonzero"/><path fill="#000000" d="M 126.242188 204.558594 L 95.808594 204.558594 C 91.542969 204.558594 88.015625 202.078125 87.214844 198.519531 L 84.945312 188.394531 C 84.457031 186.203125 85.128906 183.96875 86.796875 182.261719 C 89.183594 179.808594 93.257812 178.714844 97.1875 179.476562 C 104.679688 180.925781 111.457031 182.296875 117.578125 183.53125 C 122.117188 184.449219 129.519531 185.949219 133.164062 190.785156 C 133.949219 191.828125 134.515625 192.964844 134.855469 194.160156 L 134.992188 194.636719 L 134.992188 197.105469 C 134.992188 201.285156 131.148438 204.566406 126.242188 204.566406 Z M 91.964844 187.144531 L 94.164062 196.96875 C 94.222656 197.019531 94.816406 197.449219 95.808594 197.449219 L 126.242188 197.449219 C 127.144531 197.449219 127.699219 197.117188 127.875 196.929688 L 127.875 195.710938 C 127.773438 195.484375 127.644531 195.257812 127.476562 195.039062 C 125.460938 192.363281 119.488281 191.15625 116.285156 190.507812 C 110.0625 189.25 103.308594 187.882812 95.832031 186.4375 C 93.914062 186.0625 92.429688 186.710938 91.964844 187.132812 Z M 91.964844 187.144531 " fill-opacity="1" fill-rule="nonzero"/><path fill="#000000" d="M 284.15625 204.558594 L 253.722656 204.558594 C 248.816406 204.558594 244.972656 201.28125 244.972656 197.097656 L 244.972656 194.628906 L 245.109375 194.152344 C 245.449219 192.953125 246.015625 191.816406 246.800781 190.78125 C 250.445312 185.941406 257.847656 184.445312 262.273438 183.550781 L 262.507812 183.503906 C 268.605469 182.273438 275.339844 180.910156 282.785156 179.46875 C 286.707031 178.714844 290.78125 179.804688 293.171875 182.253906 C 294.839844 183.96875 295.515625 186.203125 295.027344 188.386719 L 292.753906 198.515625 C 291.957031 202.066406 288.421875 204.554688 284.160156 204.554688 Z M 252.089844 196.9375 C 252.265625 197.121094 252.820312 197.457031 253.722656 197.457031 L 284.15625 197.457031 C 285.148438 197.457031 285.738281 197.03125 285.828125 196.882812 L 288 187.152344 C 287.535156 186.726562 286.054688 186.078125 284.128906 186.453125 C 276.703125 187.886719 269.988281 189.246094 263.90625 190.476562 L 263.679688 190.523438 C 260.46875 191.171875 254.503906 192.378906 252.480469 195.058594 C 252.316406 195.277344 252.183594 195.496094 252.082031 195.722656 L 252.082031 196.945312 Z M 252.089844 196.9375 " fill-opacity="1" fill-rule="nonzero"/><path fill="#000000" d="M 312.789062 246.300781 L 67.183594 246.300781 L 67.183594 225.53125 L 312.789062 225.53125 Z M 74.300781 239.199219 L 305.664062 239.199219 L 305.664062 232.640625 L 74.300781 232.640625 Z M 74.300781 239.199219 " fill-opacity="1" fill-rule="nonzero"/><g clip-path="url(#8ff52d1e30)"><path fill="#000000" d="M 95.820312 266.035156 L 79.109375 266.035156 C 72.527344 266.035156 67.175781 260.691406 67.175781 254.125 L 67.175781 239.191406 L 107.753906 239.191406 L 107.753906 254.125 C 107.753906 260.691406 102.402344 266.035156 95.820312 266.035156 Z M 74.300781 246.300781 L 74.300781 254.125 C 74.300781 256.773438 76.457031 258.925781 79.109375 258.925781 L 95.820312 258.925781 C 98.472656 258.925781 100.632812 256.773438 100.632812 254.125 L 100.632812 246.300781 Z M 74.300781 246.300781 " fill-opacity="1" fill-rule="nonzero"/></g><g clip-path="url(#b215f856c9)"><path fill="#000000" d="M 300.855469 266.035156 L 284.144531 266.035156 C 277.5625 266.035156 272.210938 260.691406 272.210938 254.125 L 272.210938 239.191406 L 312.789062 239.191406 L 312.789062 254.125 C 312.789062 260.691406 307.433594 266.035156 300.855469 266.035156 Z M 279.332031 246.300781 L 279.332031 254.125 C 279.332031 256.773438 281.492188 258.925781 284.144531 258.925781 L 300.855469 258.925781 C 303.507812 258.925781 305.664062 256.773438 305.664062 254.125 L 305.664062 246.300781 Z M 279.332031 246.300781 " fill-opacity="1" fill-rule="nonzero"/></g><g clip-path="url(#0e5a92ad9e)"><path fill="#000000" d="M 104.578125 165.851562 L 76.449219 165.851562 C 68.75 165.851562 62.480469 159.59375 62.480469 151.90625 C 62.480469 145.628906 67.59375 140.53125 73.875 140.53125 L 88.492188 140.53125 C 97.359375 140.53125 104.578125 147.734375 104.578125 156.585938 L 104.578125 165.855469 Z M 73.882812 147.632812 C 71.523438 147.632812 69.601562 149.550781 69.601562 151.90625 C 69.601562 155.675781 72.679688 158.742188 76.449219 158.742188 L 97.453125 158.742188 L 97.453125 156.582031 C 97.453125 151.648438 93.433594 147.632812 88.492188 147.632812 L 73.875 147.632812 Z M 73.882812 147.632812 " fill-opacity="1" fill-rule="nonzero"/></g><g clip-path="url(#e85501afde)"><path fill="#000000" d="M 303.515625 165.851562 L 275.386719 165.851562 L 275.386719 156.582031 C 275.386719 147.730469 282.605469 140.523438 291.472656 140.523438 L 306.089844 140.523438 C 312.375 140.523438 317.492188 145.628906 317.492188 151.898438 C 317.492188 159.59375 311.21875 165.84375 303.519531 165.84375 Z M 282.503906 158.742188 L 303.507812 158.742188 C 307.285156 158.742188 310.355469 155.671875 310.355469 151.90625 C 310.355469 149.550781 308.4375 147.632812 306.078125 147.632812 L 291.460938 147.632812 C 286.519531 147.632812 282.496094 151.648438 282.496094 156.582031 L 282.496094 158.742188 Z M 282.503906 158.742188 " fill-opacity="1" fill-rule="nonzero"/></g><g transform="matrix(1, 0, 0, 1, 405, 76)"><g clip-path="url(#182e367a60)"><g fill="#ffffff" fill-opacity="1"><g transform="translate(0.436053, 202.956774)"><g><path d="M 65.65625 5.671875 C 49.8125 5.671875 36.617188 1.394531 26.078125 -7.15625 C 15.535156 -15.71875 8.644531 -27.65625 5.40625 -42.96875 L 25.125 -51.34375 C 26.75 -39.632812 31.03125 -30.488281 37.96875 -23.90625 C 44.90625 -17.332031 53.867188 -14.046875 64.859375 -14.046875 C 75.835938 -14.046875 84.300781 -17.601562 90.25 -24.71875 C 96.195312 -31.84375 99.171875 -41.976562 99.171875 -55.125 L 99.171875 -190.5 L 121.875 -190.5 L 121.875 -52.96875 C 121.875 -34.40625 116.960938 -19.988281 107.140625 -9.71875 C 97.328125 0.539062 83.5 5.671875 65.65625 5.671875 Z M 65.65625 5.671875 "/></g></g></g><g fill="#ffffff" fill-opacity="1"><g transform="translate(145.809845, 202.956774)"><g><path d="M 58.09375 5.40625 C 47.820312 5.40625 38.722656 3.691406 30.796875 0.265625 C 22.878906 -3.148438 16.664062 -7.96875 12.15625 -14.1875 C 7.65625 -20.40625 5.40625 -27.566406 5.40625 -35.671875 C 5.40625 -46.660156 10.132812 -56.207031 19.59375 -64.3125 C 29.050781 -72.414062 44.859375 -77.820312 67.015625 -80.53125 L 100.796875 -84.578125 C 104.210938 -84.941406 106.910156 -86.066406 108.890625 -87.953125 C 110.878906 -89.847656 111.875 -92.234375 111.875 -95.109375 C 111.875 -103.578125 108.179688 -110.378906 100.796875 -115.515625 C 93.410156 -120.648438 83.769531 -123.21875 71.875 -123.21875 C 63.40625 -123.21875 55.835938 -121.640625 49.171875 -118.484375 C 42.515625 -115.335938 37.25 -111.238281 33.375 -106.1875 C 29.5 -101.144531 27.378906 -95.921875 27.015625 -90.515625 L 8.375 -98.359375 C 9.28125 -105.921875 12.566406 -112.988281 18.234375 -119.5625 C 23.910156 -126.144531 31.476562 -131.503906 40.9375 -135.640625 C 50.394531 -139.785156 60.976562 -141.859375 72.6875 -141.859375 C 84.394531 -141.859375 94.707031 -139.832031 103.625 -135.78125 C 112.539062 -131.726562 119.519531 -125.960938 124.5625 -118.484375 C 129.613281 -111.015625 132.140625 -102.144531 132.140625 -91.875 L 132.140625 -22.703125 C 132.140625 -19.992188 132.8125 -17.785156 134.15625 -16.078125 C 135.507812 -14.367188 137.269531 -13.515625 139.4375 -13.515625 C 143.570312 -13.515625 147.265625 -16.21875 150.515625 -21.625 L 161.59375 -8.640625 C 158.707031 -4.503906 154.695312 -1.128906 149.5625 1.484375 C 144.425781 4.097656 139.25 5.40625 134.03125 5.40625 C 127.363281 5.40625 122.046875 3.289062 118.078125 -0.9375 C 114.117188 -5.175781 111.957031 -10.359375 111.59375 -16.484375 L 111.328125 -22.703125 L 111.0625 -22.703125 C 106.195312 -14.054688 99.210938 -7.207031 90.109375 -2.15625 C 81.015625 2.882812 70.34375 5.40625 58.09375 5.40625 Z M 61.609375 -13.234375 C 71.160156 -13.234375 79.671875 -15.171875 87.140625 -19.046875 C 94.617188 -22.921875 100.519531 -28.234375 104.84375 -34.984375 C 109.164062 -41.742188 111.328125 -49.539062 111.328125 -58.375 L 111.328125 -68.09375 L 69.171875 -62.96875 C 52.785156 -60.976562 41.484375 -57.550781 35.265625 -52.6875 C 29.046875 -47.820312 25.9375 -42.238281 25.9375 -35.9375 C 25.9375 -29.09375 29.269531 -23.597656 35.9375 -19.453125 C 42.601562 -15.304688 51.160156 -13.234375 61.609375 -13.234375 Z M 61.609375 -13.234375 "/></g></g></g><g fill="#ffffff" fill-opacity="1"><g transform="translate(317.39414, 202.956774)"><g><path d="M 72.6875 -142.140625 C 84.394531 -142.140625 93.988281 -138.445312 101.46875 -131.0625 C 108.945312 -123.675781 113.316406 -113.132812 114.578125 -99.4375 L 96.734375 -93.5 C 95.648438 -103.039062 92.722656 -110.332031 87.953125 -115.375 C 83.179688 -120.425781 77.101562 -122.953125 69.71875 -122.953125 C 58.726562 -122.953125 50.035156 -118.71875 43.640625 -110.25 C 37.242188 -101.78125 34.046875 -90.070312 34.046875 -75.125 L 34.046875 0 L 13.515625 0 L 13.515625 -136.453125 L 31.078125 -136.453125 L 32.96875 -115.109375 L 33.234375 -115.109375 C 37.015625 -123.398438 42.375 -129.976562 49.3125 -134.84375 C 56.25 -139.707031 64.039062 -142.140625 72.6875 -142.140625 Z M 72.6875 -142.140625 "/></g></g></g><g fill="#ffffff" fill-opacity="1"><g transform="translate(446.285031, 202.956774)"><g><path d="M 58.09375 5.40625 C 47.820312 5.40625 38.722656 3.691406 30.796875 0.265625 C 22.878906 -3.148438 16.664062 -7.96875 12.15625 -14.1875 C 7.65625 -20.40625 5.40625 -27.566406 5.40625 -35.671875 C 5.40625 -46.660156 10.132812 -56.207031 19.59375 -64.3125 C 29.050781 -72.414062 44.859375 -77.820312 67.015625 -80.53125 L 100.796875 -84.578125 C 104.210938 -84.941406 106.910156 -86.066406 108.890625 -87.953125 C 110.878906 -89.847656 111.875 -92.234375 111.875 -95.109375 C 111.875 -103.578125 108.179688 -110.378906 100.796875 -115.515625 C 93.410156 -120.648438 83.769531 -123.21875 71.875 -123.21875 C 63.40625 -123.21875 55.835938 -121.640625 49.171875 -118.484375 C 42.515625 -115.335938 37.25 -111.238281 33.375 -106.1875 C 29.5 -101.144531 27.378906 -95.921875 27.015625 -90.515625 L 8.375 -98.359375 C 9.28125 -105.921875 12.566406 -112.988281 18.234375 -119.5625 C 23.910156 -126.144531 31.476562 -131.503906 40.9375 -135.640625 C 50.394531 -139.785156 60.976562 -141.859375 72.6875 -141.859375 C 84.394531 -141.859375 94.707031 -139.832031 103.625 -135.78125 C 112.539062 -131.726562 119.519531 -125.960938 124.5625 -118.484375 C 129.613281 -111.015625 132.140625 -102.144531 132.140625 -91.875 L 132.140625 -22.703125 C 132.140625 -19.992188 132.8125 -17.785156 134.15625 -16.078125 C 135.507812 -14.367188 137.269531 -13.515625 139.4375 -13.515625 C 143.570312 -13.515625 147.265625 -16.21875 150.515625 -21.625 L 161.59375 -8.640625 C 158.707031 -4.503906 154.695312 -1.128906 149.5625 1.484375 C 144.425781 4.097656 139.25 5.40625 134.03125 5.40625 C 127.363281 5.40625 122.046875 3.289062 118.078125 -0.9375 C 114.117188 -5.175781 111.957031 -10.359375 111.59375 -16.484375 L 111.328125 -22.703125 L 111.0625 -22.703125 C 106.195312 -14.054688 99.210938 -7.207031 90.109375 -2.15625 C 81.015625 2.882812 70.34375 5.40625 58.09375 5.40625 Z M 61.609375 -13.234375 C 71.160156 -13.234375 79.671875 -15.171875 87.140625 -19.046875 C 94.617188 -22.921875 100.519531 -28.234375 104.84375 -34.984375 C 109.164062 -41.742188 111.328125 -49.539062 111.328125 -58.375 L 111.328125 -68.09375 L 69.171875 -62.96875 C 52.785156 -60.976562 41.484375 -57.550781 35.265625 -52.6875 C 29.046875 -47.820312 25.9375 -42.238281 25.9375 -35.9375 C 25.9375 -29.09375 29.269531 -23.597656 35.9375 -19.453125 C 42.601562 -15.304688 51.160156 -13.234375 61.609375 -13.234375 Z M 61.609375 -13.234375 "/></g></g></g><g fill="#ffffff" fill-opacity="1"><g transform="translate(617.869283, 202.956774)"><g><path d="M 110.515625 6.75 C 89.984375 6.75 72.148438 2.5625 57.015625 -5.8125 C 41.878906 -14.1875 30.164062 -25.984375 21.875 -41.203125 C 13.59375 -56.429688 9.453125 -74.398438 9.453125 -95.109375 C 9.453125 -116.015625 13.328125 -134.078125 21.078125 -149.296875 C 28.828125 -164.515625 39.816406 -176.3125 54.046875 -184.6875 C 68.273438 -193.070312 85.117188 -197.265625 104.578125 -197.265625 C 118.441406 -197.265625 131.003906 -194.515625 142.265625 -189.015625 C 153.523438 -183.523438 163.023438 -175.820312 170.765625 -165.90625 C 178.515625 -156 183.832031 -144.203125 186.71875 -130.515625 L 165.375 -125.375 C 162.488281 -141.414062 155.550781 -154.070312 144.5625 -163.34375 C 133.570312 -172.625 120.242188 -177.265625 104.578125 -177.265625 C 89.804688 -177.265625 76.96875 -173.929688 66.0625 -167.265625 C 55.164062 -160.597656 46.742188 -151.09375 40.796875 -138.75 C 34.859375 -126.414062 31.890625 -111.867188 31.890625 -95.109375 C 32.066406 -78.535156 35.351562 -64.078125 41.75 -51.734375 C 48.144531 -39.398438 57.238281 -29.898438 69.03125 -23.234375 C 80.832031 -16.566406 94.660156 -13.234375 110.515625 -13.234375 C 123.304688 -13.234375 134.742188 -15.800781 144.828125 -20.9375 C 154.921875 -26.070312 163.207031 -33.320312 169.6875 -42.6875 C 176.175781 -52.0625 180.320312 -63.050781 182.125 -75.65625 L 203.75 -70.25 C 201.40625 -54.582031 196 -40.984375 187.53125 -29.453125 C 179.0625 -17.921875 168.25 -9.003906 155.09375 -2.703125 C 141.945312 3.597656 127.085938 6.75 110.515625 6.75 Z M 110.515625 6.75 "/></g></g></g><g fill="#ffffff" fill-opacity="1"><g transform="translate(837.010741, 202.956774)"><g><path d="M 58.09375 5.40625 C 47.820312 5.40625 38.722656 3.691406 30.796875 0.265625 C 22.878906 -3.148438 16.664062 -7.96875 12.15625 -14.1875 C 7.65625 -20.40625 5.40625 -27.566406 5.40625 -35.671875 C 5.40625 -46.660156 10.132812 -56.207031 19.59375 -64.3125 C 29.050781 -72.414062 44.859375 -77.820312 67.015625 -80.53125 L 100.796875 -84.578125 C 104.210938 -84.941406 106.910156 -86.066406 108.890625 -87.953125 C 110.878906 -89.847656 111.875 -92.234375 111.875 -95.109375 C 111.875 -103.578125 108.179688 -110.378906 100.796875 -115.515625 C 93.410156 -120.648438 83.769531 -123.21875 71.875 -123.21875 C 63.40625 -123.21875 55.835938 -121.640625 49.171875 -118.484375 C 42.515625 -115.335938 37.25 -111.238281 33.375 -106.1875 C 29.5 -101.144531 27.378906 -95.921875 27.015625 -90.515625 L 8.375 -98.359375 C 9.28125 -105.921875 12.566406 -112.988281 18.234375 -119.5625 C 23.910156 -126.144531 31.476562 -131.503906 40.9375 -135.640625 C 50.394531 -139.785156 60.976562 -141.859375 72.6875 -141.859375 C 84.394531 -141.859375 94.707031 -139.832031 103.625 -135.78125 C 112.539062 -131.726562 119.519531 -125.960938 124.5625 -118.484375 C 129.613281 -111.015625 132.140625 -102.144531 132.140625 -91.875 L 132.140625 -22.703125 C 132.140625 -19.992188 132.8125 -17.785156 134.15625 -16.078125 C 135.507812 -14.367188 137.269531 -13.515625 139.4375 -13.515625 C 143.570312 -13.515625 147.265625 -16.21875 150.515625 -21.625 L 161.59375 -8.640625 C 158.707031 -4.503906 154.695312 -1.128906 149.5625 1.484375 C 144.425781 4.097656 139.25 5.40625 134.03125 5.40625 C 127.363281 5.40625 122.046875 3.289062 118.078125 -0.9375 C 114.117188 -5.175781 111.957031 -10.359375 111.59375 -16.484375 L 111.328125 -22.703125 L 111.0625 -22.703125 C 106.195312 -14.054688 99.210938 -7.207031 90.109375 -2.15625 C 81.015625 2.882812 70.34375 5.40625 58.09375 5.40625 Z M 61.609375 -13.234375 C 71.160156 -13.234375 79.671875 -15.171875 87.140625 -19.046875 C 94.617188 -22.921875 100.519531 -28.234375 104.84375 -34.984375 C 109.164062 -41.742188 111.328125 -49.539062 111.328125 -58.375 L 111.328125 -68.09375 L 69.171875 -62.96875 C 52.785156 -60.976562 41.484375 -57.550781 35.265625 -52.6875 C 29.046875 -47.820312 25.9375 -42.238281 25.9375 -35.9375 C 25.9375 -29.09375 29.269531 -23.597656 35.9375 -19.453125 C 42.601562 -15.304688 51.160156 -13.234375 61.609375 -13.234375 Z M 61.609375 -13.234375 "/></g></g></g><g fill="#ffffff" fill-opacity="1"><g transform="translate(1008.595036, 202.956774)"><g><path d="M 72.6875 -142.140625 C 84.394531 -142.140625 93.988281 -138.445312 101.46875 -131.0625 C 108.945312 -123.675781 113.316406 -113.132812 114.578125 -99.4375 L 96.734375 -93.5 C 95.648438 -103.039062 92.722656 -110.332031 87.953125 -115.375 C 83.179688 -120.425781 77.101562 -122.953125 69.71875 -122.953125 C 58.726562 -122.953125 50.035156 -118.71875 43.640625 -110.25 C 37.242188 -101.78125 34.046875 -90.070312 34.046875 -75.125 L 34.046875 0 L 13.515625 0 L 13.515625 -136.453125 L 31.078125 -136.453125 L 32.96875 -115.109375 L 33.234375 -115.109375 C 37.015625 -123.398438 42.375 -129.976562 49.3125 -134.84375 C 56.25 -139.707031 64.039062 -142.140625 72.6875 -142.140625 Z M 72.6875 -142.140625 "/></g></g></g></g></g></svg>