<svg xmlns="http://www.w3.org/2000/svg" xmlns:xlink="http://www.w3.org/1999/xlink" width="120" zoomAndPan="magnify" viewBox="0 0 90 89.999999" height="120" preserveAspectRatio="xMidYMid meet" version="1.0"><defs><g/><clipPath id="2d1b9aba96"><path d="M 2.878906 0 L 87.121094 0 C 88.710938 0 90 1.289062 90 2.878906 L 90 87.121094 C 90 88.710938 88.710938 90 87.121094 90 L 2.878906 90 C 1.289062 90 0 88.710938 0 87.121094 L 0 2.878906 C 0 1.289062 1.289062 0 2.878906 0 Z M 2.878906 0 " clip-rule="nonzero"/></clipPath><clipPath id="1fc372ce27"><path d="M 0 0 L 90 0 L 90 90 L 0 90 Z M 0 0 " clip-rule="nonzero"/></clipPath><clipPath id="0b58fde27c"><path d="M 2.878906 0 L 87.121094 0 C 88.710938 0 90 1.289062 90 2.878906 L 90 87.121094 C 90 88.710938 88.710938 90 87.121094 90 L 2.878906 90 C 1.289062 90 0 88.710938 0 87.121094 L 0 2.878906 C 0 1.289062 1.289062 0 2.878906 0 Z M 2.878906 0 " clip-rule="nonzero"/></clipPath><clipPath id="98e8fa0d01"><rect x="0" width="90" y="0" height="90"/></clipPath></defs><g clip-path="url(#2d1b9aba96)"><g transform="matrix(1, 0, 0, 1, 0, -0.00000000000000949)"><g clip-path="url(#98e8fa0d01)"><g clip-path="url(#1fc372ce27)"><g clip-path="url(#0b58fde27c)"><rect x="-19.8" width="129.6" fill="#ffffff" height="129.599999" y="-19.8" fill-opacity="1"/></g></g></g></g></g><g fill="#000000" fill-opacity="1"><g transform="translate(15.671411, 65.000022)"><g><path d="M 59.125 -26.875 C 57.144531 -19.414062 53.78125 -13.378906 49.03125 -8.765625 C 44.289062 -4.148438 38.691406 -1.175781 32.234375 0.15625 C 34.316406 1.757812 36.640625 2.5625 39.203125 2.5625 C 40.535156 2.5625 41.71875 2.304688 42.75 1.796875 C 43.789062 1.296875 44.820312 0.644531 45.84375 -0.15625 C 45.945312 -0.257812 46.238281 -0.484375 46.71875 -0.828125 C 47.195312 -1.179688 47.625 -1.359375 48 -1.359375 C 48.476562 -1.359375 48.914062 -0.8125 49.3125 0.28125 C 49.71875 1.375 49.921875 2.71875 49.921875 4.3125 C 49.921875 5.914062 49.707031 7.4375 49.28125 8.875 C 48.476562 11.65625 47.050781 13.816406 45 15.359375 C 42.945312 16.910156 40.375 17.6875 37.28125 17.6875 C 30.664062 17.6875 26.023438 13.65625 23.359375 5.59375 L 21.765625 0.875 C 15.953125 0.445312 11.40625 -1.347656 8.125 -4.515625 C 4.84375 -7.691406 3.203125 -12.050781 3.203125 -17.59375 C 3.203125 -20.320312 3.65625 -23.414062 4.5625 -26.875 C 6.101562 -32.800781 8.539062 -37.828125 11.875 -41.953125 C 15.207031 -46.085938 19.179688 -49.207031 23.796875 -51.3125 C 28.410156 -53.425781 33.460938 -54.484375 38.953125 -54.484375 C 45.679688 -54.484375 50.9375 -52.894531 54.71875 -49.71875 C 58.507812 -46.539062 60.40625 -41.96875 60.40625 -36 C 60.40625 -33.175781 59.976562 -30.132812 59.125 -26.875 Z M 38 -26.3125 C 40.082031 -33.675781 41.125 -38.851562 41.125 -41.84375 C 41.125 -43.550781 40.828125 -44.773438 40.234375 -45.515625 C 39.648438 -46.265625 38.742188 -46.640625 37.515625 -46.640625 C 35.921875 -46.640625 34.484375 -46 33.203125 -44.71875 C 31.921875 -43.4375 30.648438 -41.34375 29.390625 -38.4375 C 28.140625 -35.53125 26.796875 -31.488281 25.359375 -26.3125 C 23.222656 -18.851562 22.15625 -13.707031 22.15625 -10.875 C 22.15625 -9.226562 22.445312 -8.03125 23.03125 -7.28125 C 23.625 -6.53125 24.5625 -6.15625 25.84375 -6.15625 C 27.4375 -6.15625 28.875 -6.804688 30.15625 -8.109375 C 31.4375 -9.421875 32.691406 -11.515625 33.921875 -14.390625 C 35.148438 -17.273438 36.507812 -21.25 38 -26.3125 Z M 38 -26.3125 "/></g></g></g></svg>